<svg width="1440" height="900" viewBox="0 0 1440 900" fill="none" xmlns="http://www.w3.org/2000/svg">
<g clip-path="url(#clip0_2432_326)">
<path d="M130.383 183.468C135.525 161.187 162.546 152.408 179.803 167.411L328.955 297.09C346.74 312.552 340.848 341.506 318.435 348.789L124.838 411.692C102.425 418.975 80.6394 399.014 85.9388 376.05L130.383 183.468Z" fill="#E84949"/>
<rect x="114.936" y="271.5" width="133.074" height="135.96" transform="rotate(-18 114.936 271.5)" fill="#FBF6EA"/>
<path d="M244.623 285.547L250.994 283.477L256.751 322.395L247.79 325.306L234.562 300.077L237.639 328.604L229.063 331.391L216.01 306.105L220.243 334.257L211.457 337.112L198.159 311.906L201.901 340.217L193.29 343.014L179.957 317.82L183.804 346.096L175.019 348.951L161.755 323.734L165.533 352.033L156.782 354.877L138.284 320.099L144.935 317.938L159.944 349.244L156.399 319.398L163.75 317.01L178.111 343.341L174.531 313.507L182.022 311.073L196.277 337.439L192.803 307.57L200.118 305.193L214.549 331.502L210.584 301.792L218.075 299.359L232.085 325.804L229.206 295.742L236.557 293.354L250.882 319.696L244.623 285.547Z" fill="#E84949"/>
</g>
<defs>
<clipPath id="clip0_2432_326">
<rect width="1440" height="900" fill="white"/>
</clipPath>
</defs>
</svg>
