<svg width="1440" height="900" viewBox="0 0 1440 900" fill="none" xmlns="http://www.w3.org/2000/svg">
<g clip-path="url(#clip0_2432_366)">
<path d="M266.084 585.208C286.89 568.949 317.52 580.707 322.103 606.712L361.715 831.477C366.439 858.278 340.11 879.98 314.704 870.227L95.2559 785.989C69.8496 776.237 64.8049 742.492 86.2483 725.735L266.084 585.208Z" fill="#E84949"/>
<rect x="188.248" y="652.982" width="153.667" height="157" transform="rotate(21 188.248 652.982)" fill="#FBF6EA"/>
<path d="M192.757 733.974L195.225 727.546L215.301 735.253L212.834 741.681L192.757 733.974ZM177.524 745.79L179.991 739.362L209.392 750.648L206.925 757.075L177.524 745.79ZM158.486 763.246L153.677 757.986L214.751 710.004L219.432 715.124L158.486 763.246ZM211.216 741.06L213.683 734.632L262.883 753.518L260.416 759.946L211.216 741.06ZM205.306 756.454L207.774 750.027L256.974 768.913L254.506 775.34L205.306 756.454ZM258.798 759.324L261.265 752.897L299.99 767.762L297.522 774.19L258.798 759.324ZM252.888 774.719L255.355 768.291L294.08 783.157L291.613 789.584L252.888 774.719Z" fill="#E84949"/>
</g>
<defs>
<clipPath id="clip0_2432_366">
<rect width="1440" height="900" fill="white"/>
</clipPath>
</defs>
</svg>
