<svg width="1440" height="900" viewBox="0 0 1440 900" fill="none" xmlns="http://www.w3.org/2000/svg">
<g clip-path="url(#clip0_2432_402)">
<path d="M479.44 596.242C484.971 575.594 510.502 568.273 526.134 582.853L661.248 708.87C677.359 723.896 670.909 750.754 649.732 756.826L466.815 809.277C445.638 815.349 425.936 795.99 431.637 774.71L479.44 596.242Z" fill="#FBF6EA"/>
<rect x="462.137" y="677.979" width="124.398" height="127.274" transform="rotate(-16 462.137 677.979)" fill="#E84949"/>
<path d="M517.429 756.652L592.768 735.049L596.572 739.828L512.923 763.778L509.308 739.939L500.213 742.547L501.93 753.902L496.539 755.448L494.856 744.084L489.829 745.525L488.472 740.796L494.128 739.174L491.954 724.228L486.795 725.708L485.429 720.945L491.217 719.286L489.557 708.129L494.947 706.583L496.508 717.768L505.669 715.141L504.009 703.985L509.4 702.439L510.961 713.624L516.054 712.164L517.42 716.926L511.731 718.557L513.938 733.494L519.097 732.014L520.454 736.744L514.633 738.413L517.429 756.652ZM499.486 737.638L508.58 735.03L506.406 720.084L497.278 722.701L499.486 737.638ZM573.012 708.466C573.941 712.041 575.225 715.228 576.863 718.027C578.523 720.82 580.464 723.306 582.688 725.484C584.927 727.634 587.397 729.55 590.099 731.233C592.822 732.91 595.702 734.422 598.737 735.771L596.638 739.809C593.329 738.586 590.123 737.143 587.021 735.48C583.948 733.832 581.081 731.862 578.419 729.571C575.758 727.28 573.394 724.57 571.327 721.44C569.277 718.282 567.633 714.589 566.397 710.362C564.94 705.364 564.34 700.775 564.598 696.597C564.877 692.413 565.85 688.4 567.516 684.558C569.205 680.709 571.403 676.81 574.112 672.86L578.538 675.313C576.798 678.15 575.366 680.851 574.24 683.417C573.137 685.977 572.345 688.542 571.866 691.113C571.402 693.656 571.255 696.347 571.424 699.185C571.61 701.996 572.139 705.089 573.012 708.466Z" fill="#FBF6EA"/>
</g>
<defs>
<clipPath id="clip0_2432_402">
<rect width="1440" height="900" fill="white"/>
</clipPath>
</defs>
</svg>
