<svg width="1440" height="900" viewBox="0 0 1440 900" fill="none" xmlns="http://www.w3.org/2000/svg">
<g clip-path="url(#clip0_2432_438)">
<path d="M815.159 597.557C825.474 573.25 857.964 568.684 874.579 589.206L1018.19 766.586C1035.32 787.737 1022.81 819.482 995.863 823.269L763.09 855.983C736.141 859.771 715.369 832.703 726 807.651L815.159 597.557Z" fill="#E84949"/>
<rect x="779.939" y="694.57" width="153.667" height="157" transform="rotate(-8 779.939 694.57)" fill="#FBF6EA"/>
<path d="M855.317 807.871L848.56 805.602L878.715 734.026L885.291 736.235L855.317 807.871ZM931.558 742.05L932.511 748.826L797.834 767.753L796.882 760.977L931.558 742.05ZM936.125 774.54L937.083 781.358L802.406 800.286L801.448 793.468L936.125 774.54ZM933.841 758.295L934.8 765.113L800.123 784.041L799.165 777.223L933.841 758.295Z" fill="#E84949"/>
</g>
<defs>
<clipPath id="clip0_2432_438">
<rect width="1440" height="900" fill="white"/>
</clipPath>
</defs>
</svg>
