<svg width="1440" height="900" viewBox="0 0 1440 900" fill="none" xmlns="http://www.w3.org/2000/svg">
<path d="M912.428 335.349C923.435 317.025 949.995 317.025 961.003 335.349L1056.15 493.726C1067.49 512.611 1053.89 536.65 1031.86 536.65L841.571 536.65C819.541 536.65 805.938 512.611 817.283 493.726L912.428 335.349Z" fill="#FBF6EA"/>
<rect x="873.266" y="409.151" width="124.398" height="127.096" fill="#E84949"/>
<path d="M916.592 447.025C918.771 447.025 920.812 447.369 922.716 448.057C924.62 448.745 926.512 450.122 928.393 452.186L924.54 455.661C923.393 454.353 922.223 453.401 921.03 452.805C919.838 452.186 918.404 451.876 916.73 451.876C914.459 451.876 912.75 452.507 911.603 453.768C910.434 455.007 909.849 456.613 909.849 458.585C909.849 459.938 910.204 461.2 910.915 462.37C911.626 463.539 912.601 464.48 913.84 465.191C915.078 465.879 916.455 466.223 917.968 466.223L947.109 466.223L947.109 471.143L931.008 471.143L931.008 489.756C930.297 490.651 929.322 491.591 928.083 492.577C926.822 493.564 925.239 494.401 923.336 495.089C921.432 495.754 919.138 496.087 916.455 496.087C912.876 496.087 909.94 495.41 907.647 494.057C905.353 492.681 903.656 490.903 902.555 488.724C901.454 486.545 900.903 484.24 900.903 481.809C900.903 478.208 901.832 475.283 903.69 473.035C905.548 470.787 908.197 469.308 911.638 468.597L911.638 468.391C909.619 467.909 908.014 467.163 906.821 466.154C905.605 465.145 904.734 463.975 904.206 462.645C903.656 461.292 903.381 459.87 903.381 458.379C903.381 456.314 903.92 454.434 904.998 452.736C906.076 451.016 907.612 449.64 909.608 448.608C911.58 447.553 913.909 447.025 916.592 447.025ZM924.987 471.143L917.177 471.143C914.883 471.143 913.014 471.682 911.569 472.76C910.124 473.815 909.069 475.134 908.404 476.717C907.716 478.299 907.372 479.893 907.372 481.499C907.372 483.127 907.704 484.664 908.369 486.109C909.012 487.531 910.021 488.69 911.397 489.584C912.75 490.456 914.516 490.892 916.695 490.892C918.484 490.892 920.101 490.593 921.546 489.997C922.969 489.401 924.115 488.575 924.987 487.52L924.987 471.143ZM950.997 447.025C953.176 447.025 955.218 447.369 957.121 448.057C959.025 448.745 960.917 450.122 962.798 452.186L958.945 455.661C957.798 454.353 956.628 453.401 955.435 452.805C954.243 452.186 952.809 451.876 951.135 451.876C948.864 451.876 947.144 452.507 945.974 453.768C944.827 455.007 944.254 456.613 944.254 458.585C944.254 459.938 944.609 461.2 945.32 462.37C946.031 463.539 947.006 464.48 948.245 465.191C949.483 465.879 950.86 466.223 952.373 466.223L971.296 466.223L971.296 471.143L965.413 471.143L965.413 489.756C964.702 490.651 963.716 491.591 962.454 492.577C961.216 493.564 959.644 494.401 957.741 495.089C955.837 495.754 953.543 496.087 950.86 496.087C947.281 496.087 944.346 495.41 942.052 494.057C939.758 492.681 938.061 490.903 936.96 488.724C935.859 486.545 935.308 484.24 935.308 481.809C935.308 478.208 936.237 475.283 938.095 473.035C939.953 470.787 942.602 469.308 946.043 468.597L946.043 468.391C944.024 467.909 942.407 467.163 941.192 466.154C939.999 465.145 939.127 463.975 938.577 462.645C938.049 461.292 937.786 459.87 937.786 458.379C937.786 456.314 938.325 454.434 939.403 452.736C940.481 451.016 942.006 449.64 943.979 448.608C945.974 447.553 948.314 447.025 950.997 447.025ZM959.392 471.143L951.582 471.143C949.288 471.143 947.419 471.682 945.974 472.76C944.529 473.815 943.462 475.134 942.774 476.717C942.109 478.299 941.777 479.893 941.777 481.499C941.777 483.127 942.098 484.664 942.74 486.109C943.405 487.531 944.414 488.69 945.768 489.584C947.144 490.456 948.921 490.892 951.1 490.892C952.889 490.892 954.495 490.593 955.917 489.997C957.362 489.401 958.52 488.575 959.392 487.52L959.392 471.143Z" fill="#FBF6EA"/>
</svg>
