<svg width="1440" height="900" viewBox="0 0 1440 900" fill="none" xmlns="http://www.w3.org/2000/svg">
<g clip-path="url(#clip0_2432_510)">
<path d="M1255.39 530.438C1276.47 514.545 1306.89 526.835 1311.02 552.916L1346.7 778.339C1350.96 805.218 1324.26 826.457 1299.02 816.262L1081.08 728.207C1055.85 718.013 1051.39 684.185 1073.13 667.805L1255.39 530.438Z" fill="#E84949"/>
<rect x="1176.38" y="596.844" width="153.667" height="157" transform="rotate(22 1176.38 596.844)" fill="#FBF6EA"/>
<path d="M1204.86 694.194L1198.52 709.878L1191.66 707.107L1198 691.424L1182.59 685.199L1185.11 678.973L1200.51 685.198L1206.9 669.397L1213.76 672.167L1207.37 687.968L1239.92 701.119L1246.3 685.317L1253.16 688.088L1246.78 703.889L1262.34 710.178L1259.83 716.404L1244.26 710.115L1237.92 725.798L1231.07 723.028L1237.4 707.345L1204.86 694.194Z" fill="#E84949"/>
</g>
<defs>
<clipPath id="clip0_2432_510">
<rect width="1440" height="900" fill="white"/>
</clipPath>
</defs>
</svg>
