<svg width="1440" height="900" viewBox="0 0 1440 900" fill="none" xmlns="http://www.w3.org/2000/svg">
<g clip-path="url(#clip0_2432_546)">
<path d="M1300.34 183.944C1321.97 168.797 1351.94 182.141 1355.16 208.35L1382.95 434.881C1386.27 461.892 1358.84 482.186 1333.98 471.117L1119.24 375.51C1094.38 364.441 1091.11 330.478 1113.4 314.867L1300.34 183.944Z" fill="#E84949"/>
<rect x="1219.06" y="247.553" width="153.667" height="157" transform="rotate(24 1219.06 247.553)" fill="#FBF6EA"/>
<path d="M1235.99 336.996L1209.04 325L1211.84 318.71L1238.79 330.706L1235.99 336.996ZM1229.28 352.061L1202.34 340.064L1205.14 333.774L1232.08 345.771L1229.28 352.061ZM1228.08 309.935L1231.41 316.863L1224.68 319.771C1223.78 320.179 1222.85 320.557 1221.89 320.904C1220.93 321.252 1219.75 321.501 1218.35 321.653L1210.89 325.868L1204.95 328.436L1207.02 334.565L1208.88 342.929C1209.71 344.046 1210.32 345.078 1210.71 346.024C1211.09 346.971 1211.43 347.926 1211.71 348.89L1214.06 355.844L1206.68 358.001L1195.87 324.391L1228.08 309.935ZM1234.4 336.291L1237.2 330.002L1285.35 351.437L1282.55 357.726L1234.4 336.291ZM1227.7 351.356L1230.5 345.066L1278.64 366.501L1275.84 372.791L1227.7 351.356ZM1280.96 357.021L1283.77 350.732L1310.71 362.728L1307.91 369.018L1280.96 357.021ZM1274.26 372.086L1277.06 365.796L1304 377.793L1301.2 384.082L1274.26 372.086ZM1306.37 344.791L1317.18 378.401L1284.97 392.858L1281.63 385.929L1288.37 383.021C1289.28 382.587 1290.21 382.197 1291.17 381.849C1292.13 381.502 1293.31 381.265 1294.7 381.139L1302.16 376.924L1308.09 374.356L1306.03 368.227L1304.17 359.863C1303.35 358.72 1302.74 357.676 1302.36 356.729C1301.97 355.782 1301.63 354.84 1301.33 353.902L1298.99 346.948L1306.37 344.791Z" fill="#E84949"/>
</g>
<defs>
<clipPath id="clip0_2432_546">
<rect width="1440" height="900" fill="white"/>
</clipPath>
</defs>
</svg>
