<svg width="1440" height="900" viewBox="0 0 1440 900" fill="none" xmlns="http://www.w3.org/2000/svg">
<g clip-path="url(#clip0_2432_265)">
<path d="M240.785 188.252C267.965 185.356 292.695 187.781 313.333 193.643L313.075 194.486C292.632 188.682 268.13 186.262 241.18 189.097L218.797 273.725L218.769 273.833L218.691 273.915C205.946 287.393 187.409 311.448 173.249 339.782C159.086 368.123 149.33 400.688 154.066 431.21C160.017 469.561 158.7 493.509 155.384 509.648C153.726 517.719 151.569 523.828 149.581 528.799C147.584 533.792 145.789 537.565 144.807 541.059C144.272 542.961 142.616 544.852 140.213 546.724C137.796 548.606 134.557 550.518 130.75 552.443C123.134 556.295 113.176 560.235 102.809 564.126C92.4301 568.021 81.6446 571.865 72.3311 575.538C63.0891 579.183 55.3592 582.637 50.9492 585.771L-63.0625 942.776L-70.1055 976.152L-70.9668 975.971L-63.9209 942.576L-63.916 942.555L-63.9092 942.533L50.1562 585.363L50.2002 585.225L50.3184 585.14C54.8103 581.91 62.6969 578.391 72.0078 574.719C81.3289 571.042 92.1418 567.187 102.499 563.301C112.867 559.41 122.784 555.486 130.353 551.658C134.138 549.744 137.319 547.861 139.672 546.028C142.038 544.185 143.503 542.441 143.959 540.82C144.958 537.267 146.796 533.388 148.763 528.472C150.738 523.533 152.876 517.476 154.521 509.472C157.81 493.462 159.136 469.624 153.196 431.346C148.42 400.563 158.262 367.801 172.461 339.389C186.635 311.026 205.178 286.941 217.974 273.392L240.406 188.577L240.483 188.284L240.785 188.252Z" fill="#2E358D"/>
<path d="M240.785 188.252L239.385 175.114L239.382 175.114L240.785 188.252ZM313.333 193.643L325.969 197.503L329.907 184.615L316.943 180.933L313.333 193.643ZM313.075 194.486L309.467 207.196L321.926 210.734L325.711 198.347L313.075 194.486ZM241.18 189.097L239.798 175.957L230.736 176.91L228.407 185.718L241.18 189.097ZM218.797 273.725L206.024 270.346L206.019 270.366L206.014 270.385L218.797 273.725ZM218.769 273.833L228.393 282.885L230.7 280.431L231.552 277.173L218.769 273.833ZM218.691 273.915L228.291 282.993L228.304 282.98L228.316 282.967L218.691 273.915ZM173.249 339.782L161.43 333.876L161.43 333.876L173.249 339.782ZM154.066 431.21L141.01 433.236L141.01 433.236L154.066 431.21ZM155.384 509.648L168.326 512.308L168.326 512.308L155.384 509.648ZM149.581 528.799L161.848 533.706L161.848 533.706L149.581 528.799ZM144.807 541.059L157.525 544.636L157.525 544.636L144.807 541.059ZM140.213 546.724L148.331 557.147L148.331 557.147L140.213 546.724ZM130.75 552.443L136.713 564.233L136.713 564.233L130.75 552.443ZM102.809 564.126L107.451 576.496L107.451 576.496L102.809 564.126ZM72.3311 575.538L67.4834 563.247L67.4834 563.247L72.3311 575.538ZM50.9492 585.771L43.2954 575.002L39.7037 577.555L38.3632 581.752L50.9492 585.771ZM-63.0625 942.776L-75.6485 938.757L-75.8519 939.394L-75.99 940.048L-63.0625 942.776ZM-70.1055 976.152L-72.8318 989.08L-59.9055 991.806L-57.1779 978.88L-70.1055 976.152ZM-70.9668 975.971L-83.8944 973.243L-86.6223 986.172L-73.6931 988.899L-70.9668 975.971ZM-63.9209 942.576L-76.8046 939.648L-76.8273 939.748L-76.8485 939.849L-63.9209 942.576ZM-63.916 942.555L-76.5063 938.549L-76.6758 939.081L-76.7997 939.627L-63.916 942.555ZM-63.9092 942.533L-76.4952 938.514L-76.4994 938.527L-63.9092 942.533ZM50.1562 585.363L62.7422 589.383L62.7467 589.369L62.7512 589.355L50.1562 585.363ZM50.2002 585.225L42.4872 574.497L38.9292 577.056L37.6053 581.233L50.2002 585.225ZM50.3184 585.14L42.6054 574.412L42.6054 574.412L50.3184 585.14ZM72.0078 574.719L67.1601 562.428L67.1601 562.428L72.0078 574.719ZM102.499 563.301L107.141 575.671L107.141 575.671L102.499 563.301ZM130.353 551.658L136.316 563.448L136.316 563.448L130.353 551.658ZM139.672 546.028L147.79 556.452L147.79 556.452L139.672 546.028ZM143.959 540.82L156.678 544.398L156.678 544.398L143.959 540.82ZM148.763 528.472L161.03 533.379L161.03 533.379L148.763 528.472ZM154.521 509.472L167.462 512.131L167.462 512.131L154.521 509.472ZM153.196 431.346L140.14 433.372L140.14 433.372L153.196 431.346ZM172.461 339.389L160.642 333.482L160.642 333.482L172.461 339.389ZM217.974 273.392L227.579 282.463L229.887 280.019L230.747 276.77L217.974 273.392ZM240.406 188.577L253.179 191.955L253.181 191.949L253.183 191.942L240.406 188.577ZM240.483 188.284L239.08 175.147L230.026 176.114L227.707 184.92L240.483 188.284ZM240.785 188.252L242.185 201.39C267.776 198.663 290.799 200.977 309.723 206.352L313.333 193.643L316.943 180.933C294.59 174.584 268.155 172.048 239.385 175.114L240.785 188.252ZM313.333 193.643L300.697 189.782L300.44 190.625L313.075 194.486L325.711 198.347L325.969 197.503L313.333 193.643ZM313.075 194.486L316.684 181.776C294.534 175.488 268.332 172.956 239.798 175.957L241.18 189.097L242.562 202.236C267.928 199.568 290.731 201.877 309.467 207.196L313.075 194.486ZM241.18 189.097L228.407 185.718L206.024 270.346L218.797 273.725L231.57 277.103L253.953 192.475L241.18 189.097ZM218.797 273.725L206.014 270.385L205.985 270.493L218.769 273.833L231.552 277.173L231.58 277.064L218.797 273.725ZM218.769 273.833L209.144 264.781L209.067 264.863L218.691 273.915L228.316 282.967L228.393 282.885L218.769 273.833ZM218.691 273.915L209.092 264.837C195.555 279.152 176.232 304.258 161.43 333.876L173.249 339.782L185.068 345.688C198.586 318.638 216.337 295.634 228.291 282.993L218.691 273.915ZM173.249 339.782L161.43 333.876C146.73 363.293 135.668 398.804 141.01 433.236L154.066 431.21L167.122 429.184C162.993 402.572 171.442 372.953 185.068 345.688L173.249 339.782ZM154.066 431.21L141.01 433.236C146.791 470.491 145.359 492.79 142.442 506.989L155.384 509.648L168.326 512.308C172.041 494.228 173.244 468.632 167.122 429.184L154.066 431.21ZM155.384 509.648L142.442 506.989C140.986 514.073 139.108 519.408 137.314 523.892L149.581 528.799L161.848 533.706C164.031 528.249 166.465 521.364 168.326 512.308L155.384 509.648ZM149.581 528.799L137.314 523.892C135.778 527.73 133.321 533.097 132.088 537.481L144.807 541.059L157.525 544.636C158.257 542.034 159.389 539.853 161.848 533.706L149.581 528.799ZM144.807 541.059L132.088 537.481C132.28 536.797 132.522 536.294 132.7 535.981C132.875 535.671 133.009 535.506 133.029 535.482C133.05 535.457 132.997 535.523 132.832 535.678C132.669 535.831 132.43 536.039 132.095 536.3L140.213 546.724L148.331 557.147C151.289 554.844 155.804 550.755 157.525 544.636L144.807 541.059ZM140.213 546.724L132.095 536.3C130.643 537.43 128.258 538.898 124.787 540.653L130.75 552.443L136.713 564.233C140.856 562.138 144.948 559.782 148.331 557.147L140.213 546.724ZM130.75 552.443L124.787 540.653C117.883 544.145 108.535 547.865 98.1667 551.756L102.809 564.126L107.451 576.496C117.818 572.605 128.385 568.446 136.713 564.233L130.75 552.443ZM102.809 564.126L98.1667 551.756C88.1092 555.53 76.9104 559.529 67.4834 563.247L72.3311 575.538L77.1788 587.829C86.3787 584.2 96.7509 580.511 107.451 576.496L102.809 564.126ZM72.3311 575.538L67.4834 563.247C58.4155 566.824 49.2089 570.799 43.2954 575.002L50.9492 585.771L58.603 596.541C61.5094 594.475 67.7627 591.543 77.1788 587.829L72.3311 575.538ZM50.9492 585.771L38.3632 581.752L-75.6485 938.757L-63.0625 942.776L-50.4765 946.796L63.5352 589.791L50.9492 585.771ZM-63.0625 942.776L-75.99 940.048L-83.033 973.424L-70.1055 976.152L-57.1779 978.88L-50.135 945.504L-63.0625 942.776ZM-70.1055 976.152L-67.3792 963.224L-68.2405 963.043L-70.9668 975.971L-73.6931 988.899L-72.8318 989.08L-70.1055 976.152ZM-70.9668 975.971L-58.0392 978.698L-50.9933 945.304L-63.9209 942.576L-76.8485 939.849L-83.8944 973.243L-70.9668 975.971ZM-63.9209 942.576L-51.0372 945.504L-51.0323 945.483L-63.916 942.555L-76.7997 939.627L-76.8046 939.648L-63.9209 942.576ZM-63.916 942.555L-51.3258 946.561L-51.3189 946.539L-63.9092 942.533L-76.4994 938.527L-76.5063 938.549L-63.916 942.555ZM-63.9092 942.533L-51.3232 946.553L62.7422 589.383L50.1562 585.363L37.5703 581.344L-76.4952 938.514L-63.9092 942.533ZM50.1562 585.363L62.7512 589.355L62.7951 589.216L50.2002 585.225L37.6053 581.233L37.5613 581.372L50.1562 585.363ZM50.2002 585.225L57.9131 595.952L58.0313 595.867L50.3184 585.14L42.6054 574.412L42.4872 574.497L50.2002 585.225ZM50.3184 585.14L58.0313 595.867C60.9874 593.741 67.3539 590.757 76.8555 587.009L72.0078 574.719L67.1601 562.428C58.04 566.025 48.6333 570.078 42.6054 574.412L50.3184 585.14ZM72.0078 574.719L76.8555 587.009C86.0627 583.378 96.4641 579.677 107.141 575.671L102.499 563.301L97.8571 550.931C87.8196 554.698 76.5951 558.707 67.1601 562.428L72.0078 574.719ZM102.499 563.301L107.141 575.671C117.507 571.781 128.034 567.637 136.316 563.448L130.353 551.658L124.389 539.868C117.533 543.336 108.227 547.039 97.8571 550.931L102.499 563.301ZM130.353 551.658L136.316 563.448C140.439 561.363 144.473 559.036 147.79 556.452L139.672 546.028L131.554 535.605C130.165 536.686 127.836 538.125 124.389 539.868L130.353 551.658ZM139.672 546.028L147.79 556.452C150.707 554.181 155.035 550.238 156.678 544.398L143.959 540.82L131.24 537.242C131.457 536.471 131.733 535.9 131.938 535.539C132.142 535.18 132.306 534.975 132.352 534.919C132.421 534.836 132.232 535.076 131.553 535.605L139.672 546.028ZM143.959 540.82L156.678 544.398C157.426 541.737 158.607 539.435 161.03 533.379L148.763 528.472L136.495 523.565C134.985 527.34 132.491 532.798 131.24 537.243L143.959 540.82ZM148.763 528.472L161.03 533.379C163.2 527.954 165.615 521.122 167.462 512.131L154.521 509.472L141.579 506.812C140.137 513.83 138.276 519.113 136.495 523.565L148.763 528.472ZM154.521 509.472L167.462 512.131C171.151 494.18 172.362 468.695 166.252 429.32L153.196 431.346L140.14 433.372C145.91 470.554 144.47 492.743 141.579 506.812L154.521 509.472ZM153.196 431.346L166.252 429.32C162.082 402.447 170.618 372.631 184.28 345.295L172.461 339.389L160.642 333.482C145.906 362.971 134.757 398.679 140.14 433.372L153.196 431.346ZM172.461 339.389L184.28 345.295C197.813 318.214 215.572 295.177 227.579 282.463L217.974 273.392L208.368 264.32C194.784 278.704 175.457 303.838 160.642 333.482L172.461 339.389ZM217.974 273.392L230.747 276.77L253.179 191.955L240.406 188.577L227.633 185.199L205.201 270.013L217.974 273.392ZM240.406 188.577L253.183 191.942L253.26 191.649L240.483 188.284L227.707 184.92L227.63 185.213L240.406 188.577ZM240.483 188.284L241.886 201.422L242.188 201.389L240.785 188.252L239.382 175.114L239.08 175.147L240.483 188.284Z" fill="#2E358D"/>
<path d="M379.41 232.4C354.679 210.839 333.749 198.759 312.483 193.635L312.211 194.476C333.245 199.529 354.003 211.457 378.598 232.861L346.541 314.539L346.498 314.649L346.515 314.764C349.224 333.115 350.612 363.452 345.959 394.784C341.305 426.123 330.617 458.395 309.231 480.681C282.359 508.683 269.702 529.055 263.161 544.178C259.891 551.74 258.153 557.981 256.931 563.193C255.703 568.428 255.009 572.549 253.81 575.974C253.154 577.848 253.496 580.3 254.503 583.121C255.517 585.958 257.234 589.25 259.439 592.851C263.848 600.055 270.252 608.566 277.017 617.272C283.789 625.986 290.923 634.896 296.822 642.924C302.677 650.893 307.27 657.938 309.086 663.019L198.144 1021.34L180.311 1055.62L181.092 1056.03L198.945 1021.7L198.963 1021.67L198.975 1021.63L309.97 663.139L310.013 663.001L309.965 662.863C308.134 657.63 303.43 650.431 297.531 642.403C291.623 634.362 284.472 625.43 277.712 616.731C270.946 608.024 264.571 599.548 260.19 592.391C257.999 588.812 256.316 585.58 255.332 582.825C254.343 580.054 254.088 577.845 254.641 576.265C255.861 572.781 256.58 568.549 257.789 563.394C259.004 558.216 260.727 552.028 263.971 544.528C270.459 529.526 283.045 509.239 309.867 481.29C331.435 458.814 342.164 426.332 346.83 394.914C351.487 363.553 350.113 333.19 347.403 314.751L379.53 232.892L379.644 232.603L379.41 232.4Z" fill="#2E358D"/>
<path d="M379.41 232.4L370.749 242.377L370.738 242.368L370.728 242.359L379.41 232.4ZM312.483 193.635L299.915 189.56L303.688 177.926L315.578 180.791L312.483 193.635ZM312.211 194.476L309.124 207.323L295.237 203.987L299.643 190.4L312.211 194.476ZM378.598 232.861L387.272 222.895L394.302 229.013L390.897 237.688L378.598 232.861ZM346.541 314.539L358.84 319.366L358.835 319.378L358.83 319.391L346.541 314.539ZM346.498 314.649L333.424 316.557L332.915 313.073L334.208 309.797L346.498 314.649ZM346.515 314.764L333.444 316.694L333.443 316.683L333.441 316.673L346.515 314.764ZM345.959 394.784L359.028 396.725L359.028 396.725L345.959 394.784ZM309.231 480.681L299.698 471.533L299.698 471.533L309.231 480.681ZM263.161 544.178L251.035 538.934L251.035 538.933L263.161 544.178ZM256.931 563.193L244.068 560.176L244.068 560.176L256.931 563.193ZM253.81 575.974L241.34 571.609L241.34 571.609L253.81 575.974ZM254.503 583.121L242.061 587.565L242.061 587.565L254.503 583.121ZM259.439 592.851L248.17 599.749L248.17 599.749L259.439 592.851ZM277.017 617.272L266.584 625.379L266.584 625.379L277.017 617.272ZM296.822 642.924L307.469 635.101L307.469 635.101L296.822 642.924ZM309.086 663.019L321.528 658.575L323.009 662.721L321.707 666.927L309.086 663.019ZM198.144 1021.34L210.765 1025.24L210.413 1026.38L209.865 1027.43L198.144 1021.34ZM180.311 1055.62L174.214 1067.34L162.492 1061.24L168.589 1049.52L180.311 1055.62ZM181.092 1056.03L192.813 1062.12L186.716 1073.84L174.995 1067.75L181.092 1056.03ZM198.945 1021.7L187.223 1015.61L187.244 1015.57L187.265 1015.53L198.945 1021.7ZM198.963 1021.67L211.627 1025.44L211.254 1026.69L210.642 1027.85L198.963 1021.67ZM198.975 1021.63L186.311 1017.86L186.332 1017.79L186.353 1017.72L198.975 1021.63ZM309.97 663.139L297.349 659.231L297.352 659.221L297.355 659.21L309.97 663.139ZM310.013 663.001L322.484 658.638L323.926 662.76L322.627 666.93L310.013 663.001ZM309.965 662.863L322.436 658.5L322.436 658.5L309.965 662.863ZM297.531 642.403L308.178 634.58L308.178 634.58L297.531 642.403ZM277.712 616.731L267.28 624.838L267.28 624.838L277.712 616.731ZM260.19 592.391L248.921 599.289L248.921 599.289L260.19 592.391ZM255.332 582.825L242.89 587.269L242.89 587.269L255.332 582.825ZM254.641 576.265L242.171 571.9L242.171 571.9L254.641 576.265ZM257.789 563.394L244.926 560.378L244.926 560.378L257.789 563.394ZM263.971 544.528L251.844 539.283L251.844 539.283L263.971 544.528ZM309.867 481.29L300.334 472.142L300.334 472.142L309.867 481.29ZM346.83 394.914L359.899 396.855L359.899 396.855L346.83 394.914ZM347.403 314.751L334.332 316.672L333.821 313.195L335.105 309.924L347.403 314.751ZM379.53 232.892L367.231 228.065L367.236 228.054L367.24 228.043L379.53 232.892ZM379.644 232.603L388.306 222.626L395.366 228.755L391.934 237.452L379.644 232.603ZM379.41 232.4L370.728 242.359C346.881 221.569 327.825 210.922 309.389 206.48L312.483 193.635L315.578 180.791C339.673 186.596 362.477 200.109 388.092 222.441L379.41 232.4ZM312.483 193.635L325.051 197.711L324.778 198.551L312.211 194.476L299.643 190.4L299.915 189.56L312.483 193.635ZM312.211 194.476L315.297 181.629C339.157 187.361 361.788 200.717 387.272 222.895L378.598 232.861L369.925 242.828C346.218 222.197 327.334 211.697 309.124 207.323L312.211 194.476ZM378.598 232.861L390.897 237.688L358.84 319.366L346.541 314.539L334.242 309.712L366.299 228.034L378.598 232.861ZM346.541 314.539L358.83 319.391L358.787 319.5L346.498 314.649L334.208 309.797L334.251 309.688L346.541 314.539ZM346.498 314.649L359.571 312.74L359.588 312.856L346.515 314.764L333.441 316.673L333.424 316.557L346.498 314.649ZM346.515 314.764L359.585 312.834C362.463 332.325 363.891 363.974 359.028 396.725L345.959 394.784L332.89 392.843C337.332 362.931 335.986 333.906 333.444 316.694L346.515 314.764ZM345.959 394.784L359.028 396.725C354.197 429.254 342.89 464.689 318.764 489.829L309.231 480.681L299.698 471.533C318.345 452.102 328.413 422.993 332.89 392.843L345.959 394.784ZM309.231 480.681L318.764 489.829C292.659 517.031 281.042 536.119 275.288 549.423L263.161 544.178L251.035 538.933C258.362 521.992 272.058 500.335 299.698 471.533L309.231 480.681ZM263.161 544.178L275.288 549.423C272.417 556.06 270.897 561.507 269.794 566.21L256.931 563.193L244.068 560.176C245.41 554.454 247.365 547.419 251.035 538.934L263.161 544.178ZM256.931 563.193L269.794 566.21C268.85 570.235 267.785 576.04 266.281 580.339L253.81 575.974L241.34 571.609C242.233 569.058 242.556 566.622 244.068 560.176L256.931 563.193ZM253.81 575.974L266.281 580.339C266.779 578.915 266.684 577.912 266.669 577.777C266.654 577.635 266.669 577.902 266.946 578.677L254.503 583.121L242.061 587.565C240.787 583.998 239.138 577.9 241.34 571.609L253.81 575.974ZM254.503 583.121L266.946 578.677C267.517 580.277 268.705 582.682 270.707 585.953L259.439 592.851L248.17 599.749C245.764 595.818 243.516 591.64 242.061 587.565L254.503 583.121ZM259.439 592.851L270.707 585.953C274.685 592.452 280.662 600.431 287.449 609.165L277.017 617.272L266.584 625.379C259.841 616.701 253.012 607.658 248.17 599.749L259.439 592.851ZM277.017 617.272L287.449 609.165C294.043 617.65 301.431 626.883 307.469 635.101L296.822 642.924L286.174 650.747C280.416 642.909 273.534 634.323 266.584 625.379L277.017 617.272ZM296.822 642.924L307.469 635.101C313.209 642.913 318.971 651.416 321.528 658.575L309.086 663.019L296.643 667.464C295.57 664.459 292.145 658.873 286.174 650.747L296.822 642.924ZM309.086 663.019L321.707 666.927L210.765 1025.24L198.144 1021.34L185.522 1017.43L296.464 659.111L309.086 663.019ZM198.144 1021.34L209.865 1027.43L192.032 1061.72L180.311 1055.62L168.589 1049.52L186.422 1015.24L198.144 1021.34ZM180.311 1055.62L186.407 1043.9L187.189 1044.3L181.092 1056.03L174.995 1067.75L174.214 1067.34L180.311 1055.62ZM181.092 1056.03L169.37 1049.93L187.223 1015.61L198.945 1021.7L210.666 1027.8L192.813 1062.12L181.092 1056.03ZM198.945 1021.7L187.265 1015.53L187.284 1015.49L198.963 1021.67L210.642 1027.85L210.624 1027.88L198.945 1021.7ZM198.963 1021.67L186.299 1017.9L186.311 1017.86L198.975 1021.63L211.638 1025.4L211.627 1025.44L198.963 1021.67ZM198.975 1021.63L186.353 1017.72L297.349 659.231L309.97 663.139L322.591 667.047L211.596 1025.54L198.975 1021.63ZM309.97 663.139L297.355 659.21L297.398 659.072L310.013 663.001L322.627 666.93L322.584 667.068L309.97 663.139ZM310.013 663.001L297.542 667.364L297.494 667.227L309.965 662.863L322.436 658.5L322.484 658.638L310.013 663.001ZM309.965 662.863L297.494 667.227C296.409 664.127 292.91 658.428 286.884 650.226L297.531 642.403L308.178 634.58C313.949 642.434 319.858 651.132 322.436 658.5L309.965 662.863ZM297.531 642.403L286.884 650.226C281.116 642.375 274.218 633.766 267.28 624.838L277.712 616.731L288.145 608.624C294.727 617.095 302.131 626.349 308.178 634.58L297.531 642.403ZM277.712 616.731L267.28 624.838C260.535 616.159 253.734 607.151 248.921 599.289L260.19 592.391L271.458 585.493C275.408 591.944 281.356 599.888 288.145 608.624L277.712 616.731ZM260.19 592.391L248.921 599.289C246.529 595.382 244.316 591.263 242.89 587.269L255.332 582.825L267.775 578.381C268.316 579.898 269.469 582.243 271.458 585.493L260.19 592.391ZM255.332 582.825L242.89 587.269C241.634 583.752 240.072 577.897 242.171 571.9L254.641 576.265L267.112 580.629C267.669 579.038 267.567 577.893 267.544 577.682C267.519 577.448 267.512 577.646 267.775 578.381L255.332 582.825ZM254.641 576.265L242.171 571.9C243.084 569.291 243.436 566.729 244.926 560.378L257.789 563.394L270.652 566.411C269.724 570.37 268.637 576.271 267.112 580.63L254.641 576.265ZM257.789 563.394L244.926 560.378C246.26 554.69 248.2 547.708 251.844 539.283L263.971 544.528L276.097 549.773C273.253 556.349 271.747 561.742 270.652 566.411L257.789 563.394ZM263.971 544.528L251.844 539.283C259.118 522.463 272.744 500.892 300.334 472.142L309.867 481.29L319.399 490.438C293.346 517.587 281.799 536.589 276.097 549.773L263.971 544.528ZM309.867 481.29L300.334 472.142C319.163 452.521 329.272 423.202 333.761 392.973L346.83 394.914L359.899 396.855C355.057 429.463 343.708 465.108 319.399 490.438L309.867 481.29ZM346.83 394.914L333.761 392.973C338.208 363.03 336.875 333.975 334.332 316.672L347.403 314.751L360.475 312.83C363.352 332.404 364.767 364.077 359.899 396.855L346.83 394.914ZM347.403 314.751L335.105 309.924L367.231 228.065L379.53 232.892L391.829 237.719L359.702 319.578L347.403 314.751ZM379.53 232.892L367.24 228.043L367.354 227.754L379.644 232.603L391.934 237.452L391.821 237.741L379.53 232.892ZM379.644 232.603L370.983 242.58L370.749 242.377L379.41 232.4L388.071 222.423L388.306 222.626L379.644 232.603Z" fill="#2E358D"/>
<path d="M257.41 175L375.499 215.661L339.08 321.43C289.214 315.387 263.069 307.23 220.991 280.769L257.41 175Z" fill="#2E358D"/>
<path d="M103.425 578.011C123.718 578.011 140.419 594.829 140.419 615.886C140.419 636.942 123.718 653.761 103.425 653.761C83.1313 653.761 66.4309 636.942 66.4307 615.886C66.4307 594.829 83.1312 578.011 103.425 578.011Z" stroke="#2E358D" stroke-width="14.9738"/>
<path d="M231.144 590.342C245.158 590.342 256.687 601.881 256.688 616.325C256.688 630.77 245.158 642.31 231.144 642.31C217.13 642.309 205.601 630.769 205.601 616.325C205.601 601.881 217.13 590.342 231.144 590.342Z" stroke="#2E358D" stroke-width="14.9738"/>
<path d="M264.614 635.264C278.628 635.264 290.158 646.803 290.158 661.247C290.158 675.691 278.628 687.231 264.614 687.231C250.6 687.231 239.071 675.691 239.071 661.247C239.071 646.803 250.6 635.264 264.614 635.264Z" stroke="#2E358D" stroke-width="14.9738"/>
<path d="M183.579 623.813C197.593 623.813 209.123 635.353 209.123 649.797C209.123 664.241 197.593 675.781 183.579 675.781C169.565 675.781 158.036 664.241 158.036 649.797C158.036 635.353 169.565 623.814 183.579 623.813Z" stroke="#2E358D" stroke-width="14.9738"/>
<path d="M41.4842 571.807C130.253 628.747 211.851 659.772 322.904 662.971L198.709 1062.42L-89.0066 968.321L41.4842 571.807Z" fill="#E84949"/>
<path d="M1058.62 220.611C1085.5 197.174 1113.74 181.26 1140.19 172.08L1140.55 173.173C1114.35 182.269 1086.35 198.02 1059.67 221.219L1099.08 328.418L1099.13 328.555L1099.11 328.7C1095.58 352.643 1093.77 392.225 1099.84 433.105C1105.91 473.994 1119.85 516.1 1147.76 545.177C1182.82 581.713 1199.33 608.293 1207.87 628.024C1212.13 637.89 1214.4 646.034 1215.99 652.834C1217.6 659.665 1218.5 665.041 1220.07 669.51C1220.92 671.943 1220.56 675.203 1219.4 679.002C1218.22 682.823 1216.19 687.29 1213.56 692.198C1208.31 702.014 1200.61 713.676 1192.44 725.593C1184.27 737.523 1175.61 749.704 1168.41 760.6C1161.26 771.412 1155.58 780.888 1153.22 787.538L1298.53 1254.43L1315.98 1295.36L1315.45 1295.59L1314.93 1295.81L1297.47 1254.85L1297.45 1254.82L1297.45 1254.79L1152.06 787.695L1152.01 787.514L1152.07 787.334C1154.45 780.521 1160.25 770.858 1167.45 759.966C1174.66 749.061 1183.33 736.848 1191.49 724.944C1199.66 713.026 1207.33 701.411 1212.55 691.655C1215.16 686.777 1217.15 682.383 1218.3 678.664C1219.45 674.923 1219.71 671.963 1218.98 669.889C1217.39 665.344 1216.45 659.822 1214.88 653.096C1213.29 646.34 1211.04 638.266 1206.81 628.48C1198.34 608.907 1181.92 582.439 1146.93 545.973C1118.79 516.648 1104.79 474.266 1098.7 433.273C1092.62 392.353 1094.42 352.734 1097.95 328.677L1058.46 221.242L1058.32 220.871L1058.62 220.611Z" fill="#2E358D"/>
<path d="M1058.62 220.611L1047.29 207.617L1047.29 207.618L1058.62 220.611ZM1140.19 172.08L1156.58 166.75L1151.15 150.029L1134.54 155.795L1140.19 172.08ZM1140.55 173.173L1146.2 189.458L1162.16 183.914L1156.94 167.843L1140.55 173.173ZM1059.67 221.219L1048.36 208.21L1039.39 216.01L1043.49 227.168L1059.67 221.219ZM1099.08 328.418L1115.3 322.565L1115.28 322.517L1115.26 322.469L1099.08 328.418ZM1099.13 328.555L1116.19 331.067L1116.82 326.779L1115.35 322.703L1099.13 328.555ZM1099.11 328.7L1116.16 331.218L1116.17 331.212L1099.11 328.7ZM1099.84 433.105L1082.78 435.637L1082.78 435.637L1099.84 433.105ZM1147.76 545.177L1135.32 557.113L1135.32 557.113L1147.76 545.177ZM1207.87 628.024L1223.69 621.181L1223.69 621.181L1207.87 628.024ZM1215.99 652.834L1232.78 648.898L1232.78 648.898L1215.99 652.834ZM1220.07 669.51L1236.34 663.815L1236.34 663.815L1220.07 669.51ZM1219.4 679.002L1235.87 684.067L1235.87 684.067L1219.4 679.002ZM1213.56 692.198L1228.76 700.336L1228.76 700.336L1213.56 692.198ZM1192.44 725.593L1206.66 735.34L1206.66 735.34L1192.44 725.593ZM1168.41 760.6L1154.03 751.091L1154.03 751.091L1168.41 760.6ZM1153.22 787.538L1136.98 781.755L1135.05 787.171L1136.76 792.661L1153.22 787.538ZM1298.53 1254.43L1282.07 1259.55L1282.33 1260.38L1282.68 1261.18L1298.53 1254.43ZM1315.98 1295.36L1322.76 1311.21L1338.6 1304.45L1331.84 1288.6L1315.98 1295.36ZM1315.45 1295.59L1322.2 1311.45L1322.22 1311.45L1322.23 1311.44L1315.45 1295.59ZM1314.93 1295.81L1299.07 1302.57L1305.82 1318.42L1321.67 1311.68L1314.93 1295.81ZM1297.47 1254.85L1313.32 1248.09L1313.31 1248.06L1313.3 1248.03L1297.47 1254.85ZM1297.45 1254.82L1281.04 1260.08L1281.29 1260.88L1281.62 1261.64L1297.45 1254.82ZM1297.45 1254.79L1280.99 1259.92L1281.01 1259.98L1281.03 1260.05L1297.45 1254.79ZM1152.06 787.695L1168.52 782.572L1168.52 782.565L1152.06 787.695ZM1152.01 787.514L1135.72 781.848L1133.86 787.216L1135.55 792.643L1152.01 787.514ZM1152.07 787.334L1135.8 781.641L1135.79 781.655L1135.79 781.668L1152.07 787.334ZM1167.45 759.966L1153.07 750.457L1153.07 750.457L1167.45 759.966ZM1191.49 724.944L1205.71 734.69L1205.71 734.69L1191.49 724.944ZM1212.55 691.655L1227.75 699.794L1227.75 699.794L1212.55 691.655ZM1218.3 678.664L1234.78 683.729L1234.78 683.729L1218.3 678.664ZM1218.98 669.889L1202.71 675.584L1202.71 675.584L1218.98 669.889ZM1214.88 653.096L1231.66 649.16L1231.66 649.16L1214.88 653.096ZM1206.81 628.48L1222.63 621.637L1222.63 621.637L1206.81 628.48ZM1146.93 545.973L1134.49 557.909L1134.49 557.909L1146.93 545.973ZM1098.7 433.273L1081.65 435.805L1081.65 435.805L1098.7 433.273ZM1097.95 328.677L1115.01 331.184L1115.65 326.845L1114.13 322.729L1097.95 328.677ZM1058.46 221.242L1074.64 215.294L1074.63 215.281L1074.63 215.267L1058.46 221.242ZM1058.32 220.871L1046.99 207.878L1038.03 215.693L1042.15 226.845L1058.32 220.871ZM1058.62 220.611L1069.95 233.604C1095.26 211.539 1121.59 196.782 1145.84 188.365L1140.19 172.08L1134.54 155.795C1105.9 165.737 1075.74 182.81 1047.29 207.617L1058.62 220.611ZM1140.19 172.08L1123.8 177.41L1124.15 178.504L1140.55 173.173L1156.94 167.843L1156.58 166.75L1140.19 172.08ZM1140.55 173.173L1134.89 156.889C1106.51 166.744 1076.61 183.648 1048.36 208.21L1059.67 221.219L1070.98 234.228C1096.1 212.392 1122.2 197.794 1146.2 189.458L1140.55 173.173ZM1059.67 221.219L1043.49 227.168L1082.9 334.366L1099.08 328.418L1115.26 322.469L1075.85 215.271L1059.67 221.219ZM1099.08 328.418L1082.87 334.27L1082.92 334.407L1099.13 328.555L1115.35 322.703L1115.3 322.565L1099.08 328.418ZM1099.13 328.555L1082.08 326.043L1082.06 326.188L1099.11 328.7L1116.17 331.212L1116.19 331.067L1099.13 328.555ZM1099.11 328.7L1082.06 326.181C1078.3 351.612 1076.44 392.905 1082.78 435.637L1099.84 433.105L1116.89 430.572C1111.09 391.545 1112.85 353.674 1116.16 331.218L1099.11 328.7ZM1099.84 433.105L1082.78 435.637C1089.09 478.079 1103.84 524.311 1135.32 557.113L1147.76 545.177L1160.19 533.241C1135.86 507.889 1122.73 469.909 1116.89 430.572L1099.84 433.105ZM1147.76 545.177L1135.32 557.113C1169.38 592.605 1184.54 617.508 1192.04 634.867L1207.87 628.024L1223.69 621.181C1214.13 599.077 1196.26 570.821 1160.19 533.241L1147.76 545.177ZM1207.87 628.024L1192.04 634.867C1195.79 643.528 1197.77 650.635 1199.21 656.77L1215.99 652.834L1232.78 648.898C1231.03 641.433 1228.48 632.253 1223.69 621.181L1207.87 628.024ZM1215.99 652.834L1199.21 656.77C1200.44 662.02 1201.83 669.596 1203.8 675.205L1220.07 669.51L1236.34 663.815C1235.17 660.486 1234.75 657.31 1232.78 648.898L1215.99 652.834ZM1220.07 669.51L1203.8 675.205C1203.49 674.33 1203.37 673.612 1203.33 673.144C1203.28 672.682 1203.3 672.406 1203.31 672.365C1203.31 672.322 1203.3 672.433 1203.24 672.721C1203.18 673.006 1203.08 673.408 1202.92 673.937L1219.4 679.002L1235.87 684.067C1237.31 679.391 1239.08 671.642 1236.34 663.815L1220.07 669.51ZM1219.4 679.002L1202.92 673.937C1202.21 676.23 1200.76 679.584 1198.37 684.06L1213.56 692.198L1228.76 700.336C1231.62 694.997 1234.23 689.416 1235.87 684.067L1219.4 679.002ZM1213.56 692.198L1198.37 684.059C1193.6 692.958 1186.39 703.929 1178.22 715.846L1192.44 725.593L1206.66 735.34C1214.83 723.424 1223.01 711.071 1228.76 700.336L1213.56 692.198ZM1192.44 725.593L1178.22 715.846C1170.3 727.408 1161.32 740.062 1154.03 751.091L1168.41 760.6L1182.79 770.108C1189.91 759.345 1198.23 747.638 1206.66 735.34L1192.44 725.593ZM1168.41 760.6L1154.03 751.091C1147.02 761.7 1140.15 772.838 1136.98 781.755L1153.22 787.538L1169.46 793.32C1171.02 788.938 1175.5 781.124 1182.79 770.108L1168.41 760.6ZM1153.22 787.538L1136.76 792.661L1282.07 1259.55L1298.53 1254.43L1314.99 1249.3L1169.68 782.415L1153.22 787.538ZM1298.53 1254.43L1282.68 1261.18L1300.13 1302.12L1315.98 1295.36L1331.84 1288.6L1314.39 1247.67L1298.53 1254.43ZM1315.98 1295.36L1309.21 1279.51L1308.68 1279.74L1315.45 1295.59L1322.23 1311.44L1322.76 1311.21L1315.98 1295.36ZM1315.45 1295.59L1308.71 1279.72L1308.18 1279.95L1314.93 1295.81L1321.67 1311.68L1322.2 1311.45L1315.45 1295.59ZM1314.93 1295.81L1330.78 1289.05L1313.32 1248.09L1297.47 1254.85L1281.61 1261.61L1299.07 1302.57L1314.93 1295.81ZM1297.47 1254.85L1313.3 1248.03L1313.29 1248L1297.45 1254.82L1281.62 1261.64L1281.64 1261.67L1297.47 1254.85ZM1297.45 1254.82L1313.87 1249.56L1313.86 1249.54L1297.45 1254.79L1281.03 1260.05L1281.04 1260.08L1297.45 1254.82ZM1297.45 1254.79L1313.91 1249.67L1168.52 782.572L1152.06 787.695L1135.6 792.818L1280.99 1259.92L1297.45 1254.79ZM1152.06 787.695L1168.52 782.565L1168.46 782.384L1152.01 787.514L1135.55 792.643L1135.6 792.824L1152.06 787.695ZM1152.01 787.514L1168.29 793.18L1168.35 793L1152.07 787.334L1135.79 781.668L1135.72 781.848L1152.01 787.514ZM1152.07 787.334L1168.34 793.027C1169.91 788.544 1174.48 780.591 1181.83 769.474L1167.45 759.966L1153.07 750.457C1146.02 761.126 1139 772.498 1135.8 781.641L1152.07 787.334ZM1167.45 759.966L1181.83 769.474C1188.95 758.702 1197.3 746.963 1205.71 734.69L1191.49 724.944L1177.28 715.197C1169.37 726.734 1160.37 739.419 1153.07 750.457L1167.45 759.966ZM1191.49 724.944L1205.71 734.69C1213.88 722.775 1222.03 710.467 1227.75 699.794L1212.55 691.655L1197.35 683.517C1192.62 692.354 1185.45 703.278 1177.28 715.197L1191.49 724.944ZM1212.55 691.655L1227.75 699.794C1230.59 694.482 1233.16 688.975 1234.78 683.729L1218.3 678.664L1201.82 673.599C1201.15 675.791 1199.73 679.072 1197.35 683.517L1212.55 691.655ZM1218.3 678.664L1234.78 683.729C1236.19 679.114 1237.87 671.664 1235.25 664.194L1218.98 669.889L1202.71 675.584C1202.37 674.598 1202.23 673.782 1202.18 673.244C1202.13 672.708 1202.15 672.366 1202.16 672.271C1202.17 672.131 1202.15 672.528 1201.82 673.599L1218.3 678.664ZM1218.98 669.889L1235.25 664.194C1234.06 660.79 1233.6 657.451 1231.66 649.16L1214.88 653.096L1198.09 657.032C1199.3 662.193 1200.72 669.898 1202.71 675.584L1218.98 669.889ZM1214.88 653.096L1231.66 649.16C1229.92 641.739 1227.39 632.629 1222.63 621.637L1206.81 628.48L1190.99 635.323C1194.7 643.903 1196.66 650.941 1198.09 657.032L1214.88 653.096ZM1206.81 628.48L1222.63 621.637C1213.14 599.691 1195.36 571.547 1159.36 534.037L1146.93 545.973L1134.49 557.909C1168.48 593.331 1183.55 618.123 1190.99 635.323L1206.81 628.48ZM1146.93 545.973L1159.36 534.037C1134.8 508.437 1121.61 470.182 1115.75 430.741L1098.7 433.273L1081.65 435.805C1087.97 478.35 1102.77 524.859 1134.49 557.909L1146.93 545.973ZM1098.7 433.273L1115.75 430.741C1109.95 391.67 1111.69 353.759 1115.01 331.184L1097.95 328.677L1080.9 326.17C1077.14 351.709 1075.3 393.036 1081.65 435.805L1098.7 433.273ZM1097.95 328.677L1114.13 322.729L1074.64 215.294L1058.46 221.242L1042.28 227.19L1081.77 334.625L1097.95 328.677ZM1058.46 221.242L1074.63 215.267L1074.49 214.896L1058.32 220.871L1042.15 226.845L1042.29 227.216L1058.46 221.242ZM1058.32 220.871L1069.65 233.863L1069.95 233.603L1058.62 220.611L1047.29 207.618L1046.99 207.878L1058.32 220.871Z" fill="#2E358D"/>
<path d="M1239.81 164.052C1197.25 159.516 1165.84 162.268 1139.27 172.707L1139.61 173.809C1165.87 163.468 1196.99 160.683 1239.29 165.152L1266.15 276.438L1266.19 276.588L1266.3 276.699C1282.93 294.284 1307.11 325.67 1325.59 362.639C1344.07 399.616 1356.79 442.106 1350.61 481.929C1342.85 531.967 1344.57 563.212 1348.9 584.27C1351.06 594.799 1353.87 602.77 1356.47 609.256C1359.07 615.77 1361.41 620.693 1362.7 625.251C1363.4 627.745 1365.6 630.11 1368.79 632.371C1371.99 634.645 1376.29 636.878 1381.34 639.077C1391.44 643.476 1404.66 647.781 1418.4 652.023C1432.16 656.268 1446.46 660.452 1458.77 664.618C1470.99 668.754 1481.17 672.845 1486.91 676.918L1636.49 1142.9L1643.09 1192.89L1643.66 1192.82L1644.23 1192.74L1637.62 1142.7L1637.62 1142.65L1637.6 1142.6L1487.95 676.384L1487.89 676.203L1487.74 676.093C1481.86 671.869 1471.45 667.696 1459.14 663.529C1446.81 659.357 1432.48 655.163 1418.74 650.925C1404.99 646.682 1391.84 642.394 1381.8 638.023C1376.78 635.838 1372.56 633.643 1369.45 631.435C1366.32 629.214 1364.39 627.043 1363.8 624.94C1362.5 620.305 1360.1 615.243 1357.53 608.829C1354.96 602.386 1352.17 594.483 1350.02 584.039C1345.73 563.15 1344 532.048 1351.75 482.105C1357.98 441.941 1345.14 399.196 1326.61 362.125C1308.12 325.123 1283.93 293.699 1267.24 276.021L1240.31 164.488L1240.22 164.095L1239.81 164.052Z" fill="#2E358D"/>
<path d="M1239.81 164.052L1241.64 146.91L1241.64 146.911L1239.81 164.052ZM1139.27 172.707L1122.79 177.749L1118.12 162.497L1132.97 156.663L1139.27 172.707ZM1139.61 173.809L1145.93 189.848L1128.58 196.679L1123.13 178.85L1139.61 173.809ZM1239.29 165.152L1241.1 148.009L1253.19 149.287L1256.05 161.107L1239.29 165.152ZM1266.15 276.438L1249.4 280.49L1249.4 280.484L1266.15 276.438ZM1266.19 276.588L1253.68 288.444L1250.52 285.107L1249.43 280.64L1266.19 276.588ZM1266.3 276.699L1278.81 264.844L1278.82 264.849L1278.82 264.855L1266.3 276.699ZM1325.59 362.639L1341.01 354.933L1341.01 354.933L1325.59 362.639ZM1350.61 481.929L1333.58 479.285L1333.58 479.285L1350.61 481.929ZM1348.9 584.27L1332.01 587.739L1332.01 587.739L1348.9 584.27ZM1356.47 609.256L1340.46 615.658L1340.46 615.658L1356.47 609.256ZM1362.7 625.251L1346.1 629.919L1346.1 629.918L1362.7 625.251ZM1368.79 632.371L1358.81 646.432L1358.81 646.432L1368.79 632.371ZM1381.34 639.077L1374.46 654.883L1374.46 654.883L1381.34 639.077ZM1418.4 652.023L1413.32 668.495L1413.32 668.495L1418.4 652.023ZM1458.77 664.618L1464.29 648.289L1464.29 648.289L1458.77 664.618ZM1486.91 676.918L1496.89 662.857L1501.57 666.18L1503.33 671.649L1486.91 676.918ZM1636.49 1142.9L1652.91 1137.63L1653.38 1139.11L1653.58 1140.64L1636.49 1142.9ZM1643.09 1192.89L1645.32 1209.98L1628.25 1212.21L1626 1195.15L1643.09 1192.89ZM1643.66 1192.82L1645.92 1209.91L1645.9 1209.91L1645.89 1209.91L1643.66 1192.82ZM1644.23 1192.74L1661.32 1190.49L1663.58 1207.57L1646.49 1209.83L1644.23 1192.74ZM1637.62 1142.7L1654.71 1140.4L1654.71 1140.42L1654.72 1140.44L1637.62 1142.7ZM1637.62 1142.65L1654.07 1137.49L1654.51 1138.89L1654.7 1140.35L1637.62 1142.65ZM1637.6 1142.6L1654.02 1137.33L1654.03 1137.38L1654.05 1137.44L1637.6 1142.6ZM1487.95 676.384L1471.54 681.653L1471.53 681.637L1471.53 681.622L1487.95 676.384ZM1487.89 676.203L1497.92 662.182L1502.58 665.512L1504.32 670.965L1487.89 676.203ZM1487.74 676.093L1477.71 690.114L1477.69 690.102L1477.67 690.089L1487.74 676.093ZM1459.14 663.529L1464.66 647.2L1464.66 647.2L1459.14 663.529ZM1418.74 650.925L1413.66 667.397L1413.66 667.397L1418.74 650.925ZM1381.8 638.023L1374.92 653.829L1374.92 653.829L1381.8 638.023ZM1369.45 631.435L1359.48 645.496L1359.48 645.496L1369.45 631.435ZM1363.8 624.94L1347.21 629.609L1347.21 629.608L1363.8 624.94ZM1357.53 608.829L1341.53 615.231L1341.53 615.231L1357.53 608.829ZM1350.02 584.039L1333.13 587.509L1333.13 587.509L1350.02 584.039ZM1351.75 482.105L1368.78 484.748L1368.78 484.748L1351.75 482.105ZM1326.61 362.125L1342.03 354.419L1342.03 354.419L1326.61 362.125ZM1267.24 276.021L1254.7 287.856L1251.56 284.523L1250.48 280.066L1267.24 276.021ZM1240.31 164.488L1223.55 168.534L1223.55 168.522L1240.31 164.488ZM1240.22 164.095L1242.05 146.954L1254.13 148.244L1256.98 160.061L1240.22 164.095ZM1239.81 164.052L1237.99 181.193C1196.94 176.819 1168.61 179.701 1145.58 188.751L1139.27 172.707L1132.97 156.663C1163.07 144.835 1197.55 142.212 1241.64 146.91L1239.81 164.052ZM1139.27 172.707L1155.76 167.665L1156.1 168.767L1139.61 173.809L1123.13 178.85L1122.79 177.749L1139.27 172.707ZM1139.61 173.809L1133.3 157.769C1163.09 146.039 1197.27 143.378 1241.1 148.009L1239.29 165.152L1237.48 182.295C1196.7 177.987 1168.66 180.897 1145.93 189.848L1139.61 173.809ZM1239.29 165.152L1256.05 161.107L1282.91 272.393L1266.15 276.438L1249.4 280.484L1222.53 169.197L1239.29 165.152ZM1266.15 276.438L1282.91 272.387L1282.95 272.536L1266.19 276.588L1249.43 280.64L1249.4 280.49L1266.15 276.438ZM1266.19 276.588L1278.7 264.732L1278.81 264.844L1266.3 276.699L1253.78 288.555L1253.68 288.444L1266.19 276.588ZM1266.3 276.699L1278.82 264.855C1296.48 283.532 1321.69 316.29 1341.01 354.933L1325.59 362.639L1310.17 370.345C1292.53 335.051 1269.37 305.037 1253.77 288.544L1266.3 276.699ZM1325.59 362.639L1341.01 354.933C1360.19 393.314 1374.62 439.648 1367.65 484.572L1350.61 481.929L1333.58 479.285C1338.97 444.564 1327.94 405.918 1310.17 370.345L1325.59 362.639ZM1350.61 481.929L1367.65 484.572C1360.11 533.18 1361.97 562.274 1365.78 580.8L1348.9 584.27L1332.01 587.739C1327.16 564.149 1325.59 530.754 1333.58 479.285L1350.61 481.929ZM1348.9 584.27L1365.78 580.8C1367.68 590.044 1370.13 597.004 1372.47 602.854L1356.47 609.256L1340.46 615.658C1337.61 608.537 1334.44 599.555 1332.01 587.739L1348.9 584.27ZM1356.47 609.256L1372.47 602.854C1374.47 607.86 1377.68 614.863 1379.29 620.584L1362.7 625.251L1346.1 629.918C1345.15 626.523 1343.67 623.68 1340.46 615.658L1356.47 609.256ZM1362.7 625.251L1379.29 620.583C1378.76 618.688 1377.9 617.688 1377.79 617.554C1377.66 617.414 1377.88 617.688 1378.76 618.31L1368.79 632.371L1358.81 646.432C1354.78 643.574 1348.46 638.291 1346.1 629.919L1362.7 625.251ZM1368.79 632.371L1378.76 618.31C1380.57 619.593 1383.64 621.275 1388.22 623.272L1381.34 639.077L1374.46 654.883C1368.94 652.481 1363.42 649.697 1358.81 646.432L1368.79 632.371ZM1381.34 639.077L1388.22 623.272C1397.34 627.24 1409.7 631.295 1423.49 635.55L1418.4 652.023L1413.32 668.495C1399.62 664.267 1385.55 659.713 1374.46 654.883L1381.34 639.077ZM1418.4 652.023L1423.49 635.55C1436.89 639.685 1451.69 644.025 1464.29 648.289L1458.77 664.618L1453.24 680.947C1441.22 676.88 1427.44 672.852 1413.32 668.495L1418.4 652.023ZM1458.77 664.618L1464.29 648.289C1476.28 652.344 1488.8 657.12 1496.89 662.857L1486.91 676.918L1476.94 690.979C1473.55 688.571 1465.71 685.164 1453.24 680.947L1458.77 664.618ZM1486.91 676.918L1503.33 671.649L1652.91 1137.63L1636.49 1142.9L1620.08 1148.17L1470.5 682.187L1486.91 676.918ZM1636.49 1142.9L1653.58 1140.64L1660.18 1190.64L1643.09 1192.89L1626 1195.15L1619.4 1145.15L1636.49 1142.9ZM1643.09 1192.89L1640.86 1175.8L1641.43 1175.72L1643.66 1192.82L1645.89 1209.91L1645.32 1209.98L1643.09 1192.89ZM1643.66 1192.82L1641.4 1175.73L1641.97 1175.65L1644.23 1192.74L1646.49 1209.83L1645.92 1209.91L1643.66 1192.82ZM1644.23 1192.74L1627.14 1195L1620.53 1144.95L1637.62 1142.7L1654.72 1140.44L1661.32 1190.49L1644.23 1192.74ZM1637.62 1142.7L1620.54 1145L1620.53 1144.95L1637.62 1142.65L1654.7 1140.35L1654.71 1140.4L1637.62 1142.7ZM1637.62 1142.65L1621.17 1147.81L1621.15 1147.76L1637.6 1142.6L1654.05 1137.44L1654.07 1137.49L1637.62 1142.65ZM1637.6 1142.6L1621.19 1147.86L1471.54 681.653L1487.95 676.384L1504.36 671.115L1654.02 1137.33L1637.6 1142.6ZM1487.95 676.384L1471.53 681.622L1471.47 681.441L1487.89 676.203L1504.32 670.965L1504.37 671.146L1487.95 676.384ZM1487.89 676.203L1477.86 690.225L1477.71 690.114L1487.74 676.093L1497.77 662.071L1497.92 662.182L1487.89 676.203ZM1487.74 676.093L1477.67 690.089C1474.2 687.588 1466.19 684.115 1453.61 679.858L1459.14 663.529L1464.66 647.2C1476.71 651.277 1489.53 656.151 1497.8 662.097L1487.74 676.093ZM1459.14 663.529L1453.61 679.858C1441.57 675.785 1427.76 671.747 1413.66 667.397L1418.74 650.925L1423.83 634.453C1437.2 638.579 1452.04 642.929 1464.66 647.2L1459.14 663.529ZM1418.74 650.925L1413.66 667.397C1399.96 663.168 1385.95 658.63 1374.92 653.829L1381.8 638.023L1388.68 622.218C1397.73 626.158 1410.03 630.197 1423.83 634.453L1418.74 650.925ZM1381.8 638.023L1374.92 653.829C1369.44 651.442 1363.99 648.696 1359.48 645.496L1369.45 631.435L1379.42 617.373C1381.14 618.589 1384.12 620.234 1388.68 622.218L1381.8 638.023ZM1369.45 631.435L1359.48 645.496C1355.5 642.677 1349.45 637.589 1347.21 629.609L1363.8 624.94L1380.4 620.272C1379.8 618.154 1378.83 617.007 1378.65 616.798C1378.45 616.567 1378.59 616.784 1379.42 617.374L1369.45 631.435ZM1363.8 624.94L1347.21 629.608C1346.23 626.136 1344.69 623.138 1341.53 615.231L1357.53 608.829L1373.54 602.427C1375.51 607.349 1378.77 614.474 1380.4 620.273L1363.8 624.94ZM1357.53 608.829L1341.53 615.231C1338.7 608.154 1335.55 599.24 1333.13 587.509L1350.02 584.039L1366.91 580.569C1368.79 589.726 1371.21 596.618 1373.54 602.427L1357.53 608.829ZM1350.02 584.039L1333.13 587.509C1328.32 564.088 1326.74 530.835 1334.72 479.461L1351.75 482.105L1368.78 484.748C1361.26 533.262 1363.13 562.213 1366.91 580.569L1350.02 584.039ZM1351.75 482.105L1334.72 479.461C1340.16 444.4 1329.02 405.499 1311.19 369.831L1326.61 362.125L1342.03 354.419C1361.26 392.894 1375.81 439.483 1368.78 484.748L1351.75 482.105ZM1326.61 362.125L1311.19 369.831C1293.54 334.501 1270.37 304.446 1254.7 287.856L1267.24 276.021L1279.77 264.185C1297.49 282.953 1322.71 315.745 1342.03 354.419L1326.61 362.125ZM1267.24 276.021L1250.48 280.066L1223.55 168.534L1240.31 164.488L1257.07 160.443L1283.99 271.975L1267.24 276.021ZM1240.31 164.488L1223.55 168.522L1223.46 168.129L1240.22 164.095L1256.98 160.061L1257.07 160.454L1240.31 164.488ZM1240.22 164.095L1238.39 181.236L1237.98 181.193L1239.81 164.052L1241.64 146.911L1242.05 146.954L1240.22 164.095Z" fill="#2E358D"/>
<path d="M1066.47 194.005L1223.11 149.089L1263.34 289.387C1205.52 320.246 1171.47 331.095 1106.7 334.303L1066.47 194.005Z" fill="#2E358D"/>
<path d="M1151.51 778.403C1289 772.828 1361.82 750.418 1482.9 670.729L1650.82 1187.52L1319.43 1295.2L1151.51 778.403Z" fill="#2E358D"/>
<path d="M1203.49 739.971C1225.18 724.784 1255.61 730.26 1271.37 752.765C1287.13 775.271 1281.87 805.744 1260.18 820.931C1238.49 836.118 1208.05 830.641 1192.3 808.136C1176.54 785.631 1181.8 755.158 1203.49 739.971Z" stroke="#2E358D" stroke-width="19.5369"/>
<path d="M1352.97 660.934C1367.66 650.644 1387.5 654.139 1397.37 668.234C1407.24 682.328 1403.74 702.168 1389.05 712.458C1374.35 722.749 1354.51 719.252 1344.64 705.158C1334.77 691.063 1338.27 671.224 1352.97 660.934Z" stroke="#2E358D" stroke-width="19.5369"/>
<path d="M1418.61 680.533C1433.59 670.046 1454.55 673.75 1465.36 689.188C1476.17 704.626 1472.48 725.588 1457.5 736.076C1442.52 746.563 1421.57 742.858 1410.76 727.42C1399.95 711.982 1403.63 691.021 1418.61 680.533Z" stroke="#2E358D" stroke-width="19.5369"/>
<path d="M1323.43 728.939C1338.41 718.451 1359.37 722.156 1370.18 737.593C1380.99 753.031 1377.3 773.993 1362.33 784.481C1347.35 794.968 1326.39 791.263 1315.58 775.825C1304.77 760.388 1308.46 739.426 1323.43 728.939Z" stroke="#2E358D" stroke-width="19.5369"/>
<path d="M1134 786.499C1253.21 775.393 1385.91 731.26 1487.5 656.5L1652.97 1107.37L1274 1240L1134 786.499Z" fill="#E84949"/>
<path d="M100.925 683.077C79.1873 683.077 77.9392 696.64 79.8236 705.685C81.708 714.73 48.1263 713.976 55.5911 733.57C63.0558 753.164 43.5649 759.461 46.6654 777.28C49.6809 794.611 60.231 790.843 72.2889 799.889C84.3467 808.935 70.6874 818.522 83.5925 826.265C98.6638 835.309 121.323 818.698 127.303 831.148C133.284 843.598 161.215 839.83 167.292 831.148C173.37 822.466 171.146 816.73 191.36 823.25C214.723 830.786 214.723 811.949 214.723 804.413C214.723 796.877 207.036 794.917 224.52 784.065C234.166 774.419 233.316 750.547 220.507 750.547C209.955 750.547 205.188 740.789 207.938 733.57C214.723 715.762 196.885 705.183 183.823 705.685C175.282 707.695 170.354 703.421 167.292 692.121C163.411 677.798 142.575 675.488 131.823 683.078C119.012 692.121 116.749 683.077 100.925 683.077Z" fill="white"/>
<path d="M134.621 731.675C119.354 731.675 90.5808 738.633 97.6273 766.467C104.674 794.301 147.834 787.46 168.533 780.56C187.699 771.752 192.051 732.468 127.575 756.778C109.254 764.529 124.639 769.99 134.621 771.752" stroke="#E84949" stroke-width="7.92733" stroke-linecap="round"/>
<path d="M1343.95 784.356C1321.67 784.356 1320.4 798.256 1322.33 807.525C1324.26 816.795 1289.84 816.022 1297.49 836.102C1305.14 856.182 1285.17 862.636 1288.35 880.897C1291.44 898.657 1302.25 894.796 1314.6 904.066C1326.96 913.337 1312.96 923.162 1326.19 931.097C1341.63 940.365 1364.86 923.342 1370.98 936.101C1377.11 948.86 1405.74 944.998 1411.97 936.101C1418.19 927.203 1415.92 921.326 1436.63 928.007C1460.57 935.731 1460.57 916.426 1460.57 908.703C1460.57 900.98 1452.69 898.971 1470.61 887.85C1480.5 877.965 1476.79 858.502 1463.66 858.502C1452.85 858.502 1447.44 852.321 1453.62 836.102C1460.57 817.852 1442.29 807.011 1428.91 807.525C1420.15 809.585 1415.1 805.205 1411.97 793.624C1407.99 778.946 1386.63 776.579 1375.62 784.357C1362.49 793.624 1360.17 784.356 1343.95 784.356Z" fill="white"/>
<path d="M1377.24 831C1359.91 831 1327.24 838.9 1335.24 870.5C1343.24 902.1 1392.24 894.333 1415.74 886.5C1437.5 876.5 1442.44 831.9 1369.24 859.5C1348.44 868.3 1365.91 874.5 1377.24 876.5" stroke="#E84949" stroke-width="9" stroke-linecap="round"/>
</g>
<defs>
<clipPath id="clip0_2432_265">
<rect width="1440" height="900" fill="white"/>
</clipPath>
</defs>
</svg>
