<svg width="1440" height="600" viewBox="0 0 1440 600" fill="none" xmlns="http://www.w3.org/2000/svg">
<g clip-path="url(#clip0_2436_43)">
<path d="M-165.279 29.878C-170.077 28.8509 -175.071 29.7785 -179.168 32.4799C-183.264 35.18 -186.127 39.4327 -187.122 44.2793C-188.117 49.1258 -187.161 54.1626 -184.461 58.2582C-181.76 62.3552 -177.535 65.1755 -172.721 66.122C-172.721 66.122 -172.721 66.122 -172.721 66.122C-150.472 68.8888 -133.44 69.8799 -113.621 71.6203C230.049 99.014 573.448 124.173 917.245 149.757C935.987 151.141 955.807 152.612 974.263 153.97C976.624 154.144 978.966 153.367 980.772 151.823C982.579 150.277 983.702 148.09 983.896 145.731C984.09 143.372 983.339 141.031 981.808 139.211C980.278 137.392 978.095 136.244 975.737 136.03C975.737 136.03 975.737 136.03 975.737 136.03C957.308 134.357 937.515 132.57 918.8 130.871C575.536 99.6116 232.4 68.7537 -110.363 35.7178C-128.966 33.8459 -150.768 31.7742 -165.279 29.878Z" fill="#2E358D"/>
<rect x="506" y="23" width="414" height="552" fill="#FBF6EA"/>
<path d="M-234.917 -37.0678C-239.965 -38.1935 -245.237 -37.2606 -249.579 -34.4497C-253.92 -31.6401 -256.976 -27.1827 -258.068 -22.0827C-259.16 -16.9828 -258.197 -11.6651 -255.387 -7.32421C-252.577 -2.98192 -248.149 0.0278873 -243.083 1.06781C-218.935 4.1663 -199.833 5.46771 -178.724 7.47142C196.846 40.347 571.952 71.1818 947.9 101.106C968.672 102.739 990.157 104.423 1010.23 105.967C1012.59 106.149 1014.94 105.381 1016.75 103.842C1018.56 102.303 1019.69 100.12 1019.89 97.762C1020.09 95.4038 1019.35 93.0602 1017.83 91.2353C1016.3 89.411 1014.13 88.255 1011.77 88.0329C1011.77 88.0329 1011.77 88.0329 1011.77 88.0329C991.734 86.1406 970.287 84.109 949.553 82.1276C574.297 45.9406 199.574 8.81344 -175.007 -30.296C-194.793 -32.4395 -219.13 -34.9625 -234.917 -37.0678Z" fill="#2E358D"/>
</g>
<defs>
<clipPath id="clip0_2436_43">
<rect width="1440" height="600" fill="white"/>
</clipPath>
</defs>
</svg>
