<svg width="1440" height="900" viewBox="0 0 1440 900" fill="none" xmlns="http://www.w3.org/2000/svg">
<g clip-path="url(#clip0_2483_2)">
<rect width="1440" height="900" fill="#FBF6EA"/>
<path d="M187 92L1491.5 92" stroke="#2E358D" stroke-width="35.3357" stroke-linecap="round"/>
<path d="M189.117 171.707L1499.5 261" stroke="#2E358D" stroke-width="35.3357" stroke-linecap="round"/>
<path d="M416.181 121.994C416.181 176.367 416.181 257.174 416.181 308.945C416.181 360.716 445.354 396.051 463.843 448.644C482.332 501.237 469.596 544.79 416.181 617.927C362.767 691.064 412.757 835.283 463.843 924.855" stroke="#E84949" stroke-width="35.3357"/>
<path d="M494.57 121.583C494.57 175.956 494.57 256.763 494.57 308.534C494.57 360.305 523.742 395.64 542.232 448.233C560.721 500.826 547.984 544.379 494.57 617.516C441.155 690.652 491.146 834.871 542.232 924.443" stroke="#E84949" stroke-width="35.3357"/>
<path d="M652.347 122.405C652.347 176.778 652.347 257.585 652.347 309.356C652.347 361.127 681.52 396.463 700.009 449.055C718.498 501.648 705.762 545.201 652.347 618.338C598.933 691.475 648.923 835.694 700.009 925.266" stroke="#E84949" stroke-width="35.3357"/>
<path d="M731.236 122.405C731.236 176.778 731.236 257.585 731.236 309.356C731.236 361.127 760.408 396.463 778.898 449.055C797.387 501.648 784.651 545.201 731.236 618.338C677.821 691.475 727.812 835.694 778.898 925.266" stroke="#E84949" stroke-width="35.3357"/>
<path d="M889.015 122.405C889.015 176.778 889.015 257.585 889.015 309.356C889.015 361.127 918.188 396.463 936.677 449.055C955.166 501.648 942.43 545.201 889.015 618.338C835.601 691.475 885.591 835.694 936.677 925.266" stroke="#E84949" stroke-width="35.3357"/>
<path d="M517.729 277.51L500.094 335.191L576.479 358.545L565.187 395.48L488.802 372.126L462.374 458.57L410.664 442.761L477.264 224.923L620.447 268.698L603.859 303.842L517.729 277.51Z" fill="#2E358D"/>
<path d="M888.928 744.589L822.698 736.457L804.801 783.77L748.849 776.9L845.775 559.298L910.7 567.27L952.105 801.856L894.847 794.826L888.928 744.589ZM835.948 698.674L884.886 704.683L872.695 601.682L835.948 698.674Z" fill="#2E358D"/>
<path d="M967.081 122.405C967.081 176.778 967.081 257.585 967.081 309.356C967.081 361.127 996.254 396.463 1014.74 449.055C1033.23 501.648 1020.5 545.201 967.082 618.338C913.667 691.475 963.657 835.694 1014.74 925.266" stroke="#E84949" stroke-width="35.3357"/>
<path d="M838.993 271.879L850.526 309.6L805.575 323.343L849.062 465.582L894.013 451.839L905.593 489.718L764.139 532.964L752.559 495.086L797.51 481.343L754.023 339.104L709.072 352.847L697.539 315.126L838.993 271.879Z" fill="#2E358D"/>
<path d="M810.126 122.405C810.126 176.778 810.126 257.585 810.126 309.356C810.126 361.127 839.299 396.463 857.788 449.055C876.278 501.648 863.541 545.201 810.127 618.338C756.712 691.475 806.702 835.694 857.788 925.266" stroke="#E84949" stroke-width="35.3357"/>
<path d="M573.458 121.583C573.458 175.956 573.458 256.763 573.458 308.534C573.458 360.305 602.631 395.64 621.12 448.233C639.61 500.826 626.873 544.379 573.459 617.516C520.044 690.652 570.034 834.871 621.12 924.443" stroke="#E84949" stroke-width="35.3357"/>
<path d="M689.799 585.419C685.215 595.25 679.372 602.983 672.271 608.618C665.171 614.253 657.311 618.144 648.694 620.291C640.076 622.438 631.177 623.245 621.996 622.712L635.433 735.063L580.171 709.294L572.298 609.511L558.445 603.052L521.632 681.997L472.775 659.215L569.044 452.765L633.988 483.049C662.091 496.153 680.907 511.153 690.437 528.05C699.967 544.946 699.755 564.069 689.799 585.419ZM639.453 561.942C644.083 552.012 644.511 543.446 640.736 536.246C637.106 528.992 629.582 522.703 618.162 517.377L601.926 509.807L574.073 569.537L592.245 578.011C602.871 582.966 612.122 584.257 619.998 581.885C627.874 579.513 634.359 572.865 639.453 561.942Z" fill="#2E358D"/>
<path d="M622.943 529.588C632.394 504.524 627.627 473.133 626.641 467.545" stroke="#E84949" stroke-width="35.3357"/>
<path d="M1034.58 603.672C1033.27 606.202 1032.53 608.82 1032.36 611.527C1032.21 614.293 1032.35 617.176 1032.77 620.176L1016.74 622.539C1015.8 618.641 1015.56 614.336 1016.03 609.623C1016.47 604.949 1017.95 600.2 1020.45 595.374C1023.89 588.72 1028.23 583.684 1033.46 580.266C1038.72 576.869 1044.47 575.108 1050.7 574.984C1056.97 574.881 1063.37 576.452 1069.88 579.699C1076.39 582.946 1081.5 587.135 1085.21 592.265C1088.93 597.455 1091 603.186 1091.4 609.458C1091.78 615.77 1090.25 622.253 1086.8 628.908C1084.36 633.617 1081.53 637.468 1078.3 640.461C1075.09 643.512 1071.4 645.929 1067.21 647.713L1060.18 634.141C1062.76 632.783 1065.07 631.142 1067.1 629.218C1069.13 627.294 1070.8 625.067 1072.11 622.537C1074.27 618.373 1074.52 614.264 1072.87 610.209C1071.24 606.212 1066.92 602.463 1059.9 598.962C1055.31 596.674 1051.37 595.468 1048.08 595.344C1044.82 595.24 1042.09 595.935 1039.89 597.431C1037.7 598.984 1035.93 601.065 1034.58 603.672Z" fill="#2E358D"/>
<path d="M1075.91 683.539C1075.38 690.707 1073.4 696.681 1069.97 701.46C1066.54 706.24 1061.95 709.738 1056.21 711.956C1050.5 714.178 1043.94 714.989 1036.51 714.389C1028.78 713.764 1022.22 711.871 1016.83 708.71C1011.48 705.595 1007.51 701.405 1004.91 696.139C1002.31 690.873 1001.27 684.677 1001.8 677.553C1002.33 670.472 1004.24 664.515 1007.54 659.682C1010.84 654.892 1015.37 651.366 1021.12 649.104C1026.86 646.886 1033.62 646.091 1041.4 646.719C1048.78 647.316 1055.15 649.171 1060.5 652.285C1065.85 655.443 1069.88 659.661 1072.61 664.938C1075.34 670.258 1076.44 676.459 1075.91 683.539ZM1060.65 682.306C1060.96 678.066 1059.45 674.778 1056.1 672.442C1052.8 670.153 1047.37 668.703 1039.81 668.092C1032.13 667.471 1026.48 668.026 1022.88 669.758C1019.28 671.534 1017.32 674.541 1017 678.781C1016.69 683.021 1018.18 686.285 1021.49 688.574C1024.79 690.907 1030.32 692.388 1038.1 693.016C1045.61 693.623 1051.17 693.039 1054.77 691.263C1058.37 689.531 1060.33 686.546 1060.65 682.306Z" fill="#2E358D"/>
<path d="M1107.36 757.915L1107.8 778.761L1010.81 789.301L1008.51 771.037L1016.03 769.163C1013.09 767.543 1010.44 765.252 1008.08 762.291C1005.76 759.325 1004.32 755.581 1003.75 751.058C1003.03 745.318 1003.98 740.389 1006.59 736.269C1009.22 732.193 1013.18 728.92 1018.48 726.449C1023.82 724.016 1030.22 722.395 1037.67 721.586C1044.82 720.809 1051.3 721.229 1057.11 722.846C1062.92 724.462 1067.66 727.165 1071.31 730.955C1075.01 734.741 1077.22 739.482 1077.94 745.178C1078.33 748.266 1078.14 751.195 1077.39 753.966C1076.63 756.737 1075.34 759.28 1073.51 761.594L1107.36 757.915ZM1063.54 752.363C1063.09 748.797 1061.03 746.112 1057.36 744.307C1053.73 742.498 1048.01 742.016 1040.22 742.864C1034.51 743.484 1030.12 744.424 1027.05 745.683C1024.03 746.937 1021.99 748.437 1020.93 750.183C1019.87 751.929 1019.47 753.846 1019.73 755.933C1020.02 758.238 1021 760.247 1022.68 761.961C1024.35 763.718 1026.53 765.201 1029.2 766.409L1059.13 763.157C1060.74 761.527 1061.94 759.854 1062.74 758.136C1063.54 756.418 1063.8 754.494 1063.54 752.363Z" fill="#2E358D"/>
<path d="M1047.19 818.113C1043.61 819.471 1040.85 821.147 1038.93 823.142C1037.07 825.168 1035.9 827.453 1035.44 829.998C1035.03 832.532 1035.19 835.218 1035.94 838.057C1036.76 841.15 1038.06 844.014 1039.85 846.65C1041.63 849.285 1043.73 851.732 1046.14 853.991L1037.28 864.708C1033.71 862.186 1030.46 858.869 1027.51 854.756C1024.58 850.685 1022.35 845.768 1020.82 840.006C1018.78 832.294 1018.61 825.464 1020.3 819.514C1022.03 813.554 1025.26 808.609 1029.97 804.68C1034.69 800.751 1040.56 797.94 1047.59 796.248C1054.28 794.639 1060.69 794.449 1066.82 795.678C1072.99 796.898 1078.34 799.555 1082.86 803.648C1087.44 807.773 1090.67 813.374 1092.54 820.45C1094.24 826.89 1094.33 832.795 1092.81 838.165C1091.29 843.577 1088.28 848.201 1083.76 852.036C1079.26 855.914 1073.36 858.73 1066.08 860.483C1064.93 860.76 1063.68 861.015 1062.34 861.248C1061 861.524 1059.81 861.721 1058.75 861.84L1047.19 818.113ZM1078.99 823.711C1078.04 820.109 1075.97 817.519 1072.79 815.942C1069.61 814.364 1065.1 814.029 1059.27 814.937L1065.82 839.724C1070.75 838.492 1074.46 836.585 1076.95 834.003C1079.44 831.421 1080.12 827.99 1078.99 823.711Z" fill="#2E358D"/>
<path d="M88.939 473.415V478.717H94.879V480.257H88.939V487H87.047V471.853H95.968L95.737 473.415H88.939ZM105.265 475.417V485.537H108.532V487H99.8424V485.537H103.417V476.88H99.9524V475.417H105.265ZM103.791 469.994C104.202 469.994 104.528 470.119 104.77 470.368C105.02 470.617 105.144 470.922 105.144 471.281C105.144 471.655 105.02 471.97 104.77 472.227C104.528 472.476 104.202 472.601 103.791 472.601C103.403 472.601 103.084 472.476 102.834 472.227C102.585 471.97 102.46 471.655 102.46 471.281C102.46 470.922 102.585 470.617 102.834 470.368C103.084 470.119 103.403 469.994 103.791 469.994ZM112.704 487V485.581H114.508V476.836H112.704V475.417H115.916L116.257 478.156C116.704 477.203 117.247 476.466 117.885 475.945C118.523 475.424 119.366 475.164 120.415 475.164C120.737 475.164 121.023 475.19 121.273 475.241C121.529 475.285 121.79 475.344 122.054 475.417L121.515 477.067C121.273 477.001 121.053 476.953 120.855 476.924C120.657 476.887 120.429 476.869 120.173 476.869C119.285 476.869 118.523 477.184 117.885 477.815C117.247 478.446 116.737 479.399 116.356 480.675V485.581H118.71V487H112.704ZM120.272 479.333V476.814L120.459 475.417H122.054L121.79 479.333H120.272ZM134.079 484.47C134.079 484.932 134.156 485.269 134.31 485.482C134.464 485.695 134.703 485.852 135.025 485.955L134.574 487.253C134.076 487.187 133.639 487.029 133.265 486.78C132.891 486.523 132.62 486.138 132.451 485.625C132.033 486.16 131.513 486.567 130.889 486.846C130.266 487.117 129.577 487.253 128.821 487.253C127.663 487.253 126.75 486.927 126.082 486.274C125.415 485.621 125.081 484.756 125.081 483.678C125.081 482.483 125.547 481.566 126.478 480.928C127.41 480.29 128.755 479.971 130.515 479.971H132.22V479.003C132.22 478.167 131.975 477.577 131.483 477.232C130.999 476.88 130.325 476.704 129.459 476.704C129.078 476.704 128.631 476.752 128.117 476.847C127.604 476.935 127.047 477.085 126.445 477.298L125.961 475.901C126.673 475.637 127.34 475.45 127.963 475.34C128.587 475.23 129.181 475.175 129.745 475.175C131.19 475.175 132.272 475.512 132.99 476.187C133.716 476.854 134.079 477.764 134.079 478.915V484.47ZM129.294 485.845C129.866 485.845 130.413 485.702 130.933 485.416C131.454 485.123 131.883 484.719 132.22 484.206V481.225H130.548C129.272 481.225 128.37 481.445 127.842 481.885C127.322 482.325 127.061 482.915 127.061 483.656C127.061 484.375 127.245 484.921 127.611 485.295C127.985 485.662 128.546 485.845 129.294 485.845ZM157.833 471.611C158.823 471.611 159.652 471.736 160.319 471.985C160.986 472.234 161.621 472.601 162.222 473.085L161.155 474.328C160.678 473.925 160.172 473.639 159.637 473.47C159.109 473.294 158.555 473.206 157.976 473.206C157.147 473.206 156.381 473.404 155.677 473.8C154.973 474.189 154.405 474.838 153.972 475.747C153.547 476.649 153.334 477.874 153.334 479.421C153.334 480.924 153.536 482.131 153.939 483.04C154.35 483.949 154.903 484.606 155.6 485.009C156.297 485.412 157.074 485.614 157.932 485.614C158.783 485.614 159.479 485.486 160.022 485.229C160.572 484.972 161.049 484.679 161.452 484.349L162.442 485.603C161.98 486.05 161.379 486.439 160.638 486.769C159.897 487.092 158.988 487.253 157.91 487.253C156.685 487.253 155.574 486.952 154.577 486.351C153.587 485.75 152.802 484.87 152.223 483.711C151.644 482.545 151.354 481.115 151.354 479.421C151.354 477.72 151.647 476.29 152.234 475.131C152.828 473.972 153.616 473.096 154.599 472.502C155.589 471.908 156.667 471.611 157.833 471.611ZM169.77 475.175C170.863 475.175 171.776 475.424 172.509 475.923C173.25 476.414 173.804 477.111 174.17 478.013C174.544 478.915 174.731 479.978 174.731 481.203C174.731 482.384 174.541 483.429 174.159 484.338C173.778 485.247 173.217 485.962 172.476 486.483C171.743 486.996 170.834 487.253 169.748 487.253C168.663 487.253 167.75 487.004 167.009 486.505C166.269 486.006 165.708 485.306 165.326 484.404C164.952 483.495 164.765 482.435 164.765 481.225C164.765 480.03 164.956 478.977 165.337 478.068C165.719 477.159 166.28 476.451 167.02 475.945C167.768 475.432 168.685 475.175 169.77 475.175ZM169.77 476.682C168.773 476.682 168.018 477.052 167.504 477.793C166.998 478.526 166.745 479.67 166.745 481.225C166.745 482.75 166.995 483.883 167.493 484.624C167.999 485.365 168.751 485.735 169.748 485.735C170.746 485.735 171.494 485.365 171.992 484.624C172.498 483.883 172.751 482.743 172.751 481.203C172.751 479.663 172.502 478.526 172.003 477.793C171.505 477.052 170.76 476.682 169.77 476.682ZM185.481 470.522L187.329 470.753V487H185.712L185.536 485.471C185.103 486.087 184.605 486.538 184.04 486.824C183.483 487.11 182.885 487.253 182.247 487.253C181.242 487.253 180.414 487 179.761 486.494C179.108 485.988 178.624 485.284 178.309 484.382C177.994 483.473 177.836 482.42 177.836 481.225C177.836 480.066 178.016 479.032 178.375 478.123C178.734 477.206 179.251 476.488 179.926 475.967C180.608 475.439 181.426 475.175 182.379 475.175C183.046 475.175 183.633 475.292 184.139 475.527C184.645 475.754 185.092 476.092 185.481 476.539V470.522ZM182.863 476.66C181.895 476.66 181.151 477.038 180.63 477.793C180.109 478.548 179.849 479.692 179.849 481.225C179.849 482.222 179.955 483.058 180.168 483.733C180.381 484.408 180.692 484.914 181.103 485.251C181.521 485.588 182.031 485.757 182.632 485.757C183.292 485.757 183.853 485.57 184.315 485.196C184.784 484.822 185.173 484.4 185.481 483.931V478.145C185.166 477.676 184.784 477.313 184.337 477.056C183.89 476.792 183.398 476.66 182.863 476.66ZM193.194 481.863C193.231 482.758 193.403 483.491 193.711 484.063C194.019 484.628 194.426 485.046 194.932 485.317C195.438 485.581 195.988 485.713 196.582 485.713C197.176 485.713 197.712 485.625 198.188 485.449C198.672 485.273 199.167 485.013 199.673 484.668L200.542 485.889C200 486.314 199.38 486.648 198.683 486.89C197.994 487.132 197.286 487.253 196.56 487.253C195.438 487.253 194.481 487 193.689 486.494C192.897 485.988 192.292 485.284 191.874 484.382C191.464 483.473 191.258 482.42 191.258 481.225C191.258 480.052 191.467 479.01 191.885 478.101C192.303 477.192 192.89 476.477 193.645 475.956C194.401 475.435 195.292 475.175 196.318 475.175C197.294 475.175 198.133 475.406 198.837 475.868C199.541 476.323 200.08 476.975 200.454 477.826C200.836 478.669 201.026 479.678 201.026 480.851C201.026 481.049 201.023 481.236 201.015 481.412C201.008 481.581 200.997 481.731 200.982 481.863H193.194ZM196.34 476.693C195.482 476.693 194.764 476.997 194.184 477.606C193.612 478.215 193.286 479.157 193.205 480.433H199.244C199.222 479.194 198.951 478.262 198.43 477.639C197.91 477.008 197.213 476.693 196.34 476.693ZM223.361 485.658C223.94 485.658 224.479 485.563 224.978 485.372C225.484 485.181 225.95 484.939 226.375 484.646L227.277 485.856C226.771 486.289 226.162 486.63 225.451 486.879C224.74 487.128 224.043 487.253 223.361 487.253C222.21 487.253 221.227 487.007 220.413 486.516C219.606 486.017 218.99 485.321 218.565 484.426C218.14 483.524 217.927 482.468 217.927 481.258C217.927 480.099 218.14 479.062 218.565 478.145C218.998 477.221 219.617 476.495 220.424 475.967C221.238 475.439 222.224 475.175 223.383 475.175C224.124 475.175 224.817 475.289 225.462 475.516C226.115 475.736 226.712 476.07 227.255 476.517L226.353 477.749C225.862 477.404 225.367 477.148 224.868 476.979C224.377 476.803 223.874 476.715 223.361 476.715C222.364 476.715 221.542 477.089 220.897 477.837C220.252 478.585 219.929 479.725 219.929 481.258C219.929 482.285 220.076 483.124 220.369 483.777C220.67 484.422 221.077 484.899 221.59 485.207C222.111 485.508 222.701 485.658 223.361 485.658ZM235.727 475.175C236.82 475.175 237.733 475.424 238.466 475.923C239.207 476.414 239.761 477.111 240.127 478.013C240.501 478.915 240.688 479.978 240.688 481.203C240.688 482.384 240.498 483.429 240.116 484.338C239.735 485.247 239.174 485.962 238.433 486.483C237.7 486.996 236.791 487.253 235.705 487.253C234.62 487.253 233.707 487.004 232.966 486.505C232.226 486.006 231.665 485.306 231.283 484.404C230.909 483.495 230.722 482.435 230.722 481.225C230.722 480.03 230.913 478.977 231.294 478.068C231.676 477.159 232.237 476.451 232.977 475.945C233.725 475.432 234.642 475.175 235.727 475.175ZM235.727 476.682C234.73 476.682 233.975 477.052 233.461 477.793C232.955 478.526 232.702 479.67 232.702 481.225C232.702 482.75 232.952 483.883 233.45 484.624C233.956 485.365 234.708 485.735 235.705 485.735C236.703 485.735 237.451 485.365 237.949 484.624C238.455 483.883 238.708 482.743 238.708 481.203C238.708 479.663 238.459 478.526 237.96 477.793C237.462 477.052 236.717 476.682 235.727 476.682ZM246.51 480.191H248.6C249.377 480.191 249.99 480.03 250.437 479.707C250.884 479.384 251.108 478.966 251.108 478.453C251.108 477.837 250.87 477.382 250.393 477.089C249.916 476.796 249.238 476.649 248.358 476.649C247.779 476.649 247.17 476.737 246.532 476.913C245.901 477.089 245.322 477.346 244.794 477.683L243.914 476.572C244.501 476.139 245.197 475.798 246.004 475.549C246.811 475.3 247.617 475.175 248.424 475.175C249.282 475.175 250.056 475.292 250.745 475.527C251.442 475.754 251.995 476.103 252.406 476.572C252.817 477.034 253.022 477.617 253.022 478.321C253.022 478.974 252.798 479.505 252.351 479.916C251.911 480.319 251.354 480.62 250.679 480.818C251.207 480.869 251.698 481.005 252.153 481.225C252.608 481.445 252.974 481.746 253.253 482.127C253.532 482.508 253.671 482.978 253.671 483.535C253.671 484.349 253.44 485.035 252.978 485.592C252.523 486.142 251.9 486.556 251.108 486.835C250.323 487.114 249.425 487.253 248.413 487.253C247.276 487.253 246.305 487.095 245.498 486.78C244.699 486.457 244.028 486.076 243.485 485.636L244.365 484.448C244.908 484.837 245.509 485.148 246.169 485.383C246.829 485.61 247.595 485.724 248.468 485.724C249.531 485.724 250.327 485.53 250.855 485.141C251.39 484.752 251.658 484.232 251.658 483.579C251.658 482.941 251.409 482.468 250.91 482.16C250.411 481.852 249.678 481.698 248.71 481.698H246.378L246.51 480.191ZM266.411 475.417V485.493L265.465 487H257.842L256.841 485.493C257.193 485.185 257.483 484.807 257.71 484.36C257.945 483.913 258.139 483.282 258.293 482.468C258.447 481.654 258.572 480.55 258.667 479.157L258.931 475.417H266.411ZM264.53 476.924H260.603L260.471 479.025C260.405 480.088 260.321 480.983 260.218 481.709C260.123 482.428 259.998 483.025 259.844 483.502C259.698 483.971 259.507 484.36 259.272 484.668C259.045 484.969 258.763 485.244 258.425 485.493H264.53V476.924ZM256.06 485.493H258.634L258.7 487H257.919L257.6 490.234H256.06V485.493ZM267.258 485.493V490.234H265.729L265.399 487H264.629L264.684 485.493H267.258ZM279.185 484.47C279.185 484.932 279.262 485.269 279.416 485.482C279.57 485.695 279.808 485.852 280.131 485.955L279.68 487.253C279.181 487.187 278.745 487.029 278.371 486.78C277.997 486.523 277.725 486.138 277.557 485.625C277.139 486.16 276.618 486.567 275.995 486.846C275.371 487.117 274.682 487.253 273.927 487.253C272.768 487.253 271.855 486.927 271.188 486.274C270.52 485.621 270.187 484.756 270.187 483.678C270.187 482.483 270.652 481.566 271.584 480.928C272.515 480.29 273.861 479.971 275.621 479.971H277.326V479.003C277.326 478.167 277.08 477.577 276.589 477.232C276.105 476.88 275.43 476.704 274.565 476.704C274.183 476.704 273.736 476.752 273.223 476.847C272.709 476.935 272.152 477.085 271.551 477.298L271.067 475.901C271.778 475.637 272.445 475.45 273.069 475.34C273.692 475.23 274.286 475.175 274.851 475.175C276.295 475.175 277.377 475.512 278.096 476.187C278.822 476.854 279.185 477.764 279.185 478.915V484.47ZM274.4 485.845C274.972 485.845 275.518 485.702 276.039 485.416C276.559 485.123 276.988 484.719 277.326 484.206V481.225H275.654C274.378 481.225 273.476 481.445 272.948 481.885C272.427 482.325 272.167 482.915 272.167 483.656C272.167 484.375 272.35 484.921 272.717 485.295C273.091 485.662 273.652 485.845 274.4 485.845ZM293.091 475.417V487H291.243V476.957H286.909L286.645 480.015C286.55 481.306 286.429 482.358 286.282 483.172C286.143 483.979 285.959 484.631 285.732 485.13C285.505 485.629 285.215 486.036 284.863 486.351C284.518 486.659 284.089 486.956 283.576 487.242L282.795 486.054C283.066 485.885 283.308 485.698 283.521 485.493C283.734 485.28 283.924 484.976 284.093 484.58C284.269 484.184 284.419 483.63 284.544 482.919C284.676 482.208 284.786 481.269 284.874 480.103L285.237 475.417H293.091ZM317.714 487V479.817H311.994V487H310.091V471.853H311.994V478.255H317.714V471.853H319.617V487H317.714ZM332.434 475.417V487H330.586V481.577C330.586 480.822 330.608 480.096 330.652 479.399C330.696 478.695 330.755 478.079 330.828 477.551L325.9 487H323.656V475.417H325.504V480.829C325.504 481.577 325.482 482.318 325.438 483.051C325.394 483.777 325.339 484.367 325.273 484.822L330.146 475.417H332.434ZM336.958 487V475.417H338.806V480.103H341.127L344.471 475.417H346.55L342.656 480.785L347.155 487H344.922L341.094 481.599H338.806V487H336.958ZM358.817 475.417V487H356.969V481.577C356.969 480.822 356.991 480.096 357.035 479.399C357.079 478.695 357.138 478.079 357.211 477.551L352.283 487H350.039V475.417H351.887V480.829C351.887 481.577 351.865 482.318 351.821 483.051C351.777 483.777 351.722 484.367 351.656 484.822L356.529 475.417H358.817ZM372.911 475.417L372.691 476.957H368.544V487H366.696V476.957H362.461V475.417H372.911ZM384.716 484.47C384.716 484.932 384.793 485.269 384.947 485.482C385.101 485.695 385.339 485.852 385.662 485.955L385.211 487.253C384.712 487.187 384.276 487.029 383.902 486.78C383.528 486.523 383.257 486.138 383.088 485.625C382.67 486.16 382.149 486.567 381.526 486.846C380.903 487.117 380.213 487.253 379.458 487.253C378.299 487.253 377.386 486.927 376.719 486.274C376.052 485.621 375.718 484.756 375.718 483.678C375.718 482.483 376.184 481.566 377.115 480.928C378.046 480.29 379.392 479.971 381.152 479.971H382.857V479.003C382.857 478.167 382.611 477.577 382.12 477.232C381.636 476.88 380.961 476.704 380.096 476.704C379.715 476.704 379.267 476.752 378.754 476.847C378.241 476.935 377.683 477.085 377.082 477.298L376.598 475.901C377.309 475.637 377.977 475.45 378.6 475.34C379.223 475.23 379.817 475.175 380.382 475.175C381.827 475.175 382.908 475.512 383.627 476.187C384.353 476.854 384.716 477.764 384.716 478.915V484.47ZM379.931 485.845C380.503 485.845 381.049 485.702 381.57 485.416C382.091 485.123 382.52 484.719 382.857 484.206V481.225H381.185C379.909 481.225 379.007 481.445 378.479 481.885C377.958 482.325 377.698 482.915 377.698 483.656C377.698 484.375 377.881 484.921 378.248 485.295C378.622 485.662 379.183 485.845 379.931 485.845ZM93.46 516V502.514H87.74V516H85.837V500.853H95.363V516H93.46ZM104.583 504.175C105.61 504.175 106.428 504.424 107.036 504.923C107.652 505.422 108.096 506.126 108.367 507.035C108.639 507.937 108.774 508.993 108.774 510.203C108.774 511.369 108.609 512.41 108.279 513.327C107.957 514.236 107.465 514.951 106.805 515.472C106.145 515.993 105.313 516.253 104.308 516.253C103.04 516.253 102.02 515.806 101.25 514.911V520.433L99.4024 520.664V504.417H100.975L101.129 506.034C101.555 505.44 102.061 504.982 102.647 504.659C103.241 504.336 103.887 504.175 104.583 504.175ZM104.143 505.66C103.505 505.66 102.941 505.854 102.449 506.243C101.965 506.624 101.566 507.05 101.25 507.519V513.261C101.551 513.708 101.929 514.064 102.383 514.328C102.845 514.585 103.351 514.713 103.901 514.713C104.862 514.713 105.584 514.346 106.068 513.613C106.552 512.88 106.794 511.739 106.794 510.192C106.794 509.18 106.699 508.34 106.508 507.673C106.318 506.998 106.028 506.496 105.639 506.166C105.251 505.829 104.752 505.66 104.143 505.66ZM117.005 504.175C118.097 504.175 119.01 504.424 119.744 504.923C120.484 505.414 121.038 506.111 121.405 507.013C121.779 507.915 121.966 508.978 121.966 510.203C121.966 511.384 121.775 512.429 121.394 513.338C121.012 514.247 120.451 514.962 119.711 515.483C118.977 515.996 118.068 516.253 116.983 516.253C115.897 516.253 114.984 516.004 114.244 515.505C113.503 515.006 112.942 514.306 112.561 513.404C112.187 512.495 112 511.435 112 510.225C112 509.03 112.19 507.977 112.572 507.068C112.953 506.159 113.514 505.451 114.255 504.945C115.003 504.432 115.919 504.175 117.005 504.175ZM117.005 505.682C116.007 505.682 115.252 506.052 114.739 506.793C114.233 507.526 113.98 508.67 113.98 510.225C113.98 511.75 114.229 512.883 114.728 513.624C115.234 514.365 115.985 514.735 116.983 514.735C117.98 514.735 118.728 514.365 119.227 513.624C119.733 512.883 119.986 511.743 119.986 510.203C119.986 508.663 119.736 507.526 119.238 506.793C118.739 506.052 117.995 505.682 117.005 505.682ZM125.895 516V504.417H127.743V509.103H130.064L133.408 504.417H135.487L131.593 509.785L136.092 516H133.859L130.031 510.599H127.743V516H125.895ZM143.388 504.175C144.48 504.175 145.393 504.424 146.127 504.923C146.867 505.414 147.421 506.111 147.788 507.013C148.162 507.915 148.349 508.978 148.349 510.203C148.349 511.384 148.158 512.429 147.777 513.338C147.395 514.247 146.834 514.962 146.094 515.483C145.36 515.996 144.451 516.253 143.366 516.253C142.28 516.253 141.367 516.004 140.627 515.505C139.886 515.006 139.325 514.306 138.944 513.404C138.57 512.495 138.383 511.435 138.383 510.225C138.383 509.03 138.573 507.977 138.955 507.068C139.336 506.159 139.897 505.451 140.638 504.945C141.386 504.432 142.302 504.175 143.388 504.175ZM143.388 505.682C142.39 505.682 141.635 506.052 141.122 506.793C140.616 507.526 140.363 508.67 140.363 510.225C140.363 511.75 140.612 512.883 141.111 513.624C141.617 514.365 142.368 514.735 143.366 514.735C144.363 514.735 145.111 514.365 145.61 513.624C146.116 512.883 146.369 511.743 146.369 510.203C146.369 508.663 146.119 507.526 145.621 506.793C145.122 506.052 144.378 505.682 143.388 505.682ZM159.098 516V505.935H154.016V516H152.168V504.417H160.946V516H159.098ZM169.77 504.175C170.863 504.175 171.776 504.424 172.509 504.923C173.25 505.414 173.804 506.111 174.17 507.013C174.544 507.915 174.731 508.978 174.731 510.203C174.731 511.384 174.541 512.429 174.159 513.338C173.778 514.247 173.217 514.962 172.476 515.483C171.743 515.996 170.834 516.253 169.748 516.253C168.663 516.253 167.75 516.004 167.009 515.505C166.269 515.006 165.708 514.306 165.326 513.404C164.952 512.495 164.765 511.435 164.765 510.225C164.765 509.03 164.956 507.977 165.337 507.068C165.719 506.159 166.28 505.451 167.02 504.945C167.768 504.432 168.685 504.175 169.77 504.175ZM169.77 505.682C168.773 505.682 168.018 506.052 167.504 506.793C166.998 507.526 166.745 508.67 166.745 510.225C166.745 511.75 166.995 512.883 167.493 513.624C167.999 514.365 168.751 514.735 169.748 514.735C170.746 514.735 171.494 514.365 171.992 513.624C172.498 512.883 172.751 511.743 172.751 510.203C172.751 508.663 172.502 507.526 172.003 506.793C171.505 506.052 170.76 505.682 169.77 505.682ZM182.731 504.175C183.692 504.175 184.524 504.292 185.228 504.527C185.932 504.762 186.475 505.103 186.856 505.55C187.245 505.99 187.439 506.536 187.439 507.189C187.439 507.79 187.274 508.307 186.944 508.74C186.614 509.165 186.002 509.492 185.107 509.719C186.104 509.814 186.845 510.097 187.329 510.566C187.813 511.028 188.055 511.699 188.055 512.579C188.055 513.386 187.831 514.042 187.384 514.548C186.937 515.047 186.343 515.413 185.602 515.648C184.869 515.883 184.058 516 183.171 516H178.793V504.571C179.402 504.461 180.032 504.369 180.685 504.296C181.345 504.215 182.027 504.175 182.731 504.175ZM182.753 505.649C182.313 505.649 181.939 505.66 181.631 505.682C181.323 505.704 180.993 505.737 180.641 505.781V514.504H183.127C184.11 514.504 184.847 514.35 185.338 514.042C185.829 513.734 186.075 513.25 186.075 512.59C186.075 512.025 185.928 511.604 185.635 511.325C185.342 511.039 184.971 510.848 184.524 510.753C184.077 510.65 183.618 510.599 183.149 510.599H180.289V509.147H183.028C183.791 509.147 184.399 509.022 184.854 508.773C185.309 508.516 185.536 508.047 185.536 507.365C185.536 506.734 185.305 506.291 184.843 506.034C184.381 505.777 183.684 505.649 182.753 505.649ZM209.114 504.175C210.074 504.175 210.907 504.292 211.611 504.527C212.315 504.762 212.857 505.103 213.239 505.55C213.627 505.99 213.822 506.536 213.822 507.189C213.822 507.79 213.657 508.307 213.327 508.74C212.997 509.165 212.384 509.492 211.49 509.719C212.487 509.814 213.228 510.097 213.712 510.566C214.196 511.028 214.438 511.699 214.438 512.579C214.438 513.386 214.214 514.042 213.767 514.548C213.319 515.047 212.725 515.413 211.985 515.648C211.251 515.883 210.441 516 209.554 516H205.176V504.571C205.784 504.461 206.415 504.369 207.068 504.296C207.728 504.215 208.41 504.175 209.114 504.175ZM209.136 505.649C208.696 505.649 208.322 505.66 208.014 505.682C207.706 505.704 207.376 505.737 207.024 505.781V514.504H209.51C210.492 514.504 211.229 514.35 211.721 514.042C212.212 513.734 212.458 513.25 212.458 512.59C212.458 512.025 212.311 511.604 212.018 511.325C211.724 511.039 211.354 510.848 210.907 510.753C210.459 510.65 210.001 510.599 209.532 510.599H206.672V509.147H209.411C210.173 509.147 210.782 509.022 211.237 508.773C211.691 508.516 211.919 508.047 211.919 507.365C211.919 506.734 211.688 506.291 211.226 506.034C210.764 505.777 210.067 505.649 209.136 505.649ZM235.034 500.611C235.988 500.611 236.802 500.794 237.476 501.161C238.158 501.528 238.683 502.03 239.049 502.668C239.416 503.306 239.599 504.028 239.599 504.835C239.599 505.532 239.478 506.214 239.236 506.881C238.994 507.541 238.606 508.238 238.07 508.971C237.542 509.697 236.846 510.504 235.98 511.391C235.122 512.278 234.066 513.29 232.812 514.427H239.951L239.72 516H230.711V514.493C231.855 513.4 232.827 512.443 233.626 511.622C234.433 510.801 235.097 510.082 235.617 509.466C236.145 508.843 236.556 508.278 236.849 507.772C237.15 507.266 237.359 506.786 237.476 506.331C237.594 505.869 237.652 505.392 237.652 504.901C237.652 504.05 237.41 503.379 236.926 502.888C236.45 502.397 235.79 502.151 234.946 502.151C234.198 502.151 233.586 502.279 233.109 502.536C232.633 502.793 232.156 503.203 231.679 503.768L230.403 502.778C231.005 502.045 231.672 501.502 232.405 501.15C233.139 500.791 234.015 500.611 235.034 500.611ZM248.897 500.611C250.532 500.611 251.768 501.286 252.604 502.635C253.44 503.984 253.858 505.913 253.858 508.421C253.858 510.936 253.44 512.872 252.604 514.229C251.768 515.578 250.532 516.253 248.897 516.253C247.269 516.253 246.033 515.578 245.19 514.229C244.354 512.872 243.936 510.936 243.936 508.421C243.936 505.913 244.354 503.984 245.19 502.635C246.033 501.286 247.269 500.611 248.897 500.611ZM248.897 502.096C247.966 502.096 247.232 502.591 246.697 503.581C246.162 504.564 245.894 506.177 245.894 508.421C245.894 509.558 245.953 510.529 246.07 511.336C246.187 512.143 246.367 512.799 246.609 513.305C246.858 513.804 247.17 514.17 247.544 514.405C247.925 514.64 248.376 514.757 248.897 514.757C249.528 514.757 250.067 514.541 250.514 514.108C250.969 513.675 251.313 512.993 251.548 512.062C251.79 511.123 251.911 509.91 251.911 508.421C251.911 506.91 251.805 505.689 251.592 504.758C251.387 503.827 251.06 503.152 250.613 502.734C250.173 502.309 249.601 502.096 248.897 502.096ZM251.13 502.635L251.614 504.252L246.796 514.009L246.114 512.722L251.13 502.635ZM263.705 500.853V515.56H261.857V502.855L258.381 504.967L257.578 503.647L262.088 500.853H263.705ZM266.873 514.493V516H258.128V514.493H266.873ZM274.708 500.611L276.248 501.26L272.222 510.841H280.307V512.315H270.264V510.973L274.708 500.611ZM278.349 506.54V516H276.567L276.556 511.193L276.809 506.54H278.349ZM300.387 516H298.539V504.417H306.602L306.382 505.968H300.387V516ZM314.876 504.175C315.969 504.175 316.882 504.424 317.615 504.923C318.356 505.414 318.909 506.111 319.276 507.013C319.65 507.915 319.837 508.978 319.837 510.203C319.837 511.384 319.646 512.429 319.265 513.338C318.884 514.247 318.323 514.962 317.582 515.483C316.849 515.996 315.939 516.253 314.854 516.253C313.769 516.253 312.856 516.004 312.115 515.505C311.374 515.006 310.813 514.306 310.432 513.404C310.058 512.495 309.871 511.435 309.871 510.225C309.871 509.03 310.062 507.977 310.443 507.068C310.824 506.159 311.385 505.451 312.126 504.945C312.874 504.432 313.791 504.175 314.876 504.175ZM314.876 505.682C313.879 505.682 313.123 506.052 312.61 506.793C312.104 507.526 311.851 508.67 311.851 510.225C311.851 511.75 312.1 512.883 312.599 513.624C313.105 514.365 313.857 514.735 314.854 514.735C315.851 514.735 316.599 514.365 317.098 513.624C317.604 512.883 317.857 511.743 317.857 510.203C317.857 508.663 317.608 507.526 317.109 506.793C316.61 506.052 315.866 505.682 314.876 505.682ZM332.368 504.417V514.493L331.422 516H323.799L322.798 514.493C323.15 514.185 323.44 513.807 323.667 513.36C323.902 512.913 324.096 512.282 324.25 511.468C324.404 510.654 324.529 509.55 324.624 508.157L324.888 504.417H332.368ZM330.487 505.924H326.56L326.428 508.025C326.362 509.088 326.278 509.983 326.175 510.709C326.08 511.428 325.955 512.025 325.801 512.502C325.655 512.971 325.464 513.36 325.229 513.668C325.002 513.969 324.72 514.244 324.382 514.493H330.487V505.924ZM322.017 514.493H324.591L324.657 516H323.876L323.557 519.234H322.017V514.493ZM333.215 514.493V519.234H331.686L331.356 516H330.586L330.641 514.493H333.215ZM346.484 504.417L342.414 516.077C342.142 516.862 341.798 517.58 341.38 518.233C340.969 518.886 340.43 519.425 339.763 519.85C339.103 520.283 338.263 520.55 337.244 520.653L336.958 519.179C337.757 519.047 338.388 518.845 338.85 518.574C339.312 518.303 339.675 517.954 339.939 517.529C340.21 517.104 340.448 516.594 340.654 516H340.038L335.99 504.417H337.97L341.292 514.592L344.57 504.417H346.484Z" fill="#2E358D"/>
</g>
<defs>
<clipPath id="clip0_2483_2">
<rect width="1440" height="900" fill="white"/>
</clipPath>
</defs>
</svg>
