<svg width="1440" height="900" viewBox="0 0 1440 900" fill="none" xmlns="http://www.w3.org/2000/svg">
<g clip-path="url(#clip0_2425_145)">
<path d="M187 92L1491.5 92" stroke="#2E358D" stroke-width="35.3357" stroke-linecap="round"/>
<path d="M189.117 171.707L1499.5 261" stroke="#2E358D" stroke-width="35.3357" stroke-linecap="round"/>
<path d="M416.181 121.994C416.181 176.367 416.181 257.174 416.181 308.945C416.181 360.716 445.354 396.051 463.843 448.644C482.332 501.237 469.596 544.79 416.181 617.927C362.767 691.064 412.757 835.283 463.843 924.855" stroke="#E84949" stroke-width="35.3357"/>
<path d="M494.57 121.583C494.57 175.956 494.57 256.763 494.57 308.534C494.57 360.305 523.742 395.64 542.232 448.233C560.721 500.826 547.984 544.379 494.57 617.516C441.155 690.652 491.146 834.871 542.232 924.443" stroke="#E84949" stroke-width="35.3357"/>
<path d="M652.347 122.405C652.347 176.778 652.347 257.585 652.347 309.356C652.347 361.127 681.52 396.463 700.009 449.055C718.498 501.648 705.762 545.201 652.347 618.338C598.933 691.475 648.923 835.694 700.009 925.266" stroke="#E84949" stroke-width="35.3357"/>
<path d="M731.236 122.405C731.236 176.778 731.236 257.585 731.236 309.356C731.236 361.127 760.408 396.463 778.898 449.055C797.387 501.648 784.651 545.201 731.236 618.338C677.821 691.475 727.812 835.694 778.898 925.266" stroke="#E84949" stroke-width="35.3357"/>
<path d="M889.015 122.405C889.015 176.778 889.015 257.585 889.015 309.356C889.015 361.127 918.188 396.463 936.677 449.055C955.166 501.648 942.43 545.201 889.015 618.338C835.601 691.475 885.591 835.694 936.677 925.266" stroke="#E84949" stroke-width="35.3357"/>
<path d="M517.729 277.51L500.094 335.191L576.479 358.545L565.187 395.48L488.802 372.126L462.374 458.57L410.664 442.761L477.264 224.923L620.447 268.698L603.859 303.842L517.729 277.51Z" fill="#2E358D"/>
<path d="M888.928 744.589L822.698 736.457L804.801 783.77L748.849 776.9L845.775 559.298L910.7 567.27L952.105 801.856L894.847 794.826L888.928 744.589ZM835.948 698.674L884.886 704.683L872.695 601.682L835.948 698.674Z" fill="#2E358D"/>
<path d="M967.081 122.405C967.081 176.778 967.081 257.585 967.081 309.356C967.081 361.127 996.254 396.463 1014.74 449.055C1033.23 501.648 1020.5 545.201 967.082 618.338C913.667 691.475 963.657 835.694 1014.74 925.266" stroke="#E84949" stroke-width="35.3357"/>
<path d="M838.993 271.879L850.526 309.6L805.575 323.343L849.062 465.582L894.013 451.839L905.593 489.718L764.139 532.964L752.559 495.086L797.51 481.343L754.023 339.104L709.072 352.847L697.539 315.126L838.993 271.879Z" fill="#2E358D"/>
<path d="M810.126 122.405C810.126 176.778 810.126 257.585 810.126 309.356C810.126 361.127 839.299 396.463 857.788 449.055C876.278 501.648 863.541 545.201 810.127 618.338C756.712 691.475 806.702 835.694 857.788 925.266" stroke="#E84949" stroke-width="35.3357"/>
<path d="M573.458 121.583C573.458 175.956 573.458 256.763 573.458 308.534C573.458 360.305 602.631 395.64 621.12 448.233C639.61 500.826 626.873 544.379 573.459 617.516C520.044 690.652 570.034 834.871 621.12 924.443" stroke="#E84949" stroke-width="35.3357"/>
<path d="M689.799 585.419C685.215 595.25 679.372 602.983 672.271 608.618C665.171 614.253 657.311 618.144 648.694 620.291C640.076 622.438 631.177 623.245 621.996 622.712L635.433 735.063L580.171 709.294L572.298 609.511L558.445 603.052L521.632 681.997L472.775 659.215L569.044 452.765L633.988 483.049C662.091 496.153 680.907 511.153 690.437 528.05C699.967 544.946 699.755 564.069 689.799 585.419ZM639.453 561.942C644.083 552.012 644.511 543.446 640.736 536.246C637.106 528.992 629.582 522.703 618.162 517.377L601.926 509.807L574.073 569.537L592.245 578.011C602.871 582.966 612.122 584.257 619.998 581.885C627.874 579.513 634.359 572.865 639.453 561.942Z" fill="#2E358D"/>
<path d="M622.943 529.588C632.394 504.524 627.627 473.133 626.641 467.545" stroke="#E84949" stroke-width="35.3357"/>
<path d="M1034.58 603.672C1033.27 606.202 1032.53 608.82 1032.36 611.527C1032.21 614.293 1032.35 617.176 1032.77 620.176L1016.74 622.539C1015.8 618.641 1015.56 614.336 1016.03 609.623C1016.47 604.949 1017.95 600.2 1020.45 595.374C1023.89 588.72 1028.23 583.684 1033.46 580.266C1038.72 576.869 1044.47 575.108 1050.7 574.984C1056.97 574.881 1063.37 576.452 1069.88 579.699C1076.39 582.946 1081.5 587.135 1085.21 592.265C1088.93 597.455 1091 603.186 1091.4 609.458C1091.78 615.77 1090.25 622.253 1086.8 628.908C1084.36 633.617 1081.53 637.468 1078.3 640.461C1075.09 643.512 1071.4 645.929 1067.21 647.713L1060.18 634.141C1062.76 632.783 1065.07 631.142 1067.1 629.218C1069.13 627.294 1070.8 625.067 1072.11 622.537C1074.27 618.373 1074.52 614.264 1072.87 610.209C1071.24 606.212 1066.92 602.463 1059.9 598.962C1055.31 596.674 1051.37 595.468 1048.08 595.344C1044.82 595.24 1042.09 595.935 1039.89 597.431C1037.7 598.984 1035.93 601.065 1034.58 603.672Z" fill="#2E358D"/>
<path d="M1075.91 683.539C1075.38 690.707 1073.4 696.681 1069.97 701.46C1066.54 706.24 1061.95 709.738 1056.21 711.956C1050.5 714.178 1043.94 714.989 1036.51 714.389C1028.78 713.764 1022.22 711.871 1016.83 708.71C1011.48 705.595 1007.51 701.405 1004.91 696.139C1002.31 690.873 1001.27 684.677 1001.8 677.553C1002.33 670.472 1004.24 664.515 1007.54 659.682C1010.84 654.892 1015.37 651.366 1021.12 649.104C1026.86 646.886 1033.62 646.091 1041.4 646.719C1048.78 647.316 1055.15 649.171 1060.5 652.285C1065.85 655.443 1069.88 659.661 1072.61 664.938C1075.34 670.258 1076.44 676.459 1075.91 683.539ZM1060.65 682.306C1060.96 678.066 1059.45 674.778 1056.1 672.442C1052.8 670.153 1047.37 668.703 1039.81 668.092C1032.13 667.471 1026.48 668.026 1022.88 669.758C1019.28 671.534 1017.32 674.541 1017 678.781C1016.69 683.021 1018.18 686.285 1021.49 688.574C1024.79 690.907 1030.32 692.388 1038.1 693.016C1045.61 693.623 1051.17 693.039 1054.77 691.263C1058.37 689.531 1060.33 686.546 1060.65 682.306Z" fill="#2E358D"/>
<path d="M1107.36 757.915L1107.8 778.761L1010.81 789.301L1008.51 771.037L1016.03 769.163C1013.09 767.543 1010.44 765.252 1008.08 762.291C1005.76 759.325 1004.32 755.581 1003.75 751.058C1003.03 745.318 1003.98 740.389 1006.59 736.269C1009.22 732.193 1013.18 728.92 1018.48 726.449C1023.82 724.016 1030.22 722.395 1037.67 721.586C1044.82 720.809 1051.3 721.229 1057.11 722.846C1062.92 724.462 1067.66 727.165 1071.31 730.955C1075.01 734.741 1077.22 739.482 1077.94 745.178C1078.33 748.266 1078.14 751.195 1077.39 753.966C1076.63 756.737 1075.34 759.28 1073.51 761.594L1107.36 757.915ZM1063.54 752.363C1063.09 748.797 1061.03 746.112 1057.36 744.307C1053.73 742.498 1048.01 742.016 1040.22 742.864C1034.51 743.484 1030.12 744.424 1027.05 745.683C1024.03 746.937 1021.99 748.437 1020.93 750.183C1019.87 751.929 1019.47 753.846 1019.73 755.933C1020.02 758.238 1021 760.247 1022.68 761.961C1024.35 763.718 1026.53 765.201 1029.2 766.409L1059.13 763.157C1060.74 761.527 1061.94 759.854 1062.74 758.136C1063.54 756.418 1063.8 754.494 1063.54 752.363Z" fill="#2E358D"/>
<path d="M1047.19 818.113C1043.61 819.471 1040.85 821.147 1038.93 823.142C1037.07 825.168 1035.9 827.453 1035.44 829.998C1035.03 832.532 1035.19 835.218 1035.94 838.057C1036.76 841.15 1038.06 844.014 1039.85 846.65C1041.63 849.285 1043.73 851.732 1046.14 853.991L1037.28 864.708C1033.71 862.186 1030.46 858.869 1027.51 854.756C1024.58 850.685 1022.35 845.768 1020.82 840.006C1018.78 832.294 1018.61 825.464 1020.3 819.514C1022.03 813.554 1025.26 808.609 1029.97 804.68C1034.69 800.751 1040.56 797.94 1047.59 796.248C1054.28 794.639 1060.69 794.449 1066.82 795.678C1072.99 796.898 1078.34 799.555 1082.86 803.648C1087.44 807.773 1090.67 813.374 1092.54 820.45C1094.24 826.89 1094.33 832.795 1092.81 838.165C1091.29 843.577 1088.28 848.201 1083.76 852.036C1079.26 855.914 1073.36 858.73 1066.08 860.483C1064.93 860.76 1063.68 861.015 1062.34 861.248C1061 861.524 1059.81 861.721 1058.75 861.84L1047.19 818.113ZM1078.99 823.711C1078.04 820.109 1075.97 817.519 1072.79 815.942C1069.61 814.364 1065.1 814.029 1059.27 814.937L1065.82 839.724C1070.75 838.492 1074.46 836.585 1076.95 834.003C1079.44 831.421 1080.12 827.99 1078.99 823.711Z" fill="#2E358D"/>
</g>
<defs>
<clipPath id="clip0_2425_145">
<rect width="1440" height="900" fill="white"/>
</clipPath>
</defs>
</svg>
