<svg width="1440" height="909" viewBox="0 0 1440 909" fill="none" xmlns="http://www.w3.org/2000/svg">
<g clip-path="url(#clip0_2426_169)">
<path d="M795.079 -95.6279C795.089 -95.614 795.102 -95.5975 795.116 -95.5781C795.145 -95.5389 795.181 -95.488 795.226 -95.4268C795.315 -95.3041 795.436 -95.1374 795.588 -94.9277C795.891 -94.5083 796.317 -93.9163 796.857 -93.1592C797.938 -91.6447 799.477 -89.4671 801.406 -86.6855C805.262 -81.1249 810.688 -73.1316 817.135 -63.1729C829.997 -43.3029 847.081 -15.3641 863.901 16.8691C896.276 78.9094 932.638 165.948 926.654 243.044C920.886 317.371 888.91 371.102 864.859 418.709C854.484 439.246 844.691 459.992 836.892 483H746.228C756.762 442.698 772.139 409.552 787.306 379.53C814.321 326.055 835.888 289.658 840.027 236.321C843.952 185.754 818.643 117.951 786.871 57.0664C771.618 27.8372 756.008 2.29096 744.195 -15.957C738.305 -25.0569 733.398 -32.2818 730.006 -37.1738C728.311 -39.6184 726.996 -41.4764 726.13 -42.6904C725.697 -43.297 725.376 -43.7425 725.176 -44.0195C725.076 -44.158 725.006 -44.2553 724.967 -44.3086L724.938 -44.3486C724.941 -44.3437 724.945 -44.3379 760 -70C794.799 -95.475 795.058 -95.6538 795.065 -95.6475C795.068 -95.644 795.074 -95.6349 795.079 -95.6279Z" fill="#E84949"/>
<path d="M957.283 -101.308C957.292 -101.294 957.302 -101.276 957.314 -101.257C957.339 -101.217 957.37 -101.166 957.408 -101.104C957.485 -100.978 957.591 -100.807 957.723 -100.591C957.987 -100.158 958.36 -99.545 958.833 -98.7598C959.78 -97.1893 961.131 -94.9272 962.825 -92.0371C966.213 -86.2593 970.983 -77.9537 976.647 -67.6201C987.953 -46.9961 1002.95 -18.0747 1017.66 15.1045C1046.11 79.2621 1077.33 167.513 1071.47 243.044C1065.7 317.435 1033.47 371.307 1009.25 418.986C998.849 439.457 989.033 460.123 981.198 483H890.462C901.08 442.761 916.543 409.634 931.783 379.634C959.009 326.04 980.707 289.593 984.842 236.321C988.888 184.188 966.181 113.348 938.233 50.3301C924.748 19.922 910.921 -6.76599 900.457 -25.8535C895.237 -35.3752 890.885 -42.9511 887.871 -48.0908C886.365 -50.6593 885.195 -52.6159 884.422 -53.8984C884.035 -54.5395 883.748 -55.0126 883.567 -55.3086C883.477 -55.4564 883.413 -55.5604 883.377 -55.6191C883.359 -55.648 883.348 -55.6661 883.344 -55.6729L883.347 -55.6689C883.35 -55.6648 883.525 -55.7655 920.308 -78.5C956.995 -101.176 957.265 -101.332 957.271 -101.326C957.274 -101.323 957.279 -101.314 957.283 -101.308Z" fill="#E84949"/>
<path d="M450.55 -126.773C450.562 -126.76 450.576 -126.743 450.594 -126.724C450.629 -126.684 450.675 -126.631 450.732 -126.566C450.847 -126.436 451.006 -126.255 451.207 -126.025C451.61 -125.565 452.185 -124.907 452.919 -124.061C454.387 -122.367 456.494 -119.914 459.146 -116.777C464.45 -110.506 471.946 -101.477 480.881 -90.2676C498.708 -67.9016 522.467 -36.5931 546.004 -0.992188C569.438 34.4528 593.277 75.0882 610.727 116.026C627.83 156.152 640.683 200.866 637.41 243.044C631.594 317.985 597.631 372.102 572.311 419.567C561.46 439.907 551.238 460.384 543.07 483H451.965C463.167 442.24 479.567 408.82 495.649 378.672C524.252 325.054 546.691 289.044 550.783 236.321C552.464 214.667 545.783 185.255 530.797 150.097C516.157 115.751 495.353 79.9441 473.524 46.9268C451.799 14.0652 429.675 -15.1103 412.936 -36.1123C404.587 -46.5866 397.629 -54.9634 392.799 -60.6758C390.385 -63.5304 388.506 -65.7155 387.254 -67.1602C386.628 -67.8822 386.159 -68.4194 385.859 -68.7617C385.71 -68.9325 385.602 -69.0551 385.538 -69.1279C385.506 -69.1643 385.485 -69.1888 385.475 -69.2002L385.471 -69.2041C385.483 -69.2083 386.016 -69.6729 418 -98C450.357 -126.657 450.527 -126.797 450.534 -126.791C450.537 -126.788 450.544 -126.78 450.55 -126.773Z" fill="#E84949"/>
<path d="M630.479 -99.1855L630.643 -98.9863C630.743 -98.8645 630.88 -98.6984 631.051 -98.4893C631.394 -98.0705 631.877 -97.4777 632.489 -96.7197C633.714 -95.2039 635.46 -93.0231 637.65 -90.2354C642.028 -84.6623 648.194 -76.6463 655.526 -66.6582C670.153 -46.7338 689.613 -18.7001 708.829 13.6484C727.972 45.8735 747.371 83.2098 761.404 121.666C775.276 159.679 784.991 201.69 781.841 242.282C775.984 317.75 740.183 372.391 713.685 419.9C702.357 440.21 691.708 460.591 683.185 483H591.676C603.5 441.726 620.866 407.941 637.802 377.577C667.895 323.622 691.163 287.755 695.214 235.559C697.017 212.319 691.518 183.611 679.782 151.452C668.208 119.736 651.606 87.4454 634.128 58.0234C616.724 28.7256 598.944 3.09146 585.486 -15.2402C578.777 -24.3802 573.188 -31.6405 569.323 -36.5605C567.392 -39.019 565.894 -40.8888 564.905 -42.1123C564.411 -42.7239 564.045 -43.1745 563.815 -43.4551C563.701 -43.5948 563.62 -43.6923 563.575 -43.7471L563.539 -43.791C563.552 -43.7938 564.102 -44.2408 596.999 -71.5C630.26 -99.061 630.456 -99.2107 630.463 -99.2041C630.466 -99.2005 630.473 -99.1922 630.479 -99.1855Z" fill="#E84949"/>
<path d="M572.976 159.291C574.683 158.566 575.884 157.656 576.578 156.561C577.306 155.48 577.622 154.241 577.527 152.847C577.441 151.475 577.056 149.983 576.371 148.369L574.361 143.633L561.241 149.202L563.043 153.447C563.52 154.57 564.053 155.599 564.644 156.535C565.244 157.494 565.935 158.277 566.717 158.884C567.509 159.514 568.408 159.877 569.416 159.974C570.456 160.085 571.643 159.857 572.976 159.291ZM592.547 148.831C594.465 148.017 595.587 146.823 595.912 145.249C596.271 143.689 595.915 141.647 594.843 139.121L593.339 135.578L582.079 140.358L583.731 144.251C584.784 146.73 585.999 148.326 587.378 149.038C588.766 149.773 590.489 149.704 592.547 148.831ZM577.553 171.341C574.746 172.533 572.191 172.982 569.887 172.691C567.583 172.399 565.507 171.541 563.661 170.117C561.814 168.693 560.158 166.871 558.691 164.651C557.234 162.454 555.945 160.034 554.823 157.392L547.974 141.255L596.593 120.617L603.13 136.017C604.192 138.519 604.984 140.971 605.507 143.371C606.062 145.785 606.228 148.061 606.003 150.198C605.802 152.326 605.104 154.223 603.907 155.89C602.744 157.571 600.981 158.913 598.619 159.915C596.678 160.739 594.82 161.045 593.046 160.832C591.296 160.609 589.676 160.013 588.189 159.043C586.724 158.064 585.456 156.864 584.383 155.442C584.837 157.292 585.012 159.233 584.908 161.264C584.838 163.309 584.241 165.218 583.117 166.992C582.003 168.79 580.149 170.239 577.553 171.341Z" fill="#FBF6EA"/>
<path d="M739.249 124.047L692.001 147.332L688.844 139.895L711.926 128.731C713.673 127.906 715.367 127.118 717.008 126.367C718.658 125.638 720.244 124.952 721.764 124.306C723.284 123.661 724.692 123.077 725.988 122.555C727.318 122.046 728.519 121.591 729.591 121.191L693.839 127.963L690.831 120.877L720.314 99.3368C719.338 99.8338 718.182 100.394 716.846 101.016C715.532 101.629 714.109 102.274 712.576 102.953C711.042 103.631 709.428 104.316 707.735 105.008C706.051 105.722 704.357 106.414 702.653 107.082L678.748 116.111L675.651 108.815L725.222 91.0022L729.361 100.754L699.847 121.438L735.094 114.26L739.249 124.047Z" fill="#FBF6EA"/>
<path d="M870.475 118.547C868.066 119.569 865.738 119.937 863.49 119.649C861.253 119.384 859.172 118.611 857.249 117.33C855.325 116.049 853.622 114.412 852.142 112.419L836.783 135.829L833.686 128.532L848.819 106.542L846.05 100.018L825.318 108.818L822.727 102.714L871.031 82.2102L876.302 94.6282C878.834 100.592 879.603 105.592 878.612 109.628C877.654 113.678 874.942 116.651 870.475 118.547ZM867.705 112.022C870.816 110.702 872.66 108.87 873.239 106.527C873.841 104.174 873.347 101.126 871.759 97.3846L868.781 90.3688L850.82 97.9926L853.799 105.008C855.268 108.47 857.111 110.861 859.328 112.183C861.569 113.495 864.361 113.442 867.705 112.022Z" fill="#FBF6EA"/>
<path d="M980.194 140.588L1029.99 124.407L1031.5 129.047L986.195 143.767L993.697 166.854L989.014 167.734L980.194 140.588Z" fill="#FBF6EA"/>
<path d="M1036.69 187.214L1001.58 194.678L1003.99 206.047L999.967 206.902L993.937 178.535L997.963 177.68L1000.59 190.055L1031.68 183.447L1029.13 171.445L1033.16 170.589L1036.69 187.214ZM1053.47 179.089C1053.72 180.282 1053.56 181.303 1052.99 182.152C1052.42 183.001 1051.62 183.534 1050.6 183.75C1049.51 183.983 1048.52 183.83 1047.62 183.293C1046.75 182.75 1046.19 181.882 1045.94 180.69C1045.7 179.571 1045.87 178.588 1046.44 177.739C1047.04 176.884 1047.89 176.341 1048.98 176.109C1050 175.892 1050.94 176.055 1051.81 176.598C1052.68 177.14 1053.23 177.971 1053.47 179.089Z" fill="#FBF6EA"/>
<path d="M1056.03 247.561L1051.02 249.759C1050.36 248.007 1049.89 246.173 1049.62 244.259C1049.35 242.344 1049.12 240.298 1048.93 238.122C1048.09 240.465 1046.86 242.269 1045.23 243.533C1043.64 244.795 1041.75 245.521 1039.57 245.711C1036.94 245.942 1034.54 245.578 1032.36 244.621C1030.21 243.661 1028.46 242.157 1027.11 240.107C1025.76 238.083 1024.95 235.54 1024.68 232.478C1024.55 230.984 1024.51 229.764 1024.55 228.817C1024.62 227.867 1024.77 226.936 1025 226.023C1024.46 225.433 1023.78 224.944 1022.96 224.557C1022.13 224.195 1021.29 224.052 1020.43 224.128C1019.39 224.218 1018.57 224.699 1017.96 225.568C1017.35 226.463 1017.13 227.961 1017.32 230.062L1017.96 237.427C1018.18 239.983 1017.92 242.34 1017.16 244.497C1016.41 246.679 1015.29 248.448 1013.8 249.802C1012.32 251.182 1010.57 251.959 1008.57 252.134C1004.7 252.473 1001.62 251.097 999.339 248.007C997.031 244.945 995.625 240.541 995.123 234.796C994.775 230.822 994.916 227.622 995.545 225.195C996.149 222.771 997.279 220.963 998.934 219.773C1000.57 218.61 1002.75 217.909 1005.48 217.67L1005.86 221.998C1004.19 222.144 1002.84 222.581 1001.81 223.309C1000.78 224.062 1000.07 225.297 999.683 227.014C999.272 228.733 999.203 231.149 999.475 234.262C999.743 237.325 1000.23 239.832 1000.94 241.785C1001.62 243.766 1002.54 245.215 1003.69 246.135C1004.84 247.054 1006.23 247.443 1007.85 247.301C1009.95 247.118 1011.43 246.006 1012.3 243.966C1013.16 241.927 1013.48 239.54 1013.24 236.807L1012.6 229.442C1012.32 226.253 1012.86 223.834 1014.22 222.185C1015.58 220.535 1017.22 219.627 1019.14 219.458C1020.36 219.352 1021.58 219.602 1022.8 220.209C1024.06 220.839 1025.23 221.833 1026.32 223.192C1027.29 220.888 1028.61 219.115 1030.29 217.871C1031.97 216.628 1034.08 215.895 1036.64 215.671C1039.25 215.443 1041.63 215.884 1043.79 216.996C1045.96 218.107 1047.73 219.763 1049.12 221.962C1050.52 224.161 1051.34 226.779 1051.61 229.816C1051.96 233.279 1052.33 236.026 1052.71 238.059C1053.12 240.114 1053.59 241.833 1054.12 243.215C1054.65 244.622 1055.29 246.071 1056.03 247.561ZM1047.88 230.027C1047.56 226.433 1046.39 223.884 1044.34 222.38C1042.3 220.901 1039.85 220.287 1036.99 220.537C1034.15 220.785 1031.85 221.841 1030.07 223.705C1028.32 225.567 1027.61 228.332 1027.93 232.002C1028.2 235.065 1029.29 237.328 1031.2 238.793C1033.12 240.258 1035.64 240.853 1038.78 240.578C1042.02 240.295 1044.42 239.269 1045.97 237.501C1047.52 235.733 1048.16 233.242 1047.88 230.027Z" fill="#FBF6EA"/>
<path d="M1054.08 278.943L1032.01 274.252C1033.83 276.222 1035.03 278.492 1035.63 281.06C1036.23 283.628 1036.28 286.081 1035.78 288.417C1034.95 292.343 1033.33 294.959 1030.92 296.266C1028.51 297.572 1025.51 297.842 1021.9 297.076L993.573 291.055L994.555 286.433L1023.71 292.629C1026.04 293.125 1027.9 292.859 1029.29 291.829C1030.68 290.799 1031.65 288.992 1032.2 286.408C1032.56 284.718 1032.52 283.036 1032.1 281.361C1031.68 279.687 1031.04 278.15 1030.2 276.749C1029.38 275.354 1028.52 274.21 1027.62 273.317L998.652 267.161L999.634 262.539L1054.5 274.202L1054.08 278.943Z" fill="#FBF6EA"/>
<path d="M985.975 328.742C985.562 327.219 985.428 325.492 985.574 323.563C985.72 321.634 986.041 319.908 986.535 318.386C987.776 314.568 989.764 311.902 992.5 310.387C995.228 308.896 998.127 308.649 1001.2 309.646L1025.51 317.548L1028.44 308.559L1032.2 309.784L1029.28 318.772L1038.06 321.622L1037.14 326.293L1027.82 323.267L1023.47 336.677L1019.9 334.836L1024.05 322.042L999.844 314.175C997.645 313.461 995.75 313.499 994.157 314.291C992.58 315.114 991.333 316.939 990.414 319.766C989.943 321.216 989.677 322.612 989.614 323.954C989.552 325.296 989.626 326.589 989.837 327.833L985.975 328.742Z" fill="#FBF6EA"/>
<path d="M859.055 143.035C856.165 144.165 853.957 145.556 852.431 147.21C850.929 148.856 850.019 150.661 849.701 152.624C849.407 154.58 849.595 156.53 850.265 158.476C850.934 160.422 851.827 162.076 852.941 163.439C854.063 164.826 855.474 166.154 857.174 167.422L854.154 171.646C852.149 170.348 850.357 168.695 848.779 166.686C847.209 164.701 846.014 162.519 845.195 160.141C843.93 156.465 843.679 153.045 844.443 149.88C845.207 146.715 846.831 143.939 849.314 141.553C851.83 139.182 855.045 137.322 858.961 135.974C862.804 134.651 866.451 134.161 869.901 134.504C873.351 134.848 876.355 135.963 878.913 137.85C881.47 139.737 883.328 142.362 884.486 145.725C885.586 148.92 885.776 151.931 885.057 154.758C884.362 157.577 882.832 160.079 880.467 162.263C878.135 164.464 875.047 166.226 871.203 167.549C870.555 167.772 869.938 167.971 869.353 168.146C868.792 168.312 868.288 168.446 867.839 168.546L859.055 143.035ZM879.538 147.509C878.57 144.699 876.763 142.688 874.116 141.477C871.477 140.29 868.022 140.284 863.751 141.459L870.563 161.24C874.597 159.77 877.342 157.831 878.797 155.423C880.275 153.006 880.522 150.368 879.538 147.509Z" fill="#FBF6EA"/>
<path d="M912.605 204.905L907.363 208.469C906.381 206.98 905.563 205.325 904.909 203.504C904.254 201.683 903.616 199.686 902.992 197.512C902.604 200.029 901.753 202.083 900.438 203.676C899.149 205.261 897.405 206.369 895.207 207C892.667 207.728 890.244 207.802 887.936 207.221C885.629 206.641 883.602 205.425 881.855 203.573C880.116 201.746 878.808 199.306 877.933 196.254C877.562 194.959 877.311 193.855 877.181 192.941C877.058 192.051 877.003 191.168 877.016 190.292C876.458 189.818 875.78 189.484 874.984 189.289C874.196 189.119 873.435 189.139 872.702 189.349C871.774 189.615 871.11 190.202 870.709 191.11C870.309 192.017 870.392 193.46 870.96 195.438L872.955 202.399C873.698 204.987 873.899 207.44 873.559 209.758C873.226 212.1 872.447 214.081 871.22 215.701C870 217.346 868.389 218.456 866.386 219.03C862.601 220.116 859.232 219.337 856.281 216.695C853.337 214.077 851.024 209.837 849.344 203.976C848.167 199.873 847.667 196.515 847.842 193.901C847.993 191.294 848.789 189.229 850.228 187.706C851.651 186.214 853.669 185.094 856.282 184.345L857.878 189.913C856.389 190.34 855.239 190.987 854.431 191.853C853.622 192.719 853.206 193.988 853.183 195.66C853.136 197.338 853.525 199.618 854.352 202.5C855.164 205.333 856.07 207.571 857.07 209.214C858.052 210.888 859.142 212.016 860.339 212.597C861.519 213.21 862.805 213.317 864.197 212.918C866.029 212.393 867.171 211.167 867.623 209.24C868.074 207.313 867.943 205.104 867.229 202.613L865.254 195.727C864.302 192.405 864.331 189.741 865.341 187.733C866.358 185.75 867.819 184.485 869.724 183.939C870.969 183.582 872.28 183.59 873.655 183.962C875.037 184.358 876.38 185.123 877.683 186.256C878.218 183.697 879.202 181.644 880.634 180.097C882.067 178.55 884.017 177.422 886.483 176.715C889.097 175.966 891.59 175.951 893.964 176.671C896.362 177.384 898.467 178.737 900.28 180.727C902.094 182.718 903.434 185.228 904.303 188.256C905.258 191.497 906.149 194.096 906.974 196.053C907.824 198.003 908.7 199.629 909.602 200.929C910.51 202.255 911.511 203.58 912.605 204.905ZM899.797 189.548C898.907 186.447 897.407 184.393 895.294 183.386C893.214 182.397 890.879 182.274 888.29 183.016C885.677 183.765 883.745 185.139 882.494 187.136C881.243 189.133 881.066 191.695 881.962 194.821C882.747 197.556 884.135 199.404 886.129 200.366C888.13 201.351 890.546 201.438 893.379 200.626C896.285 199.792 898.277 198.442 899.353 196.574C900.461 194.723 900.609 192.381 899.797 189.548Z" fill="#FBF6EA"/>
<path d="M900.459 233.916L872.034 233.42C869.392 233.374 867.477 233.887 866.29 234.959C865.102 236.031 864.488 237.722 864.448 240.034C864.409 242.244 864.995 244.338 866.206 246.315C867.441 248.319 868.913 249.882 870.622 251.004L900.151 251.52L900.04 257.921L859.917 257.221L860.012 251.772L865.432 251.333C863.428 249.723 861.899 247.752 860.847 245.421C859.821 243.091 859.328 240.745 859.369 238.383C859.437 234.496 860.517 231.605 862.608 229.711C864.724 227.842 867.649 226.94 871.384 227.005L900.57 227.515L900.459 233.916Z" fill="#FBF6EA"/>
<path d="M910.661 288.623L865.471 278.191C863.541 277.745 862.03 278.022 860.938 279.021C859.866 280.052 859.11 281.52 858.67 283.426C858.396 284.614 858.259 285.769 858.261 286.89C858.263 288.012 858.351 289.154 858.527 290.315L853.574 290.932C853.299 289.747 853.147 288.317 853.117 286.641C853.056 284.985 853.254 283.166 853.712 281.186C854.512 277.72 856.113 275.131 858.517 273.417C860.945 271.709 863.854 271.247 867.246 272.03L907.163 281.245L909.932 269.252L914.87 270.392L910.661 288.623Z" fill="#FBF6EA"/>
<path d="M847.71 333.472C846.179 333.004 844.984 332.918 844.123 333.213C843.263 333.507 842.499 334.137 841.832 335.102L837.988 332.293C838.712 330.708 839.677 329.422 840.881 328.436C842.111 327.457 843.661 326.948 845.532 326.909C844.182 324.982 843.361 322.845 843.069 320.497C842.802 318.157 843.051 315.736 843.816 313.234C844.989 309.395 846.995 306.701 849.833 305.151C852.672 303.601 855.877 303.372 859.448 304.464C863.408 305.675 865.973 308.146 867.144 311.878C868.314 315.609 868.008 320.391 866.225 326.222L864.498 331.871L867.705 332.851C870.475 333.698 872.68 333.482 874.319 332.203C875.976 330.956 877.242 328.899 878.119 326.032C878.505 324.769 878.8 323.239 879.004 321.441C879.233 319.652 879.299 317.653 879.204 315.445L884.322 315.257C884.476 317.881 884.42 320.281 884.153 322.458C883.886 324.634 883.467 326.658 882.895 328.529C881.431 333.315 879.218 336.557 876.255 338.254C873.309 339.984 869.928 340.265 866.114 339.099L847.71 333.472ZM848.001 316.227C847.422 318.122 847.342 320.077 847.762 322.091C848.207 324.114 849.109 325.943 850.468 327.581L860.344 330.6L862.037 325.061C863.33 320.833 863.515 317.622 862.592 315.427C861.661 313.257 859.969 311.796 857.515 311.046C855.134 310.318 853.139 310.372 851.528 311.208C849.935 312.076 848.759 313.749 848.001 316.227Z" fill="#FBF6EA"/>
<path d="M833.359 341.119L838.007 342.719L835.972 348.629L864.618 358.492L866.653 352.583L871.301 354.183L867.678 364.705L858.321 362.732C860.94 365.273 862.742 367.882 863.728 370.559C864.714 373.236 864.615 376.292 863.432 379.727C863.069 380.784 862.662 381.692 862.212 382.451C861.779 383.242 861.293 384.029 860.755 384.811L855.958 381.184C856.447 380.466 856.852 379.799 857.171 379.184C857.514 378.576 857.831 377.852 858.12 377.012C859.121 374.105 858.948 371.251 857.602 368.45C856.256 365.649 853.708 362.904 849.958 360.216L833.888 354.682L831.233 362.393L826.585 360.793L833.359 341.119ZM849.937 374.557L858.189 377.398L862.554 379.586L860.755 384.811L848.225 379.529L849.937 374.557Z" fill="#FBF6EA"/>
<path d="M713.984 158.9C711.412 159.872 709.433 161.088 708.046 162.548C706.684 164.001 705.848 165.611 705.538 167.38C705.236 169.172 705.368 170.992 705.932 172.838C706.511 174.733 707.338 176.393 708.411 177.819C709.484 179.244 710.804 180.607 712.371 181.908L708.568 186.936C706.561 185.584 704.752 183.839 703.142 181.701C701.532 179.563 700.308 177.121 699.468 174.376C698.25 170.392 698.068 166.755 698.922 163.465C699.783 160.2 701.513 157.386 704.112 155.024C706.711 152.662 710.002 150.872 713.987 149.654C717.85 148.473 721.515 148.123 724.983 148.603C728.475 149.076 731.509 150.354 734.085 152.436C736.685 154.51 738.542 157.369 739.656 161.013C740.703 164.439 740.825 167.617 740.02 170.546C739.223 173.499 737.595 176.083 735.137 178.295C732.71 180.525 729.492 182.253 725.484 183.478C724.828 183.679 724.164 183.855 723.493 184.007C722.854 184.176 722.284 184.31 721.784 184.41L713.984 158.9ZM733.629 162.936C732.849 160.385 731.292 158.55 728.957 157.43C726.63 156.335 723.494 156.245 719.549 157.159L724.997 174.979C728.595 173.8 731.139 172.172 732.63 170.096C734.128 168.044 734.461 165.657 733.629 162.936Z" fill="#FBF6EA"/>
<path d="M766.164 214.174L766.558 222.754L710.852 231.577L709.678 224.162L714.475 222.785C712.379 221.728 710.667 220.34 709.34 218.621C708.013 216.902 707.165 214.876 706.795 212.542C706.255 209.129 706.675 206.182 708.057 203.699C709.464 201.213 711.65 199.182 714.616 197.606C717.611 196.051 721.178 194.946 725.318 194.29C729.358 193.651 733.046 193.71 736.381 194.467C739.742 195.221 742.51 196.622 744.687 198.669C746.863 200.717 748.211 203.384 748.732 206.671C749.062 208.754 748.982 210.683 748.491 212.459C748.026 214.23 747.192 215.867 745.989 217.369L766.164 214.174ZM742.61 209.918C742.161 207.082 740.632 205.061 738.022 203.853C735.438 202.642 731.675 202.428 726.731 203.211C723.344 203.747 720.635 204.511 718.606 205.501C716.601 206.487 715.194 207.675 714.386 209.063C713.602 210.448 713.347 212.006 713.621 213.737C713.923 215.644 714.737 217.213 716.064 218.443C717.391 219.674 718.909 220.655 720.62 221.387L739.44 218.406C740.69 217.205 741.588 215.893 742.134 214.469C742.706 213.041 742.864 211.524 742.61 209.918Z" fill="#FBF6EA"/>
<path d="M747.799 269.993L714.137 265.262L712.615 276.092L706.426 275.223L710.812 244.014L717.001 244.883L715.325 256.808L742.798 260.67L744.421 249.122L750.61 249.992L747.799 269.993ZM768.137 266.848C767.904 268.508 767.213 269.771 766.065 270.636C764.914 271.526 763.584 271.865 762.074 271.652C760.565 271.44 759.367 270.746 758.48 269.57C757.59 268.418 757.262 267.012 757.495 265.352C757.721 263.742 758.423 262.493 759.599 261.607C760.776 260.72 762.119 260.383 763.628 260.595C765.138 260.807 766.323 261.5 767.184 262.673C768.046 263.846 768.363 265.237 768.137 266.848Z" fill="#FBF6EA"/>
<path d="M741.054 301.432L713.888 294.153C711.581 293.535 709.815 293.548 708.59 294.193C707.359 294.862 706.493 296.13 705.994 297.995C705.52 299.762 705.591 301.609 706.205 303.535C706.82 305.462 707.76 307.108 709.025 308.473L737.148 316.008L734.939 324.254L696.067 313.838L697.971 306.734L703.078 307.55C701.527 305.583 700.533 303.357 700.094 300.872C699.679 298.394 699.781 296.001 700.399 293.695C701.405 289.94 703.189 287.406 705.75 286.094C708.329 284.812 711.435 284.658 715.067 285.631L743.263 293.186L741.054 301.432Z" fill="#FBF6EA"/>
<path d="M717.294 371.625C716.699 373.028 715.859 374.162 714.774 375.026C713.69 375.891 712.253 376.316 710.465 376.302C708.667 376.312 706.4 375.736 703.664 374.574L676.127 362.885L679.09 355.905L705.539 367.132C707.481 367.956 708.932 368.406 709.893 368.483C710.844 368.583 711.557 368.072 712.034 366.949C712.411 366.061 712.513 365.041 712.339 363.891C712.188 362.75 711.645 361.43 710.709 359.928L682.47 347.942L685.165 341.592L711.615 352.82C713.556 353.644 715.007 354.094 715.968 354.171C716.919 354.271 717.633 353.76 718.109 352.637C718.496 351.725 718.603 350.694 718.429 349.543C718.268 348.426 717.72 347.117 716.784 345.616L688.545 333.629L691.523 326.614L728.567 342.338L726.05 348.266L721.828 347.095C722.855 348.772 723.561 350.425 723.947 352.051C724.356 353.688 724.188 355.383 723.444 357.137C722.848 358.54 721.957 359.666 720.769 360.514C719.581 361.362 717.995 361.683 716.013 361.476C716.98 363.101 717.617 364.752 717.927 366.428C718.26 368.115 718.049 369.847 717.294 371.625Z" fill="#FBF6EA"/>
<path d="M605.016 193.653C605.74 197.756 605.48 201.401 604.235 204.587C602.991 207.773 600.915 210.41 598.007 212.496C595.123 214.578 591.555 215.994 587.302 216.744C582.873 217.525 578.921 217.422 575.445 216.436C571.998 215.47 569.171 213.698 566.962 211.121C564.753 208.543 563.289 205.216 562.57 201.138C561.856 197.084 562.08 193.459 563.245 190.261C564.414 187.088 566.451 184.446 569.354 182.334C572.263 180.248 575.944 178.812 580.397 178.027C584.626 177.281 588.463 177.391 591.91 178.357C595.361 179.348 598.228 181.126 600.512 183.69C602.8 186.279 604.302 189.6 605.016 193.653ZM596.272 195.195C595.844 192.768 594.525 191.143 592.317 190.32C590.137 189.518 586.883 189.498 582.555 190.261C578.151 191.038 575.063 192.176 573.289 193.675C571.52 195.2 570.849 197.175 571.277 199.602C571.705 202.029 573.009 203.644 575.188 204.446C577.372 205.274 580.691 205.295 585.144 204.509C589.448 203.751 592.484 202.609 594.253 201.085C596.027 199.585 596.7 197.622 596.272 195.195Z" fill="#FBF6EA"/>
<path d="M625.237 248.96L581.653 244.379C580.035 244.209 578.825 244.542 578.022 245.377C577.242 246.24 576.767 247.48 576.597 249.098C576.488 250.133 576.497 251.143 576.623 252.127C576.775 253.114 576.971 254.042 577.212 254.91L568.912 256.95C568.348 255.511 567.902 253.804 567.573 251.828C567.244 249.852 567.214 247.588 567.482 245.036C567.992 240.185 569.756 236.768 572.775 234.786C575.818 232.807 579.69 232.064 584.389 232.558L618.31 236.123L619.557 224.261L627.743 225.121L625.237 248.96Z" fill="#FBF6EA"/>
<path d="M614.055 307.052L609.137 318.116L555.352 300.64L558.649 290.492L563.078 291.29C561.926 289.74 561.092 287.907 560.578 285.789C560.088 283.68 560.251 281.369 561.068 278.856C562.104 275.667 563.821 273.3 566.22 271.755C568.611 270.234 571.509 269.453 574.915 269.411C578.338 269.401 582.115 270.068 586.247 271.41C590.209 272.698 593.525 274.456 596.193 276.685C598.861 278.915 600.692 281.46 601.686 284.32C602.704 287.189 602.699 290.206 601.67 293.371C601.113 295.087 600.293 296.583 599.21 297.861C598.127 299.138 596.817 300.169 595.281 300.952L614.055 307.052ZM592.297 293.732C592.941 291.75 592.517 289.849 591.025 288.029C589.557 286.216 586.66 284.607 582.335 283.202C579.17 282.173 576.623 281.626 574.694 281.561C572.79 281.503 571.342 281.807 570.351 282.473C569.359 283.14 568.675 284.053 568.299 285.213C567.882 286.493 567.904 287.783 568.364 289.081C568.816 290.403 569.597 291.698 570.707 292.967L587.307 298.361C588.557 297.885 589.605 297.291 590.451 296.578C591.297 295.864 591.913 294.915 592.297 293.732Z" fill="#FBF6EA"/>
</g>
<defs>
<clipPath id="clip0_2426_169">
<rect width="1440" height="909" fill="white"/>
</clipPath>
</defs>
</svg>
