<svg width="1440" height="1030" viewBox="0 0 1440 1030" fill="none" xmlns="http://www.w3.org/2000/svg">
<g clip-path="url(#clip0_2434_2)">
<path d="M-47.4369 153.278C-60.5081 150.496 -73.9532 153.094 -84.8639 160.787C-95.7717 168.463 -103.251 180.605 -105.608 194.254C-107.965 207.904 -104.992 221.861 -97.2928 232.769C-89.5968 243.694 -77.8058 250.675 -64.5631 252.464C-49.5454 254.5 -34.5278 256.537 -19.5102 258.573C250.807 295.226 521.125 331.879 791.442 368.532C806.46 370.568 821.478 372.604 836.495 374.64C840.677 375.205 844.981 374.047 848.445 371.512C851.91 368.971 854.251 365.26 854.968 361.106C855.685 356.952 854.725 352.668 852.314 349.106C849.902 345.55 846.237 343.008 842.109 342.129C842.109 342.129 842.109 342.129 842.109 342.129C827.283 338.982 812.457 335.834 797.632 332.687C530.768 276.031 263.904 219.376 -2.95964 162.721C-17.7854 159.573 -32.6112 156.426 -47.4369 153.278Z" fill="#2E358D"/>
<path d="M-41.4369 397.278C-54.5081 394.496 -67.9532 397.094 -78.8639 404.787C-89.7717 412.463 -97.2514 424.605 -99.6083 438.254C-101.965 451.904 -98.9917 465.861 -91.2928 476.769C-83.5968 487.694 -71.8058 494.675 -58.5631 496.464C-43.5454 498.5 -28.5278 500.537 -13.5102 502.573C256.807 539.226 527.125 575.879 797.442 612.532C812.46 614.568 827.478 616.604 842.495 618.64C846.677 619.205 850.981 618.047 854.445 615.512C857.91 612.971 860.251 609.26 860.968 605.106C861.685 600.952 860.725 596.668 858.314 593.106C855.902 589.55 852.237 587.008 848.109 586.129C848.109 586.129 848.109 586.129 848.109 586.129C833.283 582.982 818.457 579.834 803.632 576.687C536.768 520.031 269.904 463.376 3.04036 406.721C-11.7854 403.573 -26.6112 400.426 -41.4369 397.278Z" fill="#2E358D"/>
<path d="M628.753 349.713C623.386 387.206 584.565 436.431 628.753 516.004C683.987 615.47 746.601 688.25 693.827 846.822C641.052 1005.39 75.3082 894.56 -72.5 887.5" stroke="#E84949" stroke-width="26"/>
<path d="M1494.35 567.617C1507.55 565.53 1520.83 568.836 1531.32 577.095C1541.81 585.337 1548.64 597.857 1550.27 611.613C1551.9 625.368 1548.19 639.148 1539.93 649.634C1531.66 660.136 1519.52 666.484 1506.2 667.57C1491.1 668.809 1475.99 670.049 1460.89 671.288C1189.01 693.593 917.133 715.898 645.256 738.202C630.151 739.442 615.047 740.681 599.943 741.92C595.737 742.263 591.5 740.879 588.175 738.164C584.849 735.443 582.708 731.614 582.212 727.428C581.715 723.241 582.9 719.014 585.497 715.585C588.093 712.161 591.888 709.817 596.056 709.158C596.056 709.158 596.056 709.158 596.056 709.158C611.028 706.799 625.999 704.44 640.971 702.081C910.458 659.618 1179.94 617.156 1449.43 574.694C1464.4 572.335 1479.37 569.976 1494.35 567.617Z" fill="#2E358D"/>
<path d="M742.512 366.871C739.399 400.855 710.283 450.992 754.211 530.611C809.122 630.134 871.369 702.957 818.903 861.621C795.466 932.5 750 953.5 675.5 1046.5" stroke="#E84949" stroke-width="26"/>
<path d="M1463.74 276.278C1476.81 273.496 1490.26 276.094 1501.17 283.787C1512.07 291.463 1519.55 303.605 1521.91 317.254C1524.27 330.904 1521.29 344.861 1513.6 355.769C1505.9 366.694 1494.11 373.675 1480.87 375.464C1465.85 377.5 1450.83 379.537 1435.81 381.573C1165.5 418.226 895.178 454.879 624.86 491.532C609.843 493.568 594.825 495.604 579.808 497.64C575.626 498.205 571.321 497.047 567.857 494.512C564.393 491.971 562.052 488.26 561.335 484.106C560.617 479.952 561.578 475.668 563.989 472.106C566.401 468.55 570.066 466.008 574.194 465.129C574.194 465.129 574.194 465.129 574.194 465.129C589.02 461.982 603.846 458.834 618.671 455.687C885.535 399.031 1152.4 342.376 1419.26 285.721C1434.09 282.573 1448.91 279.426 1463.74 276.278Z" fill="#2E358D"/>
<path d="M681.592 359.871C676.469 398.698 644.618 449.041 688.638 528.637C743.663 628.132 806.04 700.933 753.465 859.551C700.891 1018.17 528 1005 -101.5 951" stroke="#E84949" stroke-width="26"/>
<path d="M-30.4369 641.407C-43.5081 638.625 -56.9532 641.223 -67.8639 648.916C-78.7717 656.592 -86.2514 668.733 -88.6083 682.383C-90.9651 696.033 -87.9917 709.99 -80.2928 720.898C-72.5968 731.823 -60.8058 738.804 -47.5631 740.593C-32.5454 742.629 -17.5278 744.666 -2.51017 746.702C267.807 783.355 538.125 820.008 808.442 856.66C823.46 858.697 838.478 860.733 853.495 862.769C857.677 863.334 861.981 862.176 865.445 859.641C868.91 857.1 871.251 853.389 871.968 849.235C872.685 845.081 871.725 840.797 869.314 837.235C866.902 833.679 863.237 831.137 859.109 830.258C859.109 830.258 859.109 830.258 859.109 830.258C844.283 827.111 829.457 823.963 814.632 820.816C547.768 764.16 280.904 707.505 14.0404 650.85C-0.785391 647.702 -15.6112 644.555 -30.4369 641.407Z" fill="#2E358D"/>
</g>
<defs>
<clipPath id="clip0_2434_2">
<rect width="1440" height="1030" fill="white"/>
</clipPath>
</defs>
</svg>
