<svg width="1440" height="1030" viewBox="0 0 1440 1030" fill="none" xmlns="http://www.w3.org/2000/svg">
<g clip-path="url(#clip0_2434_2)">
<path d="M-47.4369 153.278C-60.5081 150.496 -73.9532 153.094 -84.8639 160.787C-95.7717 168.463 -103.251 180.605 -105.608 194.254C-107.965 207.904 -104.992 221.861 -97.2928 232.769C-89.5968 243.694 -77.8058 250.675 -64.5631 252.464C-49.5454 254.5 -34.5278 256.537 -19.5102 258.573C250.807 295.226 521.125 331.879 791.442 368.532C806.46 370.568 821.478 372.604 836.495 374.64C840.677 375.205 844.981 374.047 848.445 371.512C851.91 368.971 854.251 365.26 854.968 361.106C855.685 356.952 854.725 352.668 852.314 349.106C849.902 345.55 846.237 343.008 842.109 342.129C842.109 342.129 842.109 342.129 842.109 342.129C827.283 338.982 812.457 335.834 797.632 332.687C530.768 276.031 263.904 219.376 -2.95964 162.721C-17.7854 159.573 -32.6112 156.426 -47.4369 153.278Z" fill="#2E358D"/>
<path d="M-41.4369 397.278C-54.5081 394.496 -67.9532 397.094 -78.8639 404.787C-89.7717 412.463 -97.2514 424.605 -99.6083 438.254C-101.965 451.904 -98.9917 465.861 -91.2928 476.769C-83.5968 487.694 -71.8058 494.675 -58.5631 496.464C-43.5454 498.5 -28.5278 500.537 -13.5102 502.573C256.807 539.226 527.125 575.879 797.442 612.532C812.46 614.568 827.478 616.604 842.495 618.64C846.677 619.205 850.981 618.047 854.445 615.512C857.91 612.971 860.251 609.26 860.968 605.106C861.685 600.952 860.725 596.668 858.314 593.106C855.902 589.55 852.237 587.008 848.109 586.129C848.109 586.129 848.109 586.129 848.109 586.129C833.283 582.982 818.457 579.834 803.632 576.687C536.768 520.031 269.904 463.376 3.04036 406.721C-11.7854 403.573 -26.6112 400.426 -41.4369 397.278Z" fill="#2E358D"/>
<path d="M628.753 349.713C623.386 387.206 584.565 436.431 628.753 516.004C683.987 615.47 746.601 688.25 693.827 846.822C641.052 1005.39 75.3082 894.56 -72.5 887.5" stroke="#E84949" stroke-width="26"/>
<path d="M1494.35 567.617C1507.55 565.53 1520.83 568.836 1531.32 577.095C1541.81 585.337 1548.64 597.857 1550.27 611.613C1551.9 625.368 1548.19 639.148 1539.93 649.634C1531.66 660.136 1519.52 666.484 1506.2 667.57C1491.1 668.809 1475.99 670.049 1460.89 671.288C1189.01 693.593 917.133 715.898 645.256 738.202C630.151 739.442 615.047 740.681 599.943 741.92C595.737 742.263 591.5 740.879 588.175 738.164C584.849 735.443 582.708 731.614 582.212 727.428C581.715 723.241 582.9 719.014 585.497 715.585C588.093 712.161 591.888 709.817 596.056 709.158C596.056 709.158 596.056 709.158 596.056 709.158C611.028 706.799 625.999 704.44 640.971 702.081C910.458 659.618 1179.94 617.156 1449.43 574.694C1464.4 572.335 1479.37 569.976 1494.35 567.617Z" fill="#2E358D"/>
<path d="M742.512 366.871C739.399 400.855 710.283 450.992 754.211 530.611C809.122 630.134 871.369 702.957 818.903 861.621C795.466 932.5 750 953.5 675.5 1046.5" stroke="#E84949" stroke-width="26"/>
<path d="M1463.74 276.278C1476.81 273.496 1490.26 276.094 1501.17 283.787C1512.07 291.463 1519.55 303.605 1521.91 317.254C1524.27 330.904 1521.29 344.861 1513.6 355.769C1505.9 366.694 1494.11 373.675 1480.87 375.464C1465.85 377.5 1450.83 379.537 1435.81 381.573C1165.5 418.226 895.178 454.879 624.86 491.532C609.843 493.568 594.825 495.604 579.808 497.64C575.626 498.205 571.321 497.047 567.857 494.512C564.393 491.971 562.052 488.26 561.335 484.106C560.617 479.952 561.578 475.668 563.989 472.106C566.401 468.55 570.066 466.008 574.194 465.129C574.194 465.129 574.194 465.129 574.194 465.129C589.02 461.982 603.846 458.834 618.671 455.687C885.535 399.031 1152.4 342.376 1419.26 285.721C1434.09 282.573 1448.91 279.426 1463.74 276.278Z" fill="#2E358D"/>
<path d="M681.592 359.871C676.469 398.698 644.618 449.041 688.638 528.637C743.663 628.132 806.04 700.933 753.465 859.551C700.891 1018.17 528 1005 -101.5 951" stroke="#E84949" stroke-width="26"/>
<path d="M-30.4369 641.407C-43.5081 638.625 -56.9532 641.223 -67.8639 648.916C-78.7717 656.592 -86.2514 668.733 -88.6083 682.383C-90.9651 696.033 -87.9917 709.99 -80.2928 720.898C-72.5968 731.823 -60.8058 738.804 -47.5631 740.593C-32.5454 742.629 -17.5278 744.666 -2.51017 746.702C267.807 783.355 538.125 820.008 808.442 856.66C823.46 858.697 838.478 860.733 853.495 862.769C857.677 863.334 861.981 862.176 865.445 859.641C868.91 857.1 871.251 853.389 871.968 849.235C872.685 845.081 871.725 840.797 869.314 837.235C866.902 833.679 863.237 831.137 859.109 830.258C859.109 830.258 859.109 830.258 859.109 830.258C844.283 827.111 829.457 823.963 814.632 820.816C547.768 764.16 280.904 707.505 14.0404 650.85C-0.785391 647.702 -15.6112 644.555 -30.4369 641.407Z" fill="#2E358D"/>
<path d="M181.192 232.513C183.133 232.886 184.592 233.663 185.569 234.843C186.549 236.009 187.126 237.5 187.302 239.317C187.48 241.12 187.342 243.178 186.887 245.492C186.452 247.708 185.752 249.622 184.788 251.234C183.824 252.846 182.62 254.031 181.176 254.788C179.735 255.532 178.072 255.722 176.186 255.36C173.815 254.904 172.079 253.707 170.977 251.77L168.94 262.14L164.853 261.85L170.9 231.073L174.331 231.733L174.043 234.74C175.081 233.775 176.213 233.101 177.44 232.719C178.666 232.336 179.917 232.268 181.192 232.513ZM179.557 235.455C178.42 235.236 177.347 235.389 176.337 235.914C175.33 236.425 174.457 237.062 173.717 237.826L171.635 248.424C172.029 249.348 172.582 250.123 173.293 250.749C174.008 251.361 174.857 251.761 175.841 251.951C177.561 252.281 178.988 251.866 180.122 250.703C181.26 249.528 182.108 247.52 182.666 244.68C183.038 242.782 183.171 241.19 183.064 239.904C182.96 238.604 182.613 237.588 182.023 236.857C181.446 236.128 180.624 235.66 179.557 235.455ZM214.495 239.457L202.514 260.013C201.683 261.464 200.728 262.732 199.651 263.819C198.575 264.906 197.3 265.718 195.828 266.254C194.367 266.807 192.626 266.99 190.605 266.802L190.652 263.598C192.195 263.65 193.452 263.518 194.42 263.201C195.403 262.887 196.22 262.39 196.872 261.71C197.537 261.033 198.178 260.186 198.795 259.169L197.443 258.909L194.197 235.553L198.461 236.373L200.698 256.515L210.378 238.665L214.495 239.457ZM227.228 261.682C228.295 261.888 229.322 261.898 230.308 261.714C231.308 261.532 232.264 261.242 233.177 260.842L234.58 263.808C233.463 264.441 232.177 264.87 230.723 265.094C229.269 265.317 227.863 265.298 226.504 265.037C224.299 264.613 222.506 263.779 221.125 262.536C219.757 261.295 218.831 259.744 218.348 257.883C217.865 256.021 217.848 253.948 218.297 251.662C218.732 249.445 219.531 247.543 220.692 245.954C221.866 244.369 223.335 243.228 225.098 242.531C226.863 241.821 228.855 241.68 231.074 242.106C232.515 242.384 233.81 242.863 234.957 243.543C236.12 244.213 237.139 245.07 238.013 246.115L235.61 248.349C234.831 247.552 234.015 246.906 233.163 246.412C232.313 245.903 231.41 245.557 230.453 245.373C228.623 245.021 226.992 245.412 225.561 246.546C224.13 247.679 223.136 249.659 222.581 252.486C222.211 254.37 222.174 255.951 222.469 257.23C222.778 258.512 223.35 259.52 224.184 260.256C225.021 260.978 226.035 261.453 227.228 261.682ZM252.168 266.479C253.236 266.684 254.263 266.695 255.248 266.511C256.248 266.329 257.204 266.039 258.118 265.639L259.521 268.605C258.403 269.238 257.118 269.667 255.664 269.89C254.21 270.114 252.803 270.095 251.444 269.834C249.24 269.41 247.447 268.576 246.065 267.332C244.697 266.092 243.772 264.541 243.289 262.679C242.805 260.818 242.788 258.744 243.237 256.458C243.673 254.242 244.471 252.339 245.632 250.751C246.807 249.165 248.276 248.024 250.038 247.328C251.804 246.618 253.796 246.476 256.014 246.903C257.456 247.18 258.75 247.659 259.897 248.34C261.061 249.009 262.079 249.867 262.953 250.912L260.55 253.146C259.772 252.349 258.956 251.703 258.104 251.208C257.254 250.7 256.351 250.354 255.394 250.17C253.564 249.818 251.933 250.209 250.502 251.342C249.07 252.476 248.077 254.456 247.522 257.282C247.151 259.166 247.114 260.748 247.41 262.027C247.719 263.308 248.291 264.317 249.125 265.053C249.961 265.774 250.976 266.25 252.168 266.479ZM266.546 272.199L270.849 250.295L274.842 251.063L273.119 259.833L277.3 260.637L285.095 253.035L289.421 253.867L280.274 262.632L286.179 275.975L281.499 275.075L276.612 263.697L272.515 262.909L270.539 272.967L266.546 272.199ZM312.615 258.328L308.312 280.231L304.381 279.475L306.292 269.75C306.586 268.253 306.914 266.836 307.278 265.497C307.659 264.146 308.033 262.975 308.4 261.982L295.958 277.855L291.299 276.959L295.602 255.056L299.533 255.812L297.627 265.517C297.341 266.971 297.009 268.403 296.632 269.811C296.257 271.206 295.897 272.344 295.551 273.227L307.873 257.416L312.615 258.328ZM337.555 263.124L333.252 285.028L329.321 284.272L331.232 274.546C331.526 273.05 331.855 271.632 332.219 270.293C332.599 268.943 332.973 267.771 333.341 266.778L320.899 282.652L316.24 281.756L320.543 259.853L324.474 260.609L322.567 270.313C322.281 271.768 321.95 273.2 321.572 274.608C321.198 276.002 320.837 277.141 320.491 278.023L332.813 262.212L337.555 263.124ZM329.897 256.734C328.76 256.516 327.772 256.124 326.933 255.561C326.111 254.985 325.489 254.269 325.067 253.412C324.646 252.554 324.481 251.602 324.571 250.556L327.298 250.519C327.401 251.459 327.712 252.181 328.232 252.683C328.766 253.189 329.518 253.534 330.489 253.721C331.459 253.908 332.302 253.868 333.016 253.603C333.743 253.341 334.333 252.793 334.785 251.959L337.278 253C336.966 254.003 336.445 254.823 335.716 255.46C334.986 256.096 334.118 256.525 333.11 256.748C332.119 256.96 331.048 256.956 329.897 256.734Z" fill="#FBF6EA"/>
<path d="M1095.32 389.845C1095.67 391.449 1096.21 392.721 1096.94 393.663C1097.68 394.59 1098.54 395.224 1099.54 395.567C1100.54 395.895 1101.59 395.971 1102.71 395.794C1103.81 395.619 1104.8 395.292 1105.66 394.812C1106.53 394.331 1107.39 393.695 1108.23 392.904L1110.46 395.146C1109.56 396.132 1108.47 396.976 1107.19 397.678C1105.92 398.367 1104.55 398.826 1103.1 399.055C1100.9 399.404 1098.95 399.22 1097.25 398.504C1095.56 397.771 1094.17 396.604 1093.08 395.003C1092.01 393.4 1091.29 391.455 1090.93 389.169C1090.57 386.952 1090.65 384.91 1091.17 383.041C1091.7 381.17 1092.62 379.617 1093.92 378.381C1095.22 377.145 1096.89 376.367 1098.91 376.047C1100.81 375.747 1102.51 375.927 1104.01 376.589C1105.54 377.249 1106.8 378.336 1107.8 379.85C1108.79 381.35 1109.47 383.23 1109.83 385.488C1109.89 385.865 1109.95 386.228 1109.99 386.579C1110.03 386.93 1110.06 387.24 1110.07 387.509L1095.32 389.845ZM1099.45 379.177C1097.89 379.425 1096.68 380.189 1095.81 381.47C1094.95 382.749 1094.64 384.564 1094.86 386.917L1105.82 385.181C1105.42 382.957 1104.66 381.34 1103.54 380.331C1102.43 379.306 1101.07 378.921 1099.45 379.177ZM1118.71 396.047L1115.19 374.005L1118.64 373.458L1119.41 376.381C1120.13 375.109 1121.1 374.07 1122.3 373.265C1123.51 372.458 1124.77 371.951 1126.06 371.746C1128.18 371.41 1129.84 371.741 1131.03 372.74C1132.21 373.724 1132.97 375.241 1133.3 377.29L1135.86 393.33L1131.85 393.966L1129.68 380.394C1129.46 379 1129.19 377.884 1128.89 377.046C1128.59 376.192 1128.16 375.609 1127.6 375.298C1127.03 374.988 1126.24 374.913 1125.22 375.074C1124.43 375.2 1123.7 375.493 1123.05 375.955C1122.39 376.416 1121.82 376.957 1121.33 377.577C1120.86 378.195 1120.48 378.821 1120.18 379.454L1122.73 395.411L1118.71 396.047ZM1158.06 364.598L1159.8 367.968C1158.93 368.406 1157.97 368.751 1156.92 369.003C1155.89 369.252 1154.74 369.477 1153.47 369.678C1154.86 370.058 1155.96 370.657 1156.76 371.473C1157.56 372.289 1158.07 373.339 1158.27 374.622C1158.5 376.071 1158.37 377.415 1157.87 378.653C1157.38 379.888 1156.55 380.927 1155.38 381.769C1154.23 382.609 1152.77 383.17 1151 383.45C1150.3 383.561 1149.7 383.627 1149.21 383.648C1148.72 383.653 1148.24 383.623 1147.75 383.556C1147.48 383.814 1147.27 384.141 1147.12 384.536C1146.98 384.93 1146.94 385.329 1147.01 385.733C1147.09 386.221 1147.35 386.608 1147.79 386.895C1148.24 387.168 1149.03 387.215 1150.15 387.036L1154.07 386.416C1155.59 386.175 1156.98 386.226 1158.25 386.568C1159.54 386.908 1160.59 387.477 1161.42 388.275C1162.25 389.073 1162.75 390.05 1162.94 391.208C1163.29 393.397 1162.62 395.225 1160.94 396.692C1159.26 398.173 1156.71 399.185 1153.28 399.728C1150.85 400.112 1148.9 400.164 1147.43 399.883C1145.97 399.6 1144.86 399.01 1144.12 398.113C1143.39 397.213 1142.9 396.018 1142.67 394.526L1146.28 393.953C1146.42 394.775 1146.68 395.426 1147.09 395.905C1147.5 396.384 1148.15 396.689 1149.04 396.819C1149.93 396.949 1151.18 396.887 1152.78 396.633C1154.37 396.381 1155.63 396.046 1156.57 395.626C1157.5 395.207 1158.16 394.702 1158.54 394.114C1158.91 393.525 1159.04 392.861 1158.93 392.122C1158.77 391.146 1158.21 390.47 1157.25 390.093C1156.29 389.717 1155.12 389.636 1153.76 389.853L1149.89 390.466C1147.91 390.779 1146.38 390.592 1145.32 389.904C1144.26 389.199 1143.64 388.296 1143.47 387.194C1143.35 386.469 1143.44 385.733 1143.74 384.986C1144.05 384.237 1144.56 383.541 1145.27 382.899C1143.88 382.419 1142.79 381.733 1142.02 380.84C1141.26 379.946 1140.77 378.787 1140.54 377.365C1140.3 375.845 1140.46 374.447 1141.03 373.171C1141.61 371.892 1142.53 370.818 1143.78 369.949C1145.02 369.079 1146.53 368.505 1148.28 368.227C1150.11 367.937 1151.59 367.617 1152.72 367.267C1153.86 366.9 1154.84 366.503 1155.64 366.075C1156.46 365.632 1157.26 365.139 1158.06 364.598ZM1148.76 371.068C1147.11 371.328 1145.96 371.983 1145.3 373.031C1144.63 374.065 1144.42 375.294 1144.64 376.716C1144.87 378.152 1145.47 379.265 1146.44 380.054C1147.41 380.83 1148.73 381.086 1150.4 380.821C1151.88 380.587 1152.94 379.982 1153.59 379.008C1154.23 378.02 1154.43 376.738 1154.18 375.163C1153.92 373.574 1153.34 372.436 1152.43 371.752C1151.52 371.053 1150.29 370.825 1148.76 371.068ZM1173 355.757L1177.03 380.978C1177.2 382.038 1177.65 382.739 1178.37 383.081C1179.1 383.409 1179.98 383.492 1181.01 383.328C1181.66 383.224 1182.27 383.056 1182.84 382.824C1183.4 382.592 1183.96 382.318 1184.51 382.002L1186.01 384.702C1185.45 385.106 1184.72 385.499 1183.84 385.882C1182.96 386.278 1181.94 386.568 1180.78 386.752C1178.72 387.079 1176.98 386.761 1175.57 385.798C1174.16 384.835 1173.29 383.343 1172.97 381.321L1169.47 359.447L1162.75 360.51L1162.27 357.457L1173 355.757ZM1201.99 360.257L1205.03 379.246L1211.15 378.275L1211.64 381.328L1194.78 383.999L1194.29 380.945L1201.01 379.882L1198.46 363.946L1191.96 364.977L1191.47 361.923L1201.99 360.257ZM1197.31 350.191C1198.15 350.058 1198.86 350.21 1199.44 350.646C1200.04 351.08 1200.4 351.667 1200.52 352.406C1200.64 353.173 1200.49 353.862 1200.06 354.473C1199.64 355.069 1199.01 355.433 1198.17 355.565C1197.35 355.695 1196.64 355.544 1196.04 355.109C1195.45 354.659 1195.1 354.051 1194.98 353.284C1194.86 352.545 1195.01 351.878 1195.43 351.282C1195.86 350.685 1196.49 350.321 1197.31 350.191ZM1226.34 376.255C1227.95 376.001 1229.16 375.509 1229.99 374.777C1230.83 374.044 1231.17 373.175 1231.01 372.171C1230.91 371.53 1230.69 370.999 1230.37 370.579C1230.06 370.156 1229.49 369.818 1228.66 369.563C1227.85 369.305 1226.64 369.103 1225.05 368.956C1223.49 368.816 1222.12 368.583 1220.92 368.258C1219.73 367.933 1218.76 367.414 1218.02 366.703C1217.29 365.989 1216.82 364.991 1216.61 363.708C1216.41 362.454 1216.59 361.311 1217.14 360.28C1217.7 359.247 1218.59 358.378 1219.79 357.673C1221.01 356.966 1222.47 356.477 1224.19 356.205C1226 355.918 1227.61 355.912 1229.03 356.188C1230.46 356.448 1231.7 356.852 1232.74 357.401L1231.45 360.287C1230.5 359.85 1229.49 359.531 1228.42 359.33C1227.36 359.127 1226.14 359.133 1224.78 359.349C1223.14 359.608 1222.02 360.043 1221.4 360.656C1220.8 361.252 1220.56 361.954 1220.69 362.763C1220.78 363.362 1221.03 363.838 1221.43 364.189C1221.84 364.524 1222.49 364.793 1223.38 364.995C1224.27 365.197 1225.49 365.383 1227.03 365.553C1228.53 365.716 1229.86 365.978 1231.02 366.337C1232.18 366.697 1233.12 367.263 1233.84 368.034C1234.58 368.79 1235.06 369.865 1235.28 371.259C1235.53 372.834 1235.28 374.189 1234.54 375.322C1233.79 376.442 1232.72 377.346 1231.35 378.036C1229.98 378.724 1228.49 379.197 1226.85 379.455C1224.85 379.773 1223.07 379.754 1221.53 379.398C1220 379.04 1218.67 378.513 1217.56 377.817L1219.37 374.915C1220.35 375.489 1221.43 375.911 1222.62 376.18C1223.8 376.436 1225.05 376.461 1226.34 376.255ZM1243.15 344.239L1245.09 356.368C1245.78 355.1 1246.7 354.09 1247.84 353.338C1248.99 352.57 1250.21 352.084 1251.49 351.881C1253.61 351.545 1255.26 351.876 1256.45 352.874C1257.64 353.859 1258.4 355.375 1258.72 357.425L1261.29 373.465L1257.27 374.101L1254.77 358.416C1254.55 357.092 1254.11 356.182 1253.45 355.687C1252.8 355.176 1251.86 355.018 1250.63 355.212C1249.85 355.336 1249.13 355.628 1248.47 356.089C1247.83 356.548 1247.27 357.095 1246.78 357.729C1246.3 358.35 1245.9 358.976 1245.6 359.61L1248.15 375.546L1244.14 376.182L1239.2 345.314L1243.15 344.239Z" fill="#FBF6EA"/>
<path d="M1188.71 666.234C1187.98 666.822 1187.08 667.322 1186 667.733C1184.92 668.159 1183.83 668.43 1182.72 668.546C1180.25 668.806 1178.28 668.36 1176.83 667.207C1175.38 666.052 1174.55 664.443 1174.33 662.379L1172.97 649.66L1167.94 650.189L1167.62 647.156L1172.65 646.627L1172.12 641.615L1176.11 640.706L1176.7 646.202L1184.28 645.405L1184.14 648.486L1177.02 649.235L1178.37 661.912C1178.5 663.134 1178.91 664.021 1179.59 664.574C1180.29 665.125 1181.37 665.324 1182.83 665.17C1183.66 665.083 1184.4 664.905 1185.07 664.636C1185.74 664.368 1186.35 664.048 1186.91 663.677L1188.71 666.234ZM1197.74 643.99L1199.41 659.616C1199.56 661.02 1199.95 662.001 1200.59 662.558C1201.23 663.101 1202.14 663.311 1203.32 663.187C1204.46 663.067 1205.51 662.624 1206.46 661.856C1207.42 661.088 1208.13 660.218 1208.61 659.245L1206.88 643.029L1210.93 642.604L1213.29 664.801L1209.82 665.166L1209.21 662.27C1208.49 663.467 1207.52 664.435 1206.3 665.173C1205.09 665.897 1203.83 666.328 1202.52 666.465C1200.37 666.691 1198.7 666.277 1197.51 665.224C1196.34 664.169 1195.64 662.61 1195.42 660.547L1193.7 644.415L1197.74 643.99ZM1197.33 638.944C1196.62 639.019 1195.99 638.85 1195.47 638.437C1194.94 638.024 1194.64 637.473 1194.57 636.785C1194.49 636.083 1194.67 635.476 1195.1 634.962C1195.52 634.449 1196.1 634.154 1196.81 634.079C1197.5 634.007 1198.11 634.177 1198.63 634.59C1199.16 635.003 1199.46 635.561 1199.54 636.263C1199.61 636.951 1199.43 637.552 1199.01 638.065C1198.58 638.579 1198.02 638.871 1197.33 638.944ZM1206.18 638.014C1205.49 638.086 1204.88 637.916 1204.36 637.503C1203.83 637.09 1203.53 636.539 1203.45 635.851C1203.38 635.149 1203.56 634.541 1203.98 634.028C1204.41 633.514 1204.97 633.222 1205.66 633.149C1206.38 633.074 1207 633.243 1207.52 633.656C1208.05 634.069 1208.35 634.627 1208.43 635.329C1208.5 636.017 1208.32 636.617 1207.89 637.131C1207.47 637.644 1206.89 637.939 1206.18 638.014ZM1221.53 663.935L1221.21 660.944L1224.58 660.59L1222.86 644.374L1219.49 644.729L1219.17 641.738L1225.63 641.059L1226.92 646.183C1227.57 644.255 1228.45 642.736 1229.57 641.624C1230.7 640.498 1232.25 639.831 1234.21 639.625C1234.86 639.557 1235.43 639.546 1235.93 639.593C1236.45 639.638 1236.98 639.71 1237.51 639.81L1236.69 643.474C1236.21 643.383 1235.78 643.329 1235.39 643.312C1235.01 643.296 1234.57 643.314 1234.08 643.365C1232.41 643.541 1231.04 644.295 1229.97 645.628C1228.91 646.961 1228.14 648.837 1227.68 651.257L1228.63 660.165L1233.14 659.691L1233.45 662.682L1221.53 663.935ZM1234.59 647.996L1234.05 642.9L1234.23 640.155L1237.51 639.81L1237.71 647.668L1234.59 647.996ZM1263.23 637.107L1254.73 648.073L1266.65 659.192L1261.53 659.73L1249.9 648.687L1258.24 637.631L1263.23 637.107ZM1247.44 629.247L1250.81 660.857L1246.77 661.282L1243.45 630.157L1247.44 629.247Z" fill="#FBF6EA"/>
<path d="M182.289 502.132L180.762 511.668L177.519 511.159L177.885 504.721L176.379 504.485L176.828 501.276L182.289 502.132ZM161.335 502.128L164.863 480.086L168.881 480.716L167.468 489.541L171.673 490.2L179.196 482.332L183.548 483.014L174.716 492.092L181.086 505.223L176.379 504.485L171.094 493.282L166.972 492.636L165.352 502.757L161.335 502.128ZM203.305 503.517C203.165 504.395 203.202 505.059 203.416 505.507C203.632 505.941 204.025 506.302 204.593 506.592L203.21 509.204C202.226 508.922 201.402 508.485 200.739 507.895C200.075 507.305 199.64 506.494 199.434 505.461C198.476 506.355 197.348 506.971 196.049 507.311C194.753 507.636 193.394 507.688 191.971 507.465C189.753 507.117 188.103 506.215 187.021 504.76C185.938 503.304 185.561 501.551 185.889 499.502C186.257 497.201 187.432 495.578 189.414 494.631C191.41 493.686 194.089 493.477 197.45 494.003L200.651 494.505L200.919 492.832C201.163 491.312 200.882 490.161 200.078 489.378C199.288 488.596 198.091 488.08 196.487 487.829C195.762 487.715 194.882 487.67 193.849 487.694C192.816 487.718 191.703 487.836 190.51 488.05L189.954 484.961C191.403 484.66 192.767 484.495 194.044 484.466C195.335 484.44 196.525 484.512 197.613 484.682C200.458 485.128 202.482 486.11 203.683 487.627C204.886 489.131 205.308 491.005 204.949 493.249L203.305 503.517ZM193.583 504.63C194.615 504.792 195.648 504.682 196.681 504.301C197.714 503.92 198.614 503.304 199.379 502.452L200.233 497.119L197.304 496.66C194.974 496.295 193.258 496.433 192.154 497.075C191.053 497.703 190.393 498.7 190.174 500.066C189.969 501.349 190.147 502.377 190.71 503.151C191.272 503.925 192.23 504.418 193.583 504.63ZM217.289 497.52L221.265 498.143C222.687 498.366 223.849 498.255 224.749 497.81C225.666 497.353 226.2 496.651 226.352 495.703C226.528 494.602 226.22 493.717 225.426 493.05C224.648 492.37 223.464 491.906 221.874 491.657C220.772 491.484 219.601 491.472 218.362 491.621C217.125 491.756 215.961 492.06 214.87 492.532L213.383 489.898C214.661 489.24 216.112 488.796 217.736 488.565C219.374 488.336 220.981 488.344 222.558 488.591C224.231 488.854 225.702 489.313 226.97 489.969C228.251 490.627 229.218 491.465 229.871 492.481C230.523 493.498 230.742 494.676 230.528 496.014C230.329 497.255 229.741 498.206 228.763 498.867C227.787 499.515 226.585 499.92 225.158 500.082C226.202 500.346 227.131 500.755 227.942 501.311C228.754 501.867 229.366 502.556 229.778 503.378C230.192 504.186 230.314 505.12 230.144 506.18C229.897 507.727 229.242 508.961 228.179 509.88C227.133 510.788 225.799 511.394 224.178 511.697C222.573 511.989 220.787 511.98 218.82 511.672C216.644 511.331 214.83 510.739 213.377 509.897C211.925 509.055 210.736 508.133 209.81 507.13L212.073 504.913C213.017 505.804 214.069 506.562 215.227 507.186C216.401 507.799 217.791 508.231 219.395 508.482C221.348 508.788 222.861 508.668 223.935 508.122C225.011 507.562 225.643 506.696 225.831 505.525C226.016 504.368 225.7 503.439 224.883 502.74C224.065 502.04 222.778 501.552 221.02 501.277L216.522 500.572L217.289 497.52ZM253.488 511.381C253.348 512.26 253.384 512.923 253.599 513.371C253.815 513.805 254.208 514.166 254.776 514.456L253.393 517.068C252.409 516.786 251.585 516.349 250.921 515.759C250.258 515.17 249.823 514.358 249.617 513.325C248.659 514.219 247.53 514.835 246.232 515.175C244.936 515.5 243.577 515.552 242.154 515.329C239.936 514.981 238.286 514.079 237.203 512.624C236.121 511.168 235.744 509.415 236.072 507.366C236.44 505.065 237.615 503.442 239.597 502.495C241.593 501.55 244.271 501.341 247.633 501.867L250.834 502.369L251.102 500.696C251.345 499.177 251.065 498.025 250.261 497.242C249.471 496.46 248.274 495.944 246.67 495.693C245.944 495.579 245.065 495.534 244.032 495.558C242.998 495.582 241.886 495.7 240.693 495.914L240.137 492.825C241.586 492.524 242.95 492.359 244.227 492.33C245.518 492.304 246.707 492.376 247.795 492.546C250.641 492.992 252.664 493.974 253.866 495.491C255.069 496.995 255.491 498.869 255.132 501.113L253.488 511.381ZM243.766 512.494C244.798 512.656 245.831 512.546 246.864 512.165C247.897 511.784 248.797 511.168 249.562 510.316L250.416 504.983L247.487 504.524C245.157 504.159 243.441 504.297 242.337 504.939C241.236 505.567 240.576 506.564 240.357 507.93C240.152 509.213 240.33 510.241 240.893 511.015C241.455 511.789 242.413 512.282 243.766 512.494ZM282.655 517.86L281.128 527.396L277.885 526.887L278.251 520.449L276.744 520.213L277.194 517.004L282.655 517.86ZM261.701 517.856L265.229 495.814L269.246 496.444L267.834 505.269L272.039 505.928L279.561 498.06L283.913 498.742L275.082 507.82L281.452 520.951L276.744 520.213L271.46 509.01L267.338 508.364L265.718 518.485L261.701 517.856ZM309.381 502.733L305.853 524.775L284.47 521.424L287.998 499.382L291.68 499.96L288.671 518.76L293.923 519.583L296.932 500.782L300.447 501.333L297.438 520.133L302.668 520.953L305.678 502.153L309.381 502.733ZM328.762 523.177C328.622 524.056 328.659 524.719 328.873 525.167C329.089 525.601 329.482 525.962 330.051 526.252L328.667 528.865C327.683 528.582 326.859 528.145 326.196 527.555C325.532 526.966 325.097 526.154 324.891 525.122C323.933 526.015 322.805 526.631 321.506 526.971C320.21 527.296 318.851 527.348 317.428 527.125C315.21 526.777 313.56 525.875 312.478 524.42C311.395 522.964 311.018 521.211 311.346 519.162C311.714 516.861 312.889 515.238 314.871 514.291C316.867 513.346 319.546 513.137 322.907 513.664L326.109 514.165L326.376 512.492C326.62 510.973 326.339 509.821 325.535 509.038C324.745 508.257 323.548 507.74 321.944 507.489C321.219 507.375 320.339 507.33 319.306 507.354C318.273 507.378 317.16 507.497 315.968 507.71L315.411 504.621C316.861 504.32 318.224 504.155 319.501 504.126C320.792 504.1 321.982 504.172 323.07 504.343C325.915 504.788 327.939 505.77 329.14 507.287C330.343 508.791 330.765 510.665 330.406 512.909L328.762 523.177ZM319.04 524.29C320.072 524.452 321.105 524.342 322.138 523.961C323.172 523.58 324.071 522.964 324.836 522.112L325.69 516.779L322.761 516.32C320.431 515.955 318.715 516.093 317.611 516.735C316.51 517.363 315.85 518.36 315.631 519.726C315.426 521.009 315.604 522.037 316.167 522.811C316.729 523.585 317.687 524.078 319.04 524.29Z" fill="#FBF6EA"/>
<path d="M180.364 716.89L181.583 720.125C180.984 720.389 180.328 720.643 179.617 720.889C178.921 721.123 178.134 721.35 177.256 721.569C176.391 721.791 175.383 722.012 174.233 722.232C173.289 722.413 172.434 722.657 171.67 722.966C170.922 723.264 170.243 723.707 169.634 724.298C169.038 724.891 168.507 725.708 168.04 726.749C167.575 727.777 167.15 729.096 166.763 730.708L166.904 730.901L166.107 735.878C165.692 738.472 165.84 740.538 166.551 742.079C167.279 743.608 168.459 744.5 170.091 744.756C171.067 744.909 171.986 744.839 172.848 744.545C173.727 744.24 174.491 743.573 175.142 742.546C175.808 741.508 176.306 739.963 176.634 737.914C177.053 735.293 176.928 733.394 176.259 732.217C175.592 731.027 174.56 730.322 173.166 730.103C172.217 729.955 171.261 730.034 170.297 730.34C169.349 730.634 168.445 731.186 167.587 731.994C166.73 732.789 165.965 733.863 165.291 735.215L165.855 731.423C166.781 729.839 167.988 728.642 169.476 727.832C170.966 727.008 172.632 726.74 174.473 727.028C176.077 727.28 177.421 727.905 178.505 728.904C179.589 729.902 180.351 731.215 180.792 732.842C181.232 734.469 181.282 736.342 180.943 738.461C180.566 740.817 179.834 742.753 178.748 744.269C177.676 745.787 176.346 746.858 174.759 747.481C173.189 748.093 171.462 748.251 169.579 747.956C167.737 747.667 166.162 746.97 164.852 745.864C163.558 744.747 162.649 743.19 162.125 741.192C161.601 739.195 161.574 736.726 162.045 733.784C162.534 730.731 163.178 728.181 163.978 726.134C164.777 724.087 165.877 722.487 167.277 721.335C168.677 720.182 170.524 719.407 172.818 719.009C173.98 718.805 174.97 718.61 175.786 718.424C176.616 718.239 177.386 718.031 178.095 717.799C178.82 717.556 179.577 717.253 180.364 716.89ZM198.449 728.814C200.556 729.144 202.244 729.894 203.515 731.065C204.8 732.238 205.667 733.746 206.116 735.589C206.581 737.419 206.625 739.506 206.251 741.848C205.887 744.12 205.189 746.069 204.157 747.693C203.141 749.306 201.835 750.495 200.24 751.26C198.647 752.011 196.804 752.222 194.712 751.894C192.62 751.566 190.924 750.815 189.625 749.639C188.34 748.466 187.466 746.957 187.004 745.113C186.541 743.268 186.496 741.182 186.869 738.853C187.235 736.567 187.926 734.617 188.942 733.004C189.974 731.38 191.294 730.193 192.901 729.445C194.508 728.696 196.357 728.486 198.449 728.814ZM197.937 732.013C196.124 731.729 194.648 732.198 193.508 733.42C192.371 734.628 191.574 736.661 191.116 739.519C190.663 742.349 190.781 744.518 191.469 746.027C192.159 747.521 193.411 748.41 195.224 748.695C197.037 748.979 198.506 748.516 199.629 747.305C200.754 746.081 201.546 744.04 202.003 741.182C202.458 738.338 202.341 736.169 201.651 734.674C200.975 733.182 199.737 732.295 197.937 732.013ZM232.329 734.659L228.8 756.7L224.783 756.071L227.796 737.25L220.117 736.046L218.827 741.289C218.251 743.728 217.697 745.714 217.166 747.245C216.651 748.765 216.092 749.978 215.49 750.884C214.887 751.79 214.187 752.502 213.389 753.02C212.593 753.524 211.635 753.974 210.513 754.37L209.23 751.533C209.8 751.279 210.32 750.982 210.789 750.641C211.258 750.3 211.713 749.778 212.155 749.075C212.596 748.373 213.042 747.371 213.494 746.07C213.945 744.768 214.43 743.037 214.947 740.874L217.013 732.259L232.329 734.659ZM241.211 748.741C241.035 750.371 241.151 751.747 241.558 752.869C241.967 753.976 242.593 754.846 243.435 755.478C244.28 756.096 245.26 756.493 246.376 756.668C247.478 756.84 248.516 756.831 249.49 756.641C250.464 756.451 251.477 756.109 252.528 755.617L253.944 758.432C252.78 759.093 251.482 759.561 250.051 759.837C248.622 760.099 247.182 760.117 245.732 759.889C243.528 759.544 241.729 758.769 240.334 757.564C238.956 756.348 238.001 754.812 237.469 752.957C236.95 751.103 236.874 749.033 237.24 746.747C237.595 744.53 238.309 742.613 239.383 740.995C240.471 739.379 241.828 738.184 243.453 737.409C245.079 736.635 246.903 736.407 248.925 736.724C250.822 737.021 252.384 737.716 253.61 738.808C254.851 739.903 255.71 741.324 256.188 743.071C256.669 744.804 256.728 746.8 256.366 749.058C256.306 749.435 256.241 749.796 256.171 750.142C256.102 750.489 256.032 750.792 255.961 751.053L241.211 748.741ZM248.465 739.867C246.903 739.622 245.509 739.975 244.285 740.927C243.074 741.88 242.205 743.509 241.679 745.813L252.643 747.531C252.958 745.294 252.741 743.524 251.992 742.22C251.259 740.905 250.083 740.12 248.465 739.867ZM266.302 752.673C266.127 754.303 266.243 755.679 266.649 756.801C267.058 757.908 267.684 758.778 268.527 759.41C269.371 760.028 270.352 760.425 271.467 760.6C272.569 760.772 273.608 760.763 274.582 760.573C275.556 760.383 276.569 760.041 277.62 759.549L279.035 762.364C277.871 763.025 276.574 763.493 275.142 763.769C273.714 764.031 272.274 764.049 270.823 763.821C268.619 763.476 266.82 762.701 265.426 761.496C264.048 760.28 263.092 758.744 262.56 756.889C262.042 755.035 261.966 752.965 262.332 750.679C262.686 748.462 263.401 746.545 264.475 744.927C265.563 743.311 266.92 742.116 268.545 741.342C270.17 740.567 271.994 740.339 274.017 740.656C275.914 740.953 277.475 741.648 278.702 742.74C279.942 743.835 280.801 745.256 281.28 747.003C281.76 748.736 281.819 750.732 281.458 752.99C281.398 753.367 281.333 753.728 281.263 754.074C281.193 754.421 281.123 754.724 281.053 754.985L266.302 752.673ZM273.556 743.799C271.994 743.554 270.601 743.907 269.376 744.859C268.165 745.812 267.297 747.441 266.771 749.745L277.734 751.464C278.05 749.226 277.833 747.456 277.083 746.152C276.35 744.837 275.174 744.053 273.556 743.799ZM326.54 741.941C327.669 742.118 328.691 742.435 329.604 742.893C330.52 743.336 331.339 743.893 332.061 744.564L330.066 746.974C329.489 746.469 328.854 746.062 328.16 745.753C327.482 745.433 326.759 745.212 325.992 745.092C324.528 744.862 323.194 745.154 321.992 745.966C320.805 746.766 319.798 748.016 318.968 749.715C318.138 751.414 317.536 753.478 317.162 755.906L316.969 757.376C316.409 760.875 316.43 763.515 317.031 765.296C317.647 767.079 318.973 768.13 321.009 768.449C322.739 768.72 324.13 768.295 325.181 767.173C326.247 766.054 326.949 764.435 327.289 762.316C327.534 760.782 327.526 759.538 327.264 758.582C327.017 757.629 326.56 756.907 325.895 756.417C325.246 755.915 324.441 755.589 323.478 755.438C322.083 755.219 320.769 755.435 319.535 756.085C318.316 756.737 317.251 757.67 316.342 758.886L316.784 755.589C317.978 754.204 319.228 753.271 320.535 752.79C321.858 752.297 323.251 752.165 324.716 752.395C326.208 752.629 327.515 753.176 328.635 754.038C329.756 754.9 330.576 756.071 331.097 757.553C331.633 759.024 331.738 760.784 331.41 762.833C331.075 764.924 330.373 766.672 329.305 768.077C328.253 769.47 326.955 770.474 325.412 771.09C323.884 771.708 322.247 771.88 320.504 771.607C318.718 771.327 317.258 770.755 316.124 769.891C314.992 769.014 314.141 767.901 313.57 766.554C313.001 765.193 312.674 763.62 312.588 761.834C312.516 760.051 312.647 758.114 312.982 756.022C313.493 752.83 314.378 750.117 315.636 747.885C316.894 745.653 318.443 744.016 320.283 742.975C322.138 741.923 324.224 741.578 326.54 741.941ZM350.041 745.624C353.207 746.12 355.392 747.791 356.595 750.638C357.8 753.471 358.021 757.271 357.258 762.039C356.492 766.821 355.093 770.382 353.06 772.721C351.027 775.061 348.427 775.982 345.26 775.486C342.094 774.99 339.909 773.319 338.706 770.472C337.503 767.625 337.285 763.811 338.05 759.029C338.813 754.261 340.211 750.714 342.241 748.389C344.275 746.049 346.874 745.127 350.041 745.624ZM349.535 748.781C347.82 748.512 346.327 749.215 345.059 750.888C343.804 752.564 342.842 755.493 342.172 759.675C341.826 761.836 341.637 763.686 341.606 765.224C341.574 766.763 341.7 768.026 341.985 769.014C342.285 770.004 342.748 770.769 343.376 771.311C344.007 771.839 344.803 772.178 345.766 772.329C346.924 772.51 347.978 772.268 348.928 771.602C349.878 770.936 350.702 769.765 351.399 768.088C352.111 766.413 352.689 764.181 353.136 761.393C353.596 758.521 353.774 756.198 353.672 754.424C353.586 752.639 353.199 751.306 352.511 750.427C351.824 749.533 350.833 748.985 349.535 748.781ZM353.476 750.428L354.016 753.749L342.18 770.48L341.183 767.73L353.476 750.428ZM375.903 756.129L374.561 764.515L382.825 765.81L382.296 769.114L374.032 767.819L372.699 776.142L369.059 775.571L370.391 767.248L362.21 765.966L362.739 762.662L370.92 763.944L372.262 755.558L375.903 756.129Z" fill="#FBF6EA"/>
</g>
<defs>
<clipPath id="clip0_2434_2">
<rect width="1440" height="1030" fill="white"/>
</clipPath>
</defs>
</svg>
