<svg width="1440" height="958" viewBox="0 0 1440 958" fill="none" xmlns="http://www.w3.org/2000/svg">
<g clip-path="url(#clip0_2428_213)">
<path d="M1513.11 755.073L880.59 606.553L905.143 557.41L1513.11 627.666V755.073Z" fill="#E84949" stroke="#E84949" stroke-width="5.80977"/>
<path d="M1538.22 397.756L883.306 514.808L887.328 459.847L1488.56 280.771L1538.22 397.756Z" fill="#2E358D" stroke="#2E358D" stroke-width="5.80977"/>
<path d="M1513.53 32.5852L894.461 390.647L881.844 336.045L1428.5 -61.8602L1513.53 32.5852Z" fill="#E84949" stroke="#E84949" stroke-width="5.80977"/>
<path d="M-96.8547 761.003L544.562 612.483L519.664 563.34L-96.8547 633.596V761.003Z" fill="#E84949" stroke="#E84949" stroke-width="5.80977"/>
<path d="M-173.76 377.771L541.618 520.487L535.249 464.53L-124.103 260.785L-173.76 377.771Z" fill="#2E358D" stroke="#2E358D" stroke-width="5.80977"/>
<path d="M-61.5042 62.6703L530.463 396.325L544.132 342.671L23.5348 -31.7751L-61.5042 62.6703Z" fill="#E84949" stroke="#E84949" stroke-width="5.80977"/>
<circle cx="716.052" cy="504.367" r="242.195" fill="#2E358D"/>
<circle cx="716.415" cy="504.73" r="214.235" fill="#E84949"/>
<path d="M751.274 315.187C797.872 315.187 835.516 351.023 835.516 395.071C835.516 439.12 797.872 474.955 751.274 474.955C704.677 474.955 667.032 439.12 667.032 395.071C667.032 351.023 704.677 315.187 751.274 315.187Z" fill="#E84949" stroke="#FBF6EA" stroke-width="2.90489"/>
<path d="M751.274 326.806C791.066 326.806 823.17 357.127 823.17 394.345C823.17 431.563 791.066 461.883 751.274 461.883C711.482 461.883 679.378 431.563 679.378 394.345C679.378 357.127 711.482 326.806 751.274 326.806Z" fill="#E84949" stroke="#FBF6EA" stroke-width="2.90489"/>
<path d="M751.273 340.604C782.62 340.604 807.919 364.887 807.919 394.707C807.919 424.527 782.62 448.811 751.273 448.811C719.927 448.811 694.628 424.527 694.628 394.707C694.628 364.887 719.927 340.604 751.273 340.604Z" fill="#E84949" stroke="#FBF6EA" stroke-width="2.90489"/>
<path d="M750.91 355.128C773.619 355.128 791.941 372.896 791.941 394.707C791.941 416.519 773.619 434.286 750.91 434.286C728.201 434.286 709.878 416.519 709.878 394.707C709.878 372.895 728.201 355.128 750.91 355.128Z" fill="#E84949" stroke="#FBF6EA" stroke-width="2.90489"/>
<path d="M751.274 369.653C765.788 369.653 777.418 380.781 777.418 394.345C777.418 407.908 765.788 419.037 751.274 419.037C736.761 419.037 725.13 407.908 725.13 394.345C725.13 380.781 736.761 369.653 751.274 369.653Z" fill="#E84949" stroke="#FBF6EA" stroke-width="2.90489"/>
<path d="M805.741 401.607C859.08 401.607 902.328 445.009 902.328 498.559C902.328 552.108 859.08 595.509 805.741 595.509C752.403 595.509 709.153 552.108 709.153 498.559C709.153 445.009 752.402 401.607 805.741 401.607Z" fill="#E84949" stroke="#FBF6EA" stroke-width="2.90489"/>
<circle cx="805.016" cy="498.194" r="82.063" fill="#E84949" stroke="#FBF6EA" stroke-width="2.90489"/>
<circle cx="805.74" cy="498.195" r="65.3599" fill="#E84949" stroke="#FBF6EA" stroke-width="2.90489"/>
<path d="M805.377 450.99C831.638 450.99 852.945 472.44 852.945 498.921C852.945 525.402 831.638 546.852 805.377 546.852C779.116 546.851 757.81 525.402 757.81 498.921C757.81 472.44 779.117 450.99 805.377 450.99Z" fill="#E84949" stroke="#FBF6EA" stroke-width="2.90489"/>
<path d="M805.378 467.693C822.007 467.693 835.516 481.334 835.516 498.195C835.515 515.056 822.007 528.696 805.378 528.696C788.749 528.696 775.239 515.056 775.239 498.195C775.239 481.334 788.749 467.693 805.378 467.693Z" stroke="#FBF6EA" stroke-width="2.90489"/>
<circle cx="633.626" cy="448.085" r="103.85" fill="#E84949" stroke="#FBF6EA" stroke-width="2.90489"/>
<circle cx="633.263" cy="447.723" r="88.2359" fill="#E84949" stroke="#FBF6EA" stroke-width="2.90489"/>
<path d="M633.626 376.916C672.524 376.916 704.07 408.61 704.07 447.723C704.07 486.835 672.524 518.529 633.626 518.529C594.728 518.529 563.183 486.835 563.183 447.723C563.183 408.611 594.728 376.916 633.626 376.916Z" fill="#E84949" stroke="#FBF6EA" stroke-width="2.90489"/>
<path d="M633.265 396.522C661.531 396.523 684.463 419.599 684.463 448.085C684.463 476.571 661.531 499.646 633.265 499.646C604.998 499.646 582.066 476.571 582.065 448.085C582.065 419.599 604.998 396.522 633.265 396.522Z" fill="#E84949" stroke="#FBF6EA" stroke-width="2.90489"/>
<path d="M633.627 414.679C651.661 414.679 666.306 429.458 666.307 447.722C666.307 465.985 651.661 480.765 633.627 480.766C615.593 480.766 600.946 465.985 600.946 447.722C600.947 429.458 615.593 414.679 633.627 414.679Z" fill="#E84949" stroke="#FBF6EA" stroke-width="2.90489"/>
<circle cx="738.929" cy="596.961" r="96.5875" fill="#E84949" stroke="#FBF6EA" stroke-width="2.90489"/>
<path d="M738.566 514.171C784.095 514.171 820.992 550.918 820.992 596.234C820.992 641.55 784.095 678.297 738.566 678.297C693.038 678.297 656.14 641.551 656.14 596.234C656.14 550.918 693.038 514.171 738.566 514.171Z" fill="#E84949" stroke="#FBF6EA" stroke-width="2.90489"/>
<path d="M738.93 530.874C775.02 530.874 804.289 560.292 804.289 596.598C804.289 632.903 775.019 662.32 738.93 662.32C702.84 662.32 673.569 632.903 673.569 596.598C673.569 560.292 702.84 530.874 738.93 530.874Z" fill="#E84949" stroke="#FBF6EA" stroke-width="2.90489"/>
<path d="M738.564 549.029C764.825 549.029 786.133 570.479 786.133 596.96C786.133 623.441 764.825 644.891 738.564 644.891C712.304 644.89 690.997 623.441 690.997 596.96C690.997 570.479 712.304 549.03 738.564 549.029Z" fill="#E84949" stroke="#FBF6EA" stroke-width="2.90489"/>
<path d="M738.929 565.732C755.342 565.732 768.704 579.357 768.704 596.234C768.704 613.111 755.342 626.735 738.929 626.735C722.516 626.735 709.154 613.111 709.153 596.234C709.153 579.357 722.516 565.732 738.929 565.732Z" fill="#E84949" stroke="#FBF6EA" stroke-width="2.90489"/>
<circle cx="633.264" cy="564.644" r="96.9506" fill="#E84949" stroke="#FBF6EA" stroke-width="2.90489"/>
<circle cx="632.9" cy="564.281" r="82.063" fill="#E84949" stroke="#FBF6EA" stroke-width="2.90489"/>
<path d="M633.264 498.921C669.153 498.921 698.261 528.176 698.261 564.281C698.261 600.386 669.153 629.641 633.264 629.641C597.374 629.641 568.267 600.386 568.267 564.281C568.267 528.176 597.374 498.921 633.264 498.921Z" fill="#E84949" stroke="#FBF6EA" stroke-width="2.90489"/>
<path d="M632.9 516.35C659.362 516.35 680.831 537.962 680.831 564.644C680.831 591.325 659.362 612.938 632.9 612.938C606.439 612.937 584.97 591.325 584.97 564.644C584.97 537.962 606.439 516.35 632.9 516.35Z" fill="#E84949" stroke="#FBF6EA" stroke-width="2.90489"/>
<path d="M633.265 533.779C649.894 533.779 663.402 547.42 663.402 564.281C663.402 581.142 649.894 594.782 633.265 594.782C616.636 594.782 603.126 581.142 603.126 564.281C603.126 547.42 616.635 533.779 633.265 533.779Z" fill="#E84949" stroke="#FBF6EA" stroke-width="2.90489"/>
<ellipse cx="596.786" cy="557.34" rx="54.8436" ry="79.0667" transform="rotate(-2 596.786 557.34)" fill="#FBF6EA"/>
<ellipse cx="597.315" cy="574.811" rx="35.5849" ry="37.4004" fill="#E84949"/>
<ellipse cx="676.892" cy="607.402" rx="54.8436" ry="79.0667" transform="rotate(-41 676.892 607.402)" fill="#FBF6EA"/>
<ellipse cx="687.366" cy="625.646" rx="35.5849" ry="37.4004" fill="#E84949"/>
</g>
<defs>
<clipPath id="clip0_2428_213">
<rect width="1440" height="958" fill="white"/>
</clipPath>
</defs>
</svg>
