<svg width="1440" height="900" viewBox="0 0 1440 900" fill="none" xmlns="http://www.w3.org/2000/svg">
<g clip-path="url(#clip0_2436_20)">
<path d="M1269.13 698.936C1269.13 715.491 1264.86 731.884 1256.55 747.179C1248.24 762.474 1236.07 776.371 1220.71 788.077C1205.36 799.783 1187.14 809.069 1167.08 815.404C1147.02 821.74 1125.53 825 1103.82 825C1082.11 825 1060.61 821.74 1040.55 815.404C1020.5 809.069 1002.27 799.783 986.92 788.077C971.569 776.371 959.392 762.474 951.084 747.179C942.776 731.884 938.5 715.491 938.5 698.936L1103.82 698.936H1269.13Z" fill="#E84949"/>
<path d="M1190.66 267.281C1185.27 251.628 1175.89 237.52 1163.06 225.763C1150.22 214.006 1134.19 204.831 1115.86 198.76C1097.53 192.689 1077.28 189.843 1056.25 190.383C1035.23 190.922 1013.84 194.838 993.311 201.906C972.784 208.974 953.52 219.056 936.618 231.576C919.716 244.096 905.508 258.81 894.804 274.876C884.1 290.942 877.111 308.047 874.235 325.213C871.36 342.38 872.653 359.271 878.043 374.925L1034.35 321.103L1190.66 267.281Z" fill="#E84949"/>
<rect x="919.393" y="625.623" width="368.848" height="56.9056" fill="#E84949"/>
<rect x="890.732" y="160.562" width="140.81" height="56.9056" transform="rotate(-19 890.732 160.562)" fill="#E84949"/>
<path d="M1571.01 -127.903C1574.58 -132.149 1579.66 -134.748 1585.19 -135.075C1590.72 -135.404 1596.25 -133.434 1600.49 -129.652C1604.74 -125.87 1607.34 -120.602 1607.66 -115.061C1607.98 -109.517 1606 -104.154 1602.21 -100.097C1602.21 -100.097 1602.21 -100.097 1602.21 -100.097C1595.9 -93.3258 1589.58 -86.5545 1583.26 -79.7832C1469.55 42.1001 1355.83 163.983 1242.12 285.867C1235.8 292.638 1229.48 299.409 1223.16 306.181C1221.95 307.477 1220.26 308.243 1218.47 308.327C1216.67 308.41 1214.94 307.804 1213.61 306.626C1212.29 305.447 1211.49 303.788 1211.36 301.995C1211.23 300.202 1211.79 298.423 1212.94 297.066C1212.94 297.066 1212.94 297.066 1212.94 297.066C1218.9 289.984 1224.87 282.901 1230.84 275.818C1338.26 148.327 1445.68 20.8364 1553.1 -106.654C1559.07 -113.737 1565.04 -120.82 1571.01 -127.903Z" fill="#E84949"/>
<path d="M1252.63 285.09L1243.6 301.384C1247.77 304.22 1251.13 307.412 1253.68 310.96C1256.24 314.472 1258.13 317.964 1259.34 321.436L1248.86 324.672C1247.83 321.727 1246.43 319.074 1244.65 316.712C1242.93 314.333 1240.87 312.312 1238.46 310.648L1225.93 333.263C1229.27 336.919 1232.02 340.605 1234.19 344.323C1236.39 348.061 1237.61 351.943 1237.85 355.969C1238.14 359.979 1237.07 364.182 1234.63 368.578C1232.6 372.247 1229.89 375.209 1226.5 377.463C1223.12 379.718 1219.21 381.02 1214.79 381.372C1210.43 381.707 1205.71 380.874 1200.65 378.874L1191.77 394.895L1183.86 390.515L1192.56 374.821C1187.53 371.558 1183.6 367.811 1180.77 363.582C1177.94 359.353 1175.93 355.316 1174.73 351.472L1185.35 347.74C1186.48 351.265 1188.03 354.52 1189.98 357.503C1191.94 360.487 1194.57 363.062 1197.88 365.23L1213.01 337.929C1207.36 331.757 1203.75 326.026 1202.17 320.734C1200.65 315.426 1201.3 310.229 1204.12 305.143C1205.95 301.837 1208.42 299.219 1211.53 297.287C1214.68 295.376 1218.32 294.35 1222.43 294.209C1226.57 294.031 1230.99 294.963 1235.7 297.004L1244.73 280.71L1252.63 285.09ZM1219.31 345.197L1206.02 369.174C1213.03 371.35 1218.34 369.186 1221.94 362.683C1223.46 359.959 1224.07 357.261 1223.79 354.591C1223.54 351.884 1222.04 348.752 1219.31 345.197ZM1230.47 306.431C1227.52 305.413 1224.8 305.261 1222.32 305.973C1219.84 306.685 1217.89 308.313 1216.48 310.856C1215.23 313.109 1214.74 315.356 1215.02 317.599C1215.32 319.806 1216.82 322.659 1219.54 326.158L1230.47 306.431Z" fill="#FBF6EA"/>
<path d="M1731.51 -106.95C1735.66 -110.635 1741.07 -112.481 1746.59 -112.03C1752.11 -111.582 1757.29 -108.873 1760.95 -104.552C1764.6 -100.231 1766.43 -94.6672 1765.97 -89.136C1765.51 -83.6018 1762.81 -78.5539 1758.51 -75.0504C1758.51 -75.0504 1758.51 -75.0504 1758.51 -75.0504C1749.92 -68.059 1741.34 -61.0677 1732.75 -54.0763C1578.22 71.7678 1423.7 197.612 1269.17 323.456C1260.58 330.448 1252 337.439 1243.41 344.43C1242.03 345.555 1240.24 346.084 1238.46 345.92C1236.67 345.755 1235.02 344.909 1233.87 343.551C1232.73 342.194 1232.16 340.432 1232.29 338.635C1232.42 336.84 1233.23 335.157 1234.56 333.974C1234.56 333.974 1234.56 333.974 1234.56 333.974C1242.85 326.626 1251.13 319.277 1259.41 311.928C1408.49 179.651 1557.58 47.3737 1706.66 -84.9034C1714.94 -92.2522 1723.22 -99.6009 1731.51 -106.95Z" fill="#E84949"/>
</g>
<defs>
<clipPath id="clip0_2436_20">
<rect width="1440" height="900" fill="white" transform="matrix(-1 0 0 1 1440 0)"/>
</clipPath>
</defs>
</svg>
